<svg xmlns="http://www.w3.org/2000/svg" xmlns:xlink="http://www.w3.org/1999/xlink" contentStyleType="text/css" data-diagram-type="SEQUENCE" height="663px" preserveAspectRatio="none" style="width:1084px;height:663px;background:#FFFFFF;" version="1.1" viewBox="0 0 1084 663" width="1084px" zoomAndPan="magnify"><?plantuml 1.2026.5?><defs/><g><g class="title" data-source-line="1"><text fill="#000000" font-family="sans-serif" font-size="14" font-weight="700" lengthAdjust="spacing" textLength="291.6416" x="393.1738" y="27.9951">Sequence Diagram &#8212; Detail Regulasi</text><text fill="#000000" font-family="sans-serif" font-size="14" font-weight="700" lengthAdjust="spacing" textLength="192.7461" x="442.6216" y="44.292">GET /api/regulations/[id]</text></g><g><title>DataDetailPage</title><rect fill="#FFFFFF" height="395.6484" style="stroke:#181818;stroke-width:1;" width="10" x="194.2842" y="164.8281"/></g><g><title>GET .api.regulations..id.</title><rect fill="#FFFFFF" height="321.0859" style="stroke:#181818;stroke-width:1;" width="10" x="435.1543" y="190.4688"/></g><g><title>PostgreSQL</title><rect fill="#FFFFFF" height="25.6406" style="stroke:#181818;stroke-width:1;" width="10" x="648.2461" y="272.8828"/></g><rect fill="none" height="42.7734" style="stroke:#000000;stroke-width:1.5;" width="414.771" x="127.689" y="205.4688"/><rect fill="none" height="42.7734" style="stroke:#000000;stroke-width:1.5;" width="414.771" x="127.689" y="313.5234"/><g class="participant-lifeline" data-entity-uid="part1" data-qualified-name="USER" data-source-line="13" id="part1-lifeline"><g><title>Pengguna</title><rect fill="#000000" fill-opacity="0.00000" height="441.2891" width="8" x="39.0137" y="137.1875"/><line style="stroke:#2C3E50;stroke-width:0.5;stroke-dasharray:5,5;" x1="43" x2="43" y1="137.1875" y2="578.4766"/></g></g><g class="participant-lifeline" data-entity-uid="part2" data-qualified-name="UI" data-source-line="14" id="part2-lifeline"><g><title>DataDetailPage</title><rect fill="#000000" fill-opacity="0.00000" height="441.2891" width="8" x="195.2842" y="137.1875"/><line style="stroke:#2C3E50;stroke-width:0.5;stroke-dasharray:5,5;" x1="198.689" x2="198.689" y1="137.1875" y2="578.4766"/></g></g><g class="participant-lifeline" data-entity-uid="part3" data-qualified-name="API" data-source-line="15" id="part3-lifeline"><g><title>GET .api.regulations..id.</title><rect fill="#000000" fill-opacity="0.00000" height="441.2891" width="8" x="436.1543" y="137.1875"/><line style="stroke:#2C3E50;stroke-width:0.5;stroke-dasharray:5,5;" x1="439.8486" x2="439.8486" y1="137.1875" y2="578.4766"/></g></g><g class="participant-lifeline" data-entity-uid="part4" data-qualified-name="DB" data-source-line="16" id="part4-lifeline"><g><title>PostgreSQL</title><rect fill="#000000" fill-opacity="0.00000" height="441.2891" width="8" x="649.2461" y="137.1875"/><line style="stroke:#2C3E50;stroke-width:0.5;stroke-dasharray:5,5;" x1="652.8696" x2="652.8696" y1="137.1875" y2="578.4766"/></g></g><g class="participant participant-head" data-entity-uid="part1" data-qualified-name="USER" data-source-line="13" id="part1-head"><text fill="#000000" font-family="sans-serif" font-size="14" lengthAdjust="spacing" textLength="70.0273" x="5" y="133.8857">Pengguna</text><ellipse cx="43.0137" cy="69.3906" fill="#FDEBD0" rx="8" ry="8" style="stroke:#E67E22;stroke-width:0.5;"/><path d="M43.0137,77.3906 L43.0137,104.3906 M30.0137,85.3906 L56.0137,85.3906 M43.0137,104.3906 L30.0137,119.3906 M43.0137,104.3906 L56.0137,119.3906" fill="none" style="stroke:#E67E22;stroke-width:0.5;"/></g><g class="participant participant-tail" data-entity-uid="part1" data-qualified-name="USER" data-source-line="13" id="part1-tail"><text fill="#000000" font-family="sans-serif" font-size="14" lengthAdjust="spacing" textLength="70.0273" x="5" y="590.4717">Pengguna</text><ellipse cx="43.0137" cy="602.2734" fill="#FDEBD0" rx="8" ry="8" style="stroke:#E67E22;stroke-width:0.5;"/><path d="M43.0137,610.2734 L43.0137,637.2734 M30.0137,618.2734 L56.0137,618.2734 M43.0137,637.2734 L30.0137,652.2734 M43.0137,637.2734 L56.0137,652.2734" fill="none" style="stroke:#E67E22;stroke-width:0.5;"/></g><g class="participant participant-head" data-entity-uid="part2" data-qualified-name="UI" data-source-line="14" id="part2-head"><rect fill="#EEF4FF" height="46.5938" rx="2.5" ry="2.5" style="stroke:#2F6FED;stroke-width:0.5;" width="123.1904" x="137.689" y="89.5938"/><text fill="#000000" font-family="sans-serif" font-size="14" lengthAdjust="spacing" textLength="109.1904" x="144.689" y="109.5889">DataDetailPage</text><text fill="#000000" font-family="sans-serif" font-size="14" lengthAdjust="spacing" textLength="51.0303" x="173.769" y="125.8857">(React)</text></g><g class="participant participant-tail" data-entity-uid="part2" data-qualified-name="UI" data-source-line="14" id="part2-tail"><rect fill="#EEF4FF" height="46.5938" rx="2.5" ry="2.5" style="stroke:#2F6FED;stroke-width:0.5;" width="123.1904" x="137.689" y="577.4766"/><text fill="#000000" font-family="sans-serif" font-size="14" lengthAdjust="spacing" textLength="109.1904" x="144.689" y="597.4717">DataDetailPage</text><text fill="#000000" font-family="sans-serif" font-size="14" lengthAdjust="spacing" textLength="51.0303" x="173.769" y="613.7686">(React)</text></g><g class="participant participant-head" data-entity-uid="part3" data-qualified-name="API" data-source-line="15" id="part3-head"><rect fill="#EEF4FF" height="46.5938" rx="2.5" ry="2.5" style="stroke:#2F6FED;stroke-width:0.5;" width="184.6113" x="347.8486" y="89.5938"/><text fill="#000000" font-family="sans-serif" font-size="14" lengthAdjust="spacing" textLength="170.6113" x="354.8486" y="109.5889">GET /api/regulations/[id]</text><text fill="#000000" font-family="sans-serif" font-size="14" lengthAdjust="spacing" textLength="111.7676" x="384.2705" y="125.8857">(Route Handler)</text></g><g class="participant participant-tail" data-entity-uid="part3" data-qualified-name="API" data-source-line="15" id="part3-tail"><rect fill="#EEF4FF" height="46.5938" rx="2.5" ry="2.5" style="stroke:#2F6FED;stroke-width:0.5;" width="184.6113" x="347.8486" y="577.4766"/><text fill="#000000" font-family="sans-serif" font-size="14" lengthAdjust="spacing" textLength="170.6113" x="354.8486" y="597.4717">GET /api/regulations/[id]</text><text fill="#000000" font-family="sans-serif" font-size="14" lengthAdjust="spacing" textLength="111.7676" x="384.2705" y="613.7686">(Route Handler)</text></g><g class="participant participant-head" data-entity-uid="part4" data-qualified-name="DB" data-source-line="16" id="part4-head"><text fill="#000000" font-family="sans-serif" font-size="14" lengthAdjust="spacing" textLength="80.7529" x="609.8696" y="117.5889">PostgreSQL</text><text fill="#000000" font-family="sans-serif" font-size="14" lengthAdjust="spacing" textLength="58.5225" x="620.9849" y="133.8857">(Prisma)</text><path d="M635.2461,68.5938 C635.2461,58.5938 653.2461,58.5938 653.2461,58.5938 C653.2461,58.5938 671.2461,58.5938 671.2461,68.5938 L671.2461,94.5938 C671.2461,104.5938 653.2461,104.5938 653.2461,104.5938 C653.2461,104.5938 635.2461,104.5938 635.2461,94.5938 L635.2461,68.5938" fill="#E2E2F0" style="stroke:#181818;stroke-width:0.5;"/><path d="M635.2461,68.5938 C635.2461,78.5938 653.2461,78.5938 653.2461,78.5938 C653.2461,78.5938 671.2461,78.5938 671.2461,68.5938" fill="none" style="stroke:#181818;stroke-width:0.5;"/></g><g class="participant participant-tail" data-entity-uid="part4" data-qualified-name="DB" data-source-line="16" id="part4-tail"><text fill="#000000" font-family="sans-serif" font-size="14" lengthAdjust="spacing" textLength="80.7529" x="609.8696" y="590.4717">PostgreSQL</text><text fill="#000000" font-family="sans-serif" font-size="14" lengthAdjust="spacing" textLength="58.5225" x="620.9849" y="606.7686">(Prisma)</text><path d="M635.2461,620.0703 C635.2461,610.0703 653.2461,610.0703 653.2461,610.0703 C653.2461,610.0703 671.2461,610.0703 671.2461,620.0703 L671.2461,646.0703 C671.2461,656.0703 653.2461,656.0703 653.2461,656.0703 C653.2461,656.0703 635.2461,656.0703 635.2461,646.0703 L635.2461,620.0703" fill="#E2E2F0" style="stroke:#181818;stroke-width:0.5;"/><path d="M635.2461,620.0703 C635.2461,630.0703 653.2461,630.0703 653.2461,630.0703 C653.2461,630.0703 671.2461,630.0703 671.2461,620.0703" fill="none" style="stroke:#181818;stroke-width:0.5;"/></g><g><title>DataDetailPage</title><rect fill="#FFFFFF" height="395.6484" style="stroke:#181818;stroke-width:1;" width="10" x="194.2842" y="164.8281"/></g><g><title>GET .api.regulations..id.</title><rect fill="#FFFFFF" height="321.0859" style="stroke:#181818;stroke-width:1;" width="10" x="435.1543" y="190.4688"/></g><g><title>PostgreSQL</title><rect fill="#FFFFFF" height="25.6406" style="stroke:#181818;stroke-width:1;" width="10" x="648.2461" y="272.8828"/></g><g class="message" data-entity-1="part1" data-entity-2="part2" data-source-line="18" id="msg1"><polygon fill="#2C3E50" points="182.2842,160.8281,192.2842,164.8281,182.2842,168.8281,186.2842,164.8281" style="stroke:#2C3E50;stroke-width:1;stroke-linejoin:miter;stroke-miterlimit:10;"/><line style="stroke:#2C3E50;stroke-width:1;" x1="43.0137" x2="188.2842" y1="164.8281" y2="164.8281"/><text fill="#000000" font-family="sans-serif" font-size="10" lengthAdjust="spacing" textLength="110.166" x="50.0137" y="160.4697">klik dokumen regulasi</text></g><g class="message" data-entity-1="part2" data-entity-2="part3" data-source-line="21" id="msg2"><polygon fill="#2C3E50" points="423.1543,186.4688,433.1543,190.4688,423.1543,194.4688,427.1543,190.4688" style="stroke:#2C3E50;stroke-width:1;stroke-linejoin:miter;stroke-miterlimit:10;"/><line style="stroke:#2C3E50;stroke-width:1;" x1="204.2842" x2="429.1543" y1="190.4688" y2="190.4688"/><text fill="#000000" font-family="sans-serif" font-size="10" lengthAdjust="spacing" textLength="126.7871" x="211.2842" y="186.1104">GET /api/regulations/{id}</text></g><path d="M127.689,205.4688 L192.1318,205.4688 L192.1318,212.6016 L182.1318,222.6016 L127.689,222.6016 L127.689,205.4688" fill="#EEEEEE" style="stroke:#000000;stroke-width:1.5;"/><rect fill="none" height="42.7734" style="stroke:#000000;stroke-width:1.5;" width="414.771" x="127.689" y="205.4688"/><text fill="#000000" font-family="sans-serif" font-size="13" font-weight="700" lengthAdjust="spacing" textLength="19.4429" x="142.689" y="218.5356">alt</text><text fill="#000000" font-family="sans-serif" font-size="11" font-weight="700" lengthAdjust="spacing" textLength="83.7192" x="207.1318" y="217.6792">[id tidak ada]</text><g class="message" data-entity-1="part3" data-entity-2="part2" data-source-line="25" id="msg3"><polygon fill="#2C3E50" points="215.2842,236.2422,205.2842,240.2422,215.2842,244.2422,211.2842,240.2422" style="stroke:#2C3E50;stroke-width:1;stroke-linejoin:miter;stroke-miterlimit:10;"/><line style="stroke:#2C3E50;stroke-width:1;stroke-dasharray:2,2;" x1="209.2842" x2="434.1543" y1="240.2422" y2="240.2422"/><text fill="#000000" font-family="sans-serif" font-size="10" lengthAdjust="spacing" textLength="156.5332" x="221.2842" y="235.8838">HTTP 400 "ID wajib disertakan"</text></g><g class="message" data-entity-1="part3" data-entity-2="part4" data-source-line="28" id="msg4"><polygon fill="#2C3E50" points="636.2461,268.8828,646.2461,272.8828,636.2461,276.8828,640.2461,272.8828" style="stroke:#2C3E50;stroke-width:1;stroke-linejoin:miter;stroke-miterlimit:10;"/><line style="stroke:#2C3E50;stroke-width:1;" x1="445.1543" x2="642.2461" y1="272.8828" y2="272.8828"/><text fill="#000000" font-family="sans-serif" font-size="10" lengthAdjust="spacing" textLength="138.1006" x="452.1543" y="268.5244">regulation.findUnique({id})</text></g><g class="message" data-entity-1="part4" data-entity-2="part3" data-source-line="30" id="msg5"><polygon fill="#2C3E50" points="456.1543,294.5234,446.1543,298.5234,456.1543,302.5234,452.1543,298.5234" style="stroke:#2C3E50;stroke-width:1;stroke-linejoin:miter;stroke-miterlimit:10;"/><line style="stroke:#2C3E50;stroke-width:1;stroke-dasharray:2,2;" x1="450.1543" x2="652.2461" y1="298.5234" y2="298.5234"/><text fill="#000000" font-family="sans-serif" font-size="10" lengthAdjust="spacing" textLength="78.9697" x="462.1543" y="294.165">regulation | null</text></g><path d="M127.689,313.5234 L192.1318,313.5234 L192.1318,320.6563 L182.1318,330.6563 L127.689,330.6563 L127.689,313.5234" fill="#EEEEEE" style="stroke:#000000;stroke-width:1.5;"/><rect fill="none" height="42.7734" style="stroke:#000000;stroke-width:1.5;" width="414.771" x="127.689" y="313.5234"/><text fill="#000000" font-family="sans-serif" font-size="13" font-weight="700" lengthAdjust="spacing" textLength="19.4429" x="142.689" y="326.5903">alt</text><text fill="#000000" font-family="sans-serif" font-size="11" font-weight="700" lengthAdjust="spacing" textLength="168.7275" x="207.1318" y="325.7339">[Regulasi tidak ditemukan]</text><g class="message" data-entity-1="part3" data-entity-2="part2" data-source-line="34" id="msg6"><polygon fill="#2C3E50" points="215.2842,344.2969,205.2842,348.2969,215.2842,352.2969,211.2842,348.2969" style="stroke:#2C3E50;stroke-width:1;stroke-linejoin:miter;stroke-miterlimit:10;"/><line style="stroke:#2C3E50;stroke-width:1;stroke-dasharray:2,2;" x1="209.2842" x2="434.1543" y1="348.2969" y2="348.2969"/><text fill="#000000" font-family="sans-serif" font-size="10" lengthAdjust="spacing" textLength="206.8701" x="221.2842" y="343.9385">HTTP 404 "Data hukum tidak ditemukan"</text></g><g class="message" data-entity-1="part3" data-entity-2="part4" data-source-line="37" id="msg7"><polygon fill="#2C3E50" points="641.2461,423.5,651.2461,427.5,641.2461,431.5,645.2461,427.5" style="stroke:#2C3E50;stroke-width:1;stroke-linejoin:miter;stroke-miterlimit:10;"/><line style="stroke:#2C3E50;stroke-width:1;" x1="445.1543" x2="647.2461" y1="427.5" y2="427.5"/><text fill="#000000" font-family="sans-serif" font-size="10" lengthAdjust="spacing" textLength="93.3252" x="452.1543" y="376.5791">regulation.update(</text><text fill="#000000" font-family="sans-serif" font-size="10" lengthAdjust="spacing" textLength="21.8506" x="458.5117" y="388.2197">{id}</text><text fill="#000000" font-family="sans-serif" font-size="10" lengthAdjust="spacing" textLength="177.7344" x="458.5117" y="399.8604">data: {viewCount: {increment: 1}}</text><text fill="#000000" font-family="sans-serif" font-size="10" lengthAdjust="spacing" textLength="3.9014" x="452.1543" y="411.501">)</text><text fill="#000000" font-family="sans-serif" font-size="10" lengthAdjust="spacing" textLength="169.8242" x="452.1543" y="423.1416">[fire-and-forget &#8212; tidak ditunggu]</text></g><path d="M658,440.5 L658,465.5 L1073,465.5 L1073,450.5 L1063,440.5 L658,440.5" fill="#FEFFDD" style="stroke:#181818;stroke-width:0.5;"/><path d="M1063,440.5 L1063,450.5 L1073,450.5 L1063,440.5" fill="#FEFFDD" style="stroke:#181818;stroke-width:0.5;"/><text fill="#000000" font-family="sans-serif" font-size="13" lengthAdjust="spacing" textLength="394.9893" x="664" y="457.5669">Non-blocking: response tidak\nmenunggu update viewCount</text><g class="message" data-entity-1="part3" data-entity-2="part2" data-source-line="42" id="msg8"><polygon fill="#2C3E50" points="215.2842,507.5547,205.2842,511.5547,215.2842,515.5547,211.2842,511.5547" style="stroke:#2C3E50;stroke-width:1;stroke-linejoin:miter;stroke-miterlimit:10;"/><line style="stroke:#2C3E50;stroke-width:1;stroke-dasharray:2,2;" x1="209.2842" x2="439.1543" y1="511.5547" y2="511.5547"/><text fill="#000000" font-family="sans-serif" font-size="10" lengthAdjust="spacing" textLength="48.0322" x="221.2842" y="483.915">HTTP 200</text><text fill="#000000" font-family="sans-serif" font-size="10" lengthAdjust="spacing" textLength="86.4453" x="221.2842" y="495.5557">{data: regulation</text><text fill="#000000" font-family="sans-serif" font-size="10" lengthAdjust="spacing" textLength="198.2227" x="221.2842" y="507.1963">message: "Berhasil mengambil detail"}</text></g><g class="message" data-entity-1="part2" data-entity-2="part1" data-source-line="45" id="msg9"><polygon fill="#2C3E50" points="54.0137,556.4766,44.0137,560.4766,54.0137,564.4766,50.0137,560.4766" style="stroke:#2C3E50;stroke-width:1;stroke-linejoin:miter;stroke-miterlimit:10;"/><line style="stroke:#2C3E50;stroke-width:1;stroke-dasharray:2,2;" x1="48.0137" x2="198.2842" y1="560.4766" y2="560.4766"/><text fill="#000000" font-family="sans-serif" font-size="10" lengthAdjust="spacing" textLength="112.9834" x="60.0137" y="532.8369">tampil detail dokumen</text><text fill="#000000" font-family="sans-serif" font-size="10" lengthAdjust="spacing" textLength="127.2705" x="60.0137" y="544.4775">(judul, deskripsi, kategori</text><text fill="#000000" font-family="sans-serif" font-size="10" lengthAdjust="spacing" textLength="101.2305" x="60.0137" y="556.1182">file URL, viewCount)</text></g><?plantuml-src VLJ1Rjf04BtlLupSIv12GsYQIXmYXHeQ95HH2AUGm-8TEnERNNUzJgHIf7v4lx1VqbaRCAH9JrvvtvltPkRPZbo6CCFl9Ue88IIPMBc2Fxz-GuXEKWPJJCfC5hJGNmQtS2PpEhFLAqT65sTtfEw5A5BIkVJCObTgBG2k8sTiNqPfOasfrMUJ6GllXk6W7tRsryOgjDihlFo4tIvVJQHr554kjVk7FnWCBuR35w33AjtuCaR5W375E2QDnxVH1_nOoLjhdbzzEJJQpUW7mdb7R8IGtYS44zH9KcePW2nWFXjCHTuOW22KJjOpcyW45_faYanirUZHCVRDKNgQAHt2ZTGgGrlJhoSZeRZyKXR8FapX4ekpRsD6JomLArd3mhuGtXUqhrWHUf1cb88oQRb23NQxIDyEFKdMO5U2SOnc0OQ_wcfDQjDGl1CXCmUam96IAKWb_TYuG7idUtDxEu6BJWU2KGZFyf6MeAX0wsGgTI1GAo4gmXLRPdmZzpuchUQQE4CdNhZLA7Dp36xlpJOa-0cwp3AXy11SkTo5T-jLaSDLoIRUS7nHRn4UIXxPIyx_ZPSvBmXF5Xh06_TFlx4Uh9y8EMMbTdmc7LdaPV3vVCEWraBVnMInpTjknyOcwAflRozT-iZT2ssuAKl9WmCJ--u0lXhTNcOcuYylyKwAdBU5DNEXMQEYGkqBzYPy4-3BRJivca2tqrdeTUsxwSrNAmhET0-2Fje7dcS6B938rP9Fgifyi3cSVnMJ-RQyJsGFd5pbU_Gkb1pWnrALsIc_Br9BUK6da7A5n5Z-uyJ4FwVvT7pQ-6yToin7Vm40?></g></svg>