<svg xmlns="http://www.w3.org/2000/svg" xmlns:xlink="http://www.w3.org/1999/xlink" contentStyleType="text/css" data-diagram-type="SEQUENCE" height="788px" preserveAspectRatio="none" style="width:929px;height:788px;background:#FFFFFF;" version="1.1" viewBox="0 0 929 788" width="929px" zoomAndPan="magnify"><?plantuml 1.2026.5?><defs/><g><g class="title" data-source-line="1"><text fill="#000000" font-family="sans-serif" font-size="14" font-weight="700" lengthAdjust="spacing" textLength="263.0127" x="329.719" y="27.9951">Sequence Diagram &#8212; Hapus Chat</text><text fill="#000000" font-family="sans-serif" font-size="14" font-weight="700" lengthAdjust="spacing" textLength="132.5557" x="394.9475" y="44.292">DELETE /api/chat</text></g><g><title>ChatSidebar</title><rect fill="#FFFFFF" height="509.7813" style="stroke:#181818;stroke-width:1;" width="10" x="137.7559" y="176.4688"/></g><g><title>DELETE .api.chat</title><rect fill="#FFFFFF" height="384.9375" style="stroke:#181818;stroke-width:1;" width="10" x="325.6523" y="225.3906"/></g><g><title>getSession..</title><rect fill="#FFFFFF" height="25.6406" style="stroke:#181818;stroke-width:1;" width="10" x="453.0903" y="251.0313"/></g><g><title>PostgreSQL</title><rect fill="#FFFFFF" height="25.6406" style="stroke:#181818;stroke-width:1;" width="10" x="557.1313" y="415.8594"/></g><g><title>PostgreSQL</title><rect fill="#FFFFFF" height="60.7734" style="stroke:#181818;stroke-width:1;" width="10" x="557.1313" y="523.9141"/></g><rect fill="none" height="42.7734" style="stroke:#000000;stroke-width:1.5;" width="324.7773" x="82.6484" y="291.6719"/><rect fill="none" height="42.7734" style="stroke:#000000;stroke-width:1.5;" width="324.7773" x="82.6484" y="348.4453"/><rect fill="none" height="42.7734" style="stroke:#000000;stroke-width:1.5;" width="433.9722" x="82.6484" y="456.5"/><g class="participant-lifeline" data-entity-uid="part1" data-qualified-name="USER" data-source-line="13" id="part1-lifeline"><g><title>Pengguna</title><rect fill="#000000" fill-opacity="0.00000" height="567.0625" width="8" x="39.0137" y="137.1875"/><line style="stroke:#2C3E50;stroke-width:0.5;stroke-dasharray:5,5;" x1="43" x2="43" y1="137.1875" y2="704.25"/></g></g><g class="participant-lifeline" data-entity-uid="part2" data-qualified-name="UI" data-source-line="14" id="part2-lifeline"><g><title>ChatSidebar</title><rect fill="#000000" fill-opacity="0.00000" height="567.0625" width="8" x="138.7559" y="137.1875"/><line style="stroke:#2C3E50;stroke-width:0.5;stroke-dasharray:5,5;" x1="142.6484" x2="142.6484" y1="137.1875" y2="704.25"/></g></g><g class="participant-lifeline" data-entity-uid="part3" data-qualified-name="API" data-source-line="15" id="part3-lifeline"><g><title>DELETE .api.chat</title><rect fill="#000000" fill-opacity="0.00000" height="567.0625" width="8" x="326.6523" y="137.1875"/><line style="stroke:#2C3E50;stroke-width:0.5;stroke-dasharray:5,5;" x1="329.8789" x2="329.8789" y1="137.1875" y2="704.25"/></g></g><g class="participant-lifeline" data-entity-uid="part4" data-qualified-name="SESSION" data-source-line="16" id="part4-lifeline"><g><title>getSession..</title><rect fill="#000000" fill-opacity="0.00000" height="567.0625" width="8" x="454.0903" y="137.1875"/><line style="stroke:#2C3E50;stroke-width:0.5;stroke-dasharray:5,5;" x1="457.4258" x2="457.4258" y1="137.1875" y2="704.25"/></g></g><g class="participant-lifeline" data-entity-uid="part5" data-qualified-name="DB" data-source-line="17" id="part5-lifeline"><g><title>PostgreSQL</title><rect fill="#000000" fill-opacity="0.00000" height="567.0625" width="8" x="558.1313" y="137.1875"/><line style="stroke:#2C3E50;stroke-width:0.5;stroke-dasharray:5,5;" x1="561.7549" x2="561.7549" y1="137.1875" y2="704.25"/></g></g><g class="participant participant-head" data-entity-uid="part1" data-qualified-name="USER" data-source-line="13" id="part1-head"><text fill="#000000" font-family="sans-serif" font-size="14" lengthAdjust="spacing" textLength="70.0273" x="5" y="133.8857">Pengguna</text><ellipse cx="43.0137" cy="69.3906" fill="#FDEBD0" rx="8" ry="8" style="stroke:#E67E22;stroke-width:0.5;"/><path d="M43.0137,77.3906 L43.0137,104.3906 M30.0137,85.3906 L56.0137,85.3906 M43.0137,104.3906 L30.0137,119.3906 M43.0137,104.3906 L56.0137,119.3906" fill="none" style="stroke:#E67E22;stroke-width:0.5;"/></g><g class="participant participant-tail" data-entity-uid="part1" data-qualified-name="USER" data-source-line="13" id="part1-tail"><text fill="#000000" font-family="sans-serif" font-size="14" lengthAdjust="spacing" textLength="70.0273" x="5" y="716.2451">Pengguna</text><ellipse cx="43.0137" cy="728.0469" fill="#FDEBD0" rx="8" ry="8" style="stroke:#E67E22;stroke-width:0.5;"/><path d="M43.0137,736.0469 L43.0137,763.0469 M30.0137,744.0469 L56.0137,744.0469 M43.0137,763.0469 L30.0137,778.0469 M43.0137,763.0469 L56.0137,778.0469" fill="none" style="stroke:#E67E22;stroke-width:0.5;"/></g><g class="participant participant-head" data-entity-uid="part2" data-qualified-name="UI" data-source-line="14" id="part2-head"><rect fill="#EEF4FF" height="46.5938" rx="2.5" ry="2.5" style="stroke:#2F6FED;stroke-width:0.5;" width="100.2148" x="92.6484" y="89.5938"/><text fill="#000000" font-family="sans-serif" font-size="14" lengthAdjust="spacing" textLength="86.2148" x="99.6484" y="109.5889">ChatSidebar</text><text fill="#000000" font-family="sans-serif" font-size="14" lengthAdjust="spacing" textLength="51.0303" x="117.2407" y="125.8857">(React)</text></g><g class="participant participant-tail" data-entity-uid="part2" data-qualified-name="UI" data-source-line="14" id="part2-tail"><rect fill="#EEF4FF" height="46.5938" rx="2.5" ry="2.5" style="stroke:#2F6FED;stroke-width:0.5;" width="100.2148" x="92.6484" y="703.25"/><text fill="#000000" font-family="sans-serif" font-size="14" lengthAdjust="spacing" textLength="86.2148" x="99.6484" y="723.2451">ChatSidebar</text><text fill="#000000" font-family="sans-serif" font-size="14" lengthAdjust="spacing" textLength="51.0303" x="117.2407" y="739.542">(React)</text></g><g class="participant participant-head" data-entity-uid="part3" data-qualified-name="API" data-source-line="15" id="part3-head"><rect fill="#EEF4FF" height="46.5938" rx="2.5" ry="2.5" style="stroke:#2F6FED;stroke-width:0.5;" width="133.5469" x="263.8789" y="89.5938"/><text fill="#000000" font-family="sans-serif" font-size="14" lengthAdjust="spacing" textLength="119.5469" x="270.8789" y="109.5889">DELETE /api/chat</text><text fill="#000000" font-family="sans-serif" font-size="14" lengthAdjust="spacing" textLength="111.7676" x="274.7686" y="125.8857">(Route Handler)</text></g><g class="participant participant-tail" data-entity-uid="part3" data-qualified-name="API" data-source-line="15" id="part3-tail"><rect fill="#EEF4FF" height="46.5938" rx="2.5" ry="2.5" style="stroke:#2F6FED;stroke-width:0.5;" width="133.5469" x="263.8789" y="703.25"/><text fill="#000000" font-family="sans-serif" font-size="14" lengthAdjust="spacing" textLength="119.5469" x="270.8789" y="723.2451">DELETE /api/chat</text><text fill="#000000" font-family="sans-serif" font-size="14" lengthAdjust="spacing" textLength="111.7676" x="274.7686" y="739.542">(Route Handler)</text></g><g class="participant participant-head" data-entity-uid="part4" data-qualified-name="SESSION" data-source-line="16" id="part4-head"><rect fill="#EEF4FF" height="30.2969" rx="2.5" ry="2.5" style="stroke:#2F6FED;stroke-width:0.5;" width="101.3291" x="407.4258" y="105.8906"/><text fill="#000000" font-family="sans-serif" font-size="14" lengthAdjust="spacing" textLength="87.3291" x="414.4258" y="125.8857">getSession()</text></g><g class="participant participant-tail" data-entity-uid="part4" data-qualified-name="SESSION" data-source-line="16" id="part4-tail"><rect fill="#EEF4FF" height="30.2969" rx="2.5" ry="2.5" style="stroke:#2F6FED;stroke-width:0.5;" width="101.3291" x="407.4258" y="703.25"/><text fill="#000000" font-family="sans-serif" font-size="14" lengthAdjust="spacing" textLength="87.3291" x="414.4258" y="723.2451">getSession()</text></g><g class="participant participant-head" data-entity-uid="part5" data-qualified-name="DB" data-source-line="17" id="part5-head"><text fill="#000000" font-family="sans-serif" font-size="14" lengthAdjust="spacing" textLength="80.7529" x="518.7549" y="117.5889">PostgreSQL</text><text fill="#000000" font-family="sans-serif" font-size="14" lengthAdjust="spacing" textLength="58.5225" x="529.8701" y="133.8857">(Prisma)</text><path d="M544.1313,68.5938 C544.1313,58.5938 562.1313,58.5938 562.1313,58.5938 C562.1313,58.5938 580.1313,58.5938 580.1313,68.5938 L580.1313,94.5938 C580.1313,104.5938 562.1313,104.5938 562.1313,104.5938 C562.1313,104.5938 544.1313,104.5938 544.1313,94.5938 L544.1313,68.5938" fill="#E2E2F0" style="stroke:#181818;stroke-width:0.5;"/><path d="M544.1313,68.5938 C544.1313,78.5938 562.1313,78.5938 562.1313,78.5938 C562.1313,78.5938 580.1313,78.5938 580.1313,68.5938" fill="none" style="stroke:#181818;stroke-width:0.5;"/></g><g class="participant participant-tail" data-entity-uid="part5" data-qualified-name="DB" data-source-line="17" id="part5-tail"><text fill="#000000" font-family="sans-serif" font-size="14" lengthAdjust="spacing" textLength="80.7529" x="518.7549" y="716.2451">PostgreSQL</text><text fill="#000000" font-family="sans-serif" font-size="14" lengthAdjust="spacing" textLength="58.5225" x="529.8701" y="732.542">(Prisma)</text><path d="M544.1313,745.8438 C544.1313,735.8438 562.1313,735.8438 562.1313,735.8438 C562.1313,735.8438 580.1313,735.8438 580.1313,745.8438 L580.1313,771.8438 C580.1313,781.8438 562.1313,781.8438 562.1313,781.8438 C562.1313,781.8438 544.1313,781.8438 544.1313,771.8438 L544.1313,745.8438" fill="#E2E2F0" style="stroke:#181818;stroke-width:0.5;"/><path d="M544.1313,745.8438 C544.1313,755.8438 562.1313,755.8438 562.1313,755.8438 C562.1313,755.8438 580.1313,755.8438 580.1313,745.8438" fill="none" style="stroke:#181818;stroke-width:0.5;"/></g><g><title>ChatSidebar</title><rect fill="#FFFFFF" height="509.7813" style="stroke:#181818;stroke-width:1;" width="10" x="137.7559" y="176.4688"/></g><g><title>DELETE .api.chat</title><rect fill="#FFFFFF" height="384.9375" style="stroke:#181818;stroke-width:1;" width="10" x="325.6523" y="225.3906"/></g><g><title>getSession..</title><rect fill="#FFFFFF" height="25.6406" style="stroke:#181818;stroke-width:1;" width="10" x="453.0903" y="251.0313"/></g><g><title>PostgreSQL</title><rect fill="#FFFFFF" height="25.6406" style="stroke:#181818;stroke-width:1;" width="10" x="557.1313" y="415.8594"/></g><g><title>PostgreSQL</title><rect fill="#FFFFFF" height="60.7734" style="stroke:#181818;stroke-width:1;" width="10" x="557.1313" y="523.9141"/></g><g class="message" data-entity-1="part1" data-entity-2="part2" data-source-line="19" id="msg1"><polygon fill="#2C3E50" points="125.7559,172.4688,135.7559,176.4688,125.7559,180.4688,129.7559,176.4688" style="stroke:#2C3E50;stroke-width:1;stroke-linejoin:miter;stroke-miterlimit:10;"/><line style="stroke:#2C3E50;stroke-width:1;" x1="43.0137" x2="131.7559" y1="176.4688" y2="176.4688"/><text fill="#000000" font-family="sans-serif" font-size="10" lengthAdjust="spacing" textLength="75.7422" x="50.0137" y="160.4697">klik hapus chat</text><text fill="#000000" font-family="sans-serif" font-size="10" lengthAdjust="spacing" textLength="52.5146" x="50.0137" y="172.1104">konfirmasi</text></g><g class="message" data-entity-1="part2" data-entity-2="part3" data-source-line="22" id="msg2"><polygon fill="#2C3E50" points="313.6523,221.3906,323.6523,225.3906,313.6523,229.3906,317.6523,225.3906" style="stroke:#2C3E50;stroke-width:1;stroke-linejoin:miter;stroke-miterlimit:10;"/><line style="stroke:#2C3E50;stroke-width:1;" x1="147.7559" x2="319.6523" y1="225.3906" y2="225.3906"/><text fill="#000000" font-family="sans-serif" font-size="10" lengthAdjust="spacing" textLength="85.3906" x="154.7559" y="197.751">DELETE /api/chat</text><text fill="#000000" font-family="sans-serif" font-size="10" lengthAdjust="spacing" textLength="66.7188" x="154.7559" y="209.3916">?chatId={id}</text><text fill="#000000" font-family="sans-serif" font-size="10" lengthAdjust="spacing" textLength="94.5264" x="154.7559" y="221.0322">[Cookie: token=...]</text></g><g class="message" data-entity-1="part3" data-entity-2="part4" data-source-line="25" id="msg3"><polygon fill="#2C3E50" points="441.0903,247.0313,451.0903,251.0313,441.0903,255.0313,445.0903,251.0313" style="stroke:#2C3E50;stroke-width:1;stroke-linejoin:miter;stroke-miterlimit:10;"/><line style="stroke:#2C3E50;stroke-width:1;" x1="335.6523" x2="447.0903" y1="251.0313" y2="251.0313"/><text fill="#000000" font-family="sans-serif" font-size="10" lengthAdjust="spacing" textLength="62.3779" x="342.6523" y="246.6729">getSession()</text></g><g class="message" data-entity-1="part4" data-entity-2="part3" data-source-line="27" id="msg4"><polygon fill="#2C3E50" points="346.6523,272.6719,336.6523,276.6719,346.6523,280.6719,342.6523,276.6719" style="stroke:#2C3E50;stroke-width:1;stroke-linejoin:miter;stroke-miterlimit:10;"/><line style="stroke:#2C3E50;stroke-width:1;stroke-dasharray:2,2;" x1="340.6523" x2="457.0903" y1="276.6719" y2="276.6719"/><text fill="#000000" font-family="sans-serif" font-size="10" lengthAdjust="spacing" textLength="71.792" x="352.6523" y="272.3135">{userId} | null</text></g><path d="M82.6484,291.6719 L147.0913,291.6719 L147.0913,298.8047 L137.0913,308.8047 L82.6484,308.8047 L82.6484,291.6719" fill="#EEEEEE" style="stroke:#000000;stroke-width:1.5;"/><rect fill="none" height="42.7734" style="stroke:#000000;stroke-width:1.5;" width="324.7773" x="82.6484" y="291.6719"/><text fill="#000000" font-family="sans-serif" font-size="13" font-weight="700" lengthAdjust="spacing" textLength="19.4429" x="97.6484" y="304.7388">alt</text><text fill="#000000" font-family="sans-serif" font-size="11" font-weight="700" lengthAdjust="spacing" textLength="98.6455" x="162.0913" y="303.8823">[Tidak ada sesi]</text><g class="message" data-entity-1="part3" data-entity-2="part2" data-source-line="31" id="msg5"><polygon fill="#2C3E50" points="158.7559,322.4453,148.7559,326.4453,158.7559,330.4453,154.7559,326.4453" style="stroke:#2C3E50;stroke-width:1;stroke-linejoin:miter;stroke-miterlimit:10;"/><line style="stroke:#2C3E50;stroke-width:1;stroke-dasharray:2,2;" x1="152.7559" x2="324.6523" y1="326.4453" y2="326.4453"/><text fill="#000000" font-family="sans-serif" font-size="10" lengthAdjust="spacing" textLength="48.0322" x="164.7559" y="322.0869">HTTP 401</text></g><path d="M82.6484,348.4453 L147.0913,348.4453 L147.0913,355.5781 L137.0913,365.5781 L82.6484,365.5781 L82.6484,348.4453" fill="#EEEEEE" style="stroke:#000000;stroke-width:1.5;"/><rect fill="none" height="42.7734" style="stroke:#000000;stroke-width:1.5;" width="324.7773" x="82.6484" y="348.4453"/><text fill="#000000" font-family="sans-serif" font-size="13" font-weight="700" lengthAdjust="spacing" textLength="19.4429" x="97.6484" y="361.5122">alt</text><text fill="#000000" font-family="sans-serif" font-size="11" font-weight="700" lengthAdjust="spacing" textLength="209.5747" x="162.0913" y="360.6558">[chatId tidak ada di query param]</text><g class="message" data-entity-1="part3" data-entity-2="part2" data-source-line="35" id="msg6"><polygon fill="#2C3E50" points="158.7559,379.2188,148.7559,383.2188,158.7559,387.2188,154.7559,383.2188" style="stroke:#2C3E50;stroke-width:1;stroke-linejoin:miter;stroke-miterlimit:10;"/><line style="stroke:#2C3E50;stroke-width:1;stroke-dasharray:2,2;" x1="152.7559" x2="324.6523" y1="383.2188" y2="383.2188"/><text fill="#000000" font-family="sans-serif" font-size="10" lengthAdjust="spacing" textLength="153.8965" x="164.7559" y="378.8604">HTTP 400 "ID Chat diperlukan"</text></g><g class="message" data-entity-1="part3" data-entity-2="part5" data-source-line="38" id="msg7"><polygon fill="#2C3E50" points="545.1313,411.8594,555.1313,415.8594,545.1313,419.8594,549.1313,415.8594" style="stroke:#2C3E50;stroke-width:1;stroke-linejoin:miter;stroke-miterlimit:10;"/><line style="stroke:#2C3E50;stroke-width:1;" x1="335.6523" x2="551.1313" y1="415.8594" y2="415.8594"/><text fill="#000000" font-family="sans-serif" font-size="10" lengthAdjust="spacing" textLength="146.7041" x="342.6523" y="411.501">chat.findUnique({id: chatId})</text></g><g class="message" data-entity-1="part5" data-entity-2="part3" data-source-line="40" id="msg8"><polygon fill="#2C3E50" points="346.6523,437.5,336.6523,441.5,346.6523,445.5,342.6523,441.5" style="stroke:#2C3E50;stroke-width:1;stroke-linejoin:miter;stroke-miterlimit:10;"/><line style="stroke:#2C3E50;stroke-width:1;stroke-dasharray:2,2;" x1="340.6523" x2="561.1313" y1="441.5" y2="441.5"/><text fill="#000000" font-family="sans-serif" font-size="10" lengthAdjust="spacing" textLength="49.8438" x="352.6523" y="437.1416">chat | null</text></g><path d="M82.6484,456.5 L147.0913,456.5 L147.0913,463.6328 L137.0913,473.6328 L82.6484,473.6328 L82.6484,456.5" fill="#EEEEEE" style="stroke:#000000;stroke-width:1.5;"/><rect fill="none" height="42.7734" style="stroke:#000000;stroke-width:1.5;" width="433.9722" x="82.6484" y="456.5"/><text fill="#000000" font-family="sans-serif" font-size="13" font-weight="700" lengthAdjust="spacing" textLength="19.4429" x="97.6484" y="469.5669">alt</text><text fill="#000000" font-family="sans-serif" font-size="11" font-weight="700" lengthAdjust="spacing" textLength="349.5293" x="162.0913" y="468.7104">[chat tidak ditemukan || chat.userId !== session.userId]</text><g class="message" data-entity-1="part3" data-entity-2="part2" data-source-line="44" id="msg9"><polygon fill="#2C3E50" points="158.7559,487.2734,148.7559,491.2734,158.7559,495.2734,154.7559,491.2734" style="stroke:#2C3E50;stroke-width:1;stroke-linejoin:miter;stroke-miterlimit:10;"/><line style="stroke:#2C3E50;stroke-width:1;stroke-dasharray:2,2;" x1="152.7559" x2="324.6523" y1="491.2734" y2="491.2734"/><text fill="#000000" font-family="sans-serif" font-size="10" lengthAdjust="spacing" textLength="110.7031" x="164.7559" y="486.915">HTTP 403 "Forbidden"</text></g><g class="message" data-entity-1="part3" data-entity-2="part5" data-source-line="47" id="msg10"><polygon fill="#2C3E50" points="545.1313,519.9141,555.1313,523.9141,545.1313,527.9141,549.1313,523.9141" style="stroke:#2C3E50;stroke-width:1;stroke-linejoin:miter;stroke-miterlimit:10;"/><line style="stroke:#2C3E50;stroke-width:1;" x1="335.6523" x2="551.1313" y1="523.9141" y2="523.9141"/><text fill="#000000" font-family="sans-serif" font-size="10" lengthAdjust="spacing" textLength="123.9502" x="342.6523" y="519.5557">chat.delete({id: chatId})</text></g><path d="M572,536.9141 L572,561.9141 L918,561.9141 L918,546.9141 L908,536.9141 L572,536.9141" fill="#FEFFDD" style="stroke:#181818;stroke-width:0.5;"/><path d="M908,536.9141 L908,546.9141 L918,546.9141 L908,536.9141" fill="#FEFFDD" style="stroke:#181818;stroke-width:0.5;"/><text fill="#000000" font-family="sans-serif" font-size="13" lengthAdjust="spacing" textLength="325.4507" x="578" y="553.981">Cascade delete:\n  ChatHistory terhapus otomatis</text><g class="message" data-entity-1="part5" data-entity-2="part3" data-source-line="52" id="msg11"><polygon fill="#2C3E50" points="346.6523,580.6875,336.6523,584.6875,346.6523,588.6875,342.6523,584.6875" style="stroke:#2C3E50;stroke-width:1;stroke-linejoin:miter;stroke-miterlimit:10;"/><line style="stroke:#2C3E50;stroke-width:1;stroke-dasharray:2,2;" x1="340.6523" x2="561.1313" y1="584.6875" y2="584.6875"/><text fill="#000000" font-family="sans-serif" font-size="10" lengthAdjust="spacing" textLength="11.9092" x="352.6523" y="580.3291">ok</text></g><g class="message" data-entity-1="part3" data-entity-2="part2" data-source-line="55" id="msg12"><polygon fill="#2C3E50" points="158.7559,606.3281,148.7559,610.3281,158.7559,614.3281,154.7559,610.3281" style="stroke:#2C3E50;stroke-width:1;stroke-linejoin:miter;stroke-miterlimit:10;"/><line style="stroke:#2C3E50;stroke-width:1;stroke-dasharray:2,2;" x1="152.7559" x2="329.6523" y1="610.3281" y2="610.3281"/><text fill="#000000" font-family="sans-serif" font-size="10" lengthAdjust="spacing" textLength="130.1221" x="164.7559" y="605.9697">HTTP 200 {success: true}</text></g><g class="message" data-entity-1="part2" data-entity-2="part2" data-source-line="58" id="msg13"><line style="stroke:#2C3E50;stroke-width:1;" x1="147.7559" x2="189.7559" y1="647.6094" y2="647.6094"/><line style="stroke:#2C3E50;stroke-width:1;" x1="189.7559" x2="189.7559" y1="647.6094" y2="660.6094"/><line style="stroke:#2C3E50;stroke-width:1;" x1="148.7559" x2="189.7559" y1="660.6094" y2="660.6094"/><polygon fill="#2C3E50" points="158.7559,656.6094,148.7559,660.6094,158.7559,664.6094,154.7559,660.6094" style="stroke:#2C3E50;stroke-width:1;stroke-linejoin:miter;stroke-miterlimit:10;"/><text fill="#000000" font-family="sans-serif" font-size="10" lengthAdjust="spacing" textLength="118.2227" x="154.7559" y="631.6104">hapus chat dari sidebar</text><text fill="#000000" font-family="sans-serif" font-size="10" lengthAdjust="spacing" textLength="84.1846" x="154.7559" y="643.251">reset active chat</text></g><g class="message" data-entity-1="part2" data-entity-2="part1" data-source-line="59" id="msg14"><polygon fill="#2C3E50" points="54.0137,682.25,44.0137,686.25,54.0137,690.25,50.0137,686.25" style="stroke:#2C3E50;stroke-width:1;stroke-linejoin:miter;stroke-miterlimit:10;"/><line style="stroke:#2C3E50;stroke-width:1;stroke-dasharray:2,2;" x1="48.0137" x2="141.7559" y1="686.25" y2="686.25"/><text fill="#000000" font-family="sans-serif" font-size="10" lengthAdjust="spacing" textLength="69.6094" x="60.0137" y="681.8916">chat terhapus</text></g><?plantuml-src TLF1Rjf04BtlLqpf9Js449Ac4XAj0ZOA4cffJ4wbXurtS4OsktHttIebIFs8Vc6_fBCs10BXPCdptfltPcOz-G8XmHybwXGX8fbPEOT_V_x2ZLoK3leFqazr58_YIGndSa5dAVyHmkMa5p9WtOQy503NgJUs9zCyiwRKgcyAO-7j88fxKUkvRAn2koxXrGTijxaqbjPJIWkf_G4_ZWUNWy4UQ5UbFRkQeMB0Y6Ou8eqlg-a5lg_QMsj-lVfpOBHFw3V2UKkiX9319pJ6gBEirB81qi5T4j-AnTO0DC9i4b9uB-rKdzmYizxLqE5BuFxu0jgK7dd6MXLeQzRrU8-MeK_GEJBwf4OaSP8CltmMIdfvBnsoG-DyPZ7vEcBDiIKtbpKqwWaH7CFfHxO37SWBok6Xscbj8JTwHdOk7OMuz5Eo7pOk6CqSDiEaG-EVmcUekajIgwd-rZSc9-o0DpdgRhFP_BuL2tb4q66vjNEMt0srnMwIRN2dpnQMfKCxL2ju0bqMXL1uG1Aoy30X9NEGIl91SYIewAURz3UJoHWkM-S2jQhnTGxmppH5m8Ti7w4wwoC2BMWCe-fHC7w1jYXpgHkrwZfgr6DuK6_EIAixJQnwmkFgh5kkTcBpbXY-3HiGhmGDoznuNZjMv74UciFJKzsjdXEywNR31CA0rx-EHBc0ni3OUr8AZoPGMA3VTwyDMxAKFNWmi-0De2zTAXL2ZUzCDLGpkY77x-WHFDhwyemtS-d9XNOGT8wFmkJx4pWCqUPzB5sPffoNRz2MkDebLGTOdtF5sLu_A6a9tERjMdJeeU9XLQzOWHPUq7ejcn2x7Uw6_m40?></g></svg>