<svg xmlns="http://www.w3.org/2000/svg" xmlns:xlink="http://www.w3.org/1999/xlink" contentStyleType="text/css" data-diagram-type="SEQUENCE" height="1330px" preserveAspectRatio="none" style="width:1002px;height:1330px;background:#FFFFFF;" version="1.1" viewBox="0 0 1002 1330" width="1002px" zoomAndPan="magnify"><?plantuml 1.2026.5?><defs/><g><g class="title" data-source-line="1"><text fill="#000000" font-family="sans-serif" font-size="14" font-weight="700" lengthAdjust="spacing" textLength="276.6641" x="359.6411" y="27.9951">Sequence Diagram &#8212; Update Profil</text><text fill="#000000" font-family="sans-serif" font-size="14" font-weight="700" lengthAdjust="spacing" textLength="143.7324" x="426.1069" y="44.292">PATCH /api/profile</text></g><g><title>ProfileForm</title><rect fill="#FFFFFF" height="1050.9609" style="stroke:#181818;stroke-width:1;" width="10" x="207.4092" y="176.4688"/></g><g><title>PATCH .api.profile</title><rect fill="#FFFFFF" height="964.7578" style="stroke:#181818;stroke-width:1;" width="10" x="507.3223" y="225.3906"/></g><g><title>verifyToken..</title><rect fill="#FFFFFF" height="25.6406" style="stroke:#181818;stroke-width:1;" width="10" x="741.3125" y="251.0313"/></g><g><title>PostgreSQL</title><rect fill="#FFFFFF" height="25.6406" style="stroke:#181818;stroke-width:1;" width="10" x="848.3853" y="359.0859"/></g><g><title>PostgreSQL</title><rect fill="#FFFFFF" height="25.6406" style="stroke:#181818;stroke-width:1;" width="10" x="848.3853" y="1115.5859"/></g><g><title>bcryptjs</title><rect fill="#FFFFFF" height="25.6406" style="stroke:#181818;stroke-width:1;" width="10" x="936.854" y="693.7266"/></g><g><title>bcryptjs</title><rect fill="#FFFFFF" height="25.6406" style="stroke:#181818;stroke-width:1;" width="10" x="936.854" y="858.5547"/></g><rect fill="none" height="42.7734" style="stroke:#000000;stroke-width:1.5;" width="437.2827" x="155.3608" y="291.6719"/><rect fill="none" height="42.7734" style="stroke:#000000;stroke-width:1.5;" width="437.2827" x="155.3608" y="399.7266"/><rect fill="none" height="42.7734" style="stroke:#000000;stroke-width:1.5;" width="440.1382" x="155.3608" y="545.4063"/><rect fill="none" height="328.6563" style="stroke:#000000;stroke-width:1.5;" width="841.5854" x="145.3608" y="602.1797"/><rect fill="none" height="42.7734" style="stroke:#000000;stroke-width:1.5;" width="437.2827" x="155.3608" y="626.3125"/><rect fill="none" height="42.7734" style="stroke:#000000;stroke-width:1.5;" width="437.2827" x="155.3608" y="734.3672"/><rect fill="none" height="42.7734" style="stroke:#000000;stroke-width:1.5;" width="437.2827" x="155.3608" y="791.1406"/><rect fill="none" height="42.7734" style="stroke:#000000;stroke-width:1.5;" width="437.2827" x="155.3608" y="944.8359"/><rect fill="none" height="42.7734" style="stroke:#000000;stroke-width:1.5;" width="437.2827" x="155.3608" y="1001.6094"/><g class="participant-lifeline" data-entity-uid="part1" data-qualified-name="USER" data-source-line="13" id="part1-lifeline"><g><title>Pengguna</title><rect fill="#000000" fill-opacity="0.00000" height="1108.2422" width="8" x="39.0137" y="137.1875"/><line style="stroke:#2C3E50;stroke-width:0.5;stroke-dasharray:5,5;" x1="43" x2="43" y1="137.1875" y2="1245.4297"/></g></g><g class="participant-lifeline" data-entity-uid="part2" data-qualified-name="UI" data-source-line="14" id="part2-lifeline"><g><title>ProfileForm</title><rect fill="#000000" fill-opacity="0.00000" height="1108.2422" width="8" x="208.4092" y="137.1875"/><line style="stroke:#2C3E50;stroke-width:0.5;stroke-dasharray:5,5;" x1="212.3608" x2="212.3608" y1="137.1875" y2="1245.4297"/></g></g><g class="participant-lifeline" data-entity-uid="part3" data-qualified-name="API" data-source-line="15" id="part3-lifeline"><g><title>PATCH .api.profile</title><rect fill="#000000" fill-opacity="0.00000" height="1108.2422" width="8" x="508.3223" y="137.1875"/><line style="stroke:#2C3E50;stroke-width:0.5;stroke-dasharray:5,5;" x1="512.001" x2="512.001" y1="137.1875" y2="1245.4297"/></g></g><g class="participant-lifeline" data-entity-uid="part4" data-qualified-name="JWT" data-source-line="16" id="part4-lifeline"><g><title>verifyToken..</title><rect fill="#000000" fill-opacity="0.00000" height="1108.2422" width="8" x="742.3125" y="137.1875"/><line style="stroke:#2C3E50;stroke-width:0.5;stroke-dasharray:5,5;" x1="745.6162" x2="745.6162" y1="137.1875" y2="1245.4297"/></g></g><g class="participant-lifeline" data-entity-uid="part5" data-qualified-name="DB" data-source-line="17" id="part5-lifeline"><g><title>PostgreSQL</title><rect fill="#000000" fill-opacity="0.00000" height="1108.2422" width="8" x="849.3853" y="137.1875"/><line style="stroke:#2C3E50;stroke-width:0.5;stroke-dasharray:5,5;" x1="853.0088" x2="853.0088" y1="137.1875" y2="1245.4297"/></g></g><g class="participant-lifeline" data-entity-uid="part6" data-qualified-name="BCRYPT" data-source-line="18" id="part6-lifeline"><g><title>bcryptjs</title><rect fill="#000000" fill-opacity="0.00000" height="1108.2422" width="8" x="937.854" y="137.1875"/><line style="stroke:#2C3E50;stroke-width:0.5;stroke-dasharray:5,5;" x1="941.7617" x2="941.7617" y1="137.1875" y2="1245.4297"/></g></g><g class="participant participant-head" data-entity-uid="part1" data-qualified-name="USER" data-source-line="13" id="part1-head"><text fill="#000000" font-family="sans-serif" font-size="14" lengthAdjust="spacing" textLength="70.0273" x="5" y="133.8857">Pengguna</text><ellipse cx="43.0137" cy="69.3906" fill="#FDEBD0" rx="8" ry="8" style="stroke:#E67E22;stroke-width:0.5;"/><path d="M43.0137,77.3906 L43.0137,104.3906 M30.0137,85.3906 L56.0137,85.3906 M43.0137,104.3906 L30.0137,119.3906 M43.0137,104.3906 L56.0137,119.3906" fill="none" style="stroke:#E67E22;stroke-width:0.5;"/></g><g class="participant participant-tail" data-entity-uid="part1" data-qualified-name="USER" data-source-line="13" id="part1-tail"><text fill="#000000" font-family="sans-serif" font-size="14" lengthAdjust="spacing" textLength="70.0273" x="5" y="1257.4248">Pengguna</text><ellipse cx="43.0137" cy="1269.2266" fill="#FDEBD0" rx="8" ry="8" style="stroke:#E67E22;stroke-width:0.5;"/><path d="M43.0137,1277.2266 L43.0137,1304.2266 M30.0137,1285.2266 L56.0137,1285.2266 M43.0137,1304.2266 L30.0137,1319.2266 M43.0137,1304.2266 L56.0137,1319.2266" fill="none" style="stroke:#E67E22;stroke-width:0.5;"/></g><g class="participant participant-head" data-entity-uid="part2" data-qualified-name="UI" data-source-line="14" id="part2-head"><rect fill="#EEF4FF" height="46.5938" rx="2.5" ry="2.5" style="stroke:#2F6FED;stroke-width:0.5;" width="94.0967" x="165.3608" y="89.5938"/><text fill="#000000" font-family="sans-serif" font-size="14" lengthAdjust="spacing" textLength="80.0967" x="172.3608" y="109.5889">ProfileForm</text><text fill="#000000" font-family="sans-serif" font-size="14" lengthAdjust="spacing" textLength="51.0303" x="186.894" y="125.8857">(React)</text></g><g class="participant participant-tail" data-entity-uid="part2" data-qualified-name="UI" data-source-line="14" id="part2-tail"><rect fill="#EEF4FF" height="46.5938" rx="2.5" ry="2.5" style="stroke:#2F6FED;stroke-width:0.5;" width="94.0967" x="165.3608" y="1244.4297"/><text fill="#000000" font-family="sans-serif" font-size="14" lengthAdjust="spacing" textLength="80.0967" x="172.3608" y="1264.4248">ProfileForm</text><text fill="#000000" font-family="sans-serif" font-size="14" lengthAdjust="spacing" textLength="51.0303" x="186.894" y="1280.7217">(React)</text></g><g class="participant participant-head" data-entity-uid="part3" data-qualified-name="API" data-source-line="15" id="part3-head"><rect fill="#EEF4FF" height="46.5938" rx="2.5" ry="2.5" style="stroke:#2F6FED;stroke-width:0.5;" width="140.6426" x="442.001" y="89.5938"/><text fill="#000000" font-family="sans-serif" font-size="14" lengthAdjust="spacing" textLength="126.6426" x="449.001" y="109.5889">PATCH /api/profile</text><text fill="#000000" font-family="sans-serif" font-size="14" lengthAdjust="spacing" textLength="111.7676" x="456.4385" y="125.8857">(Route Handler)</text></g><g class="participant participant-tail" data-entity-uid="part3" data-qualified-name="API" data-source-line="15" id="part3-tail"><rect fill="#EEF4FF" height="46.5938" rx="2.5" ry="2.5" style="stroke:#2F6FED;stroke-width:0.5;" width="140.6426" x="442.001" y="1244.4297"/><text fill="#000000" font-family="sans-serif" font-size="14" lengthAdjust="spacing" textLength="126.6426" x="449.001" y="1264.4248">PATCH /api/profile</text><text fill="#000000" font-family="sans-serif" font-size="14" lengthAdjust="spacing" textLength="111.7676" x="456.4385" y="1280.7217">(Route Handler)</text></g><g class="participant participant-head" data-entity-uid="part4" data-qualified-name="JWT" data-source-line="16" id="part4-head"><rect fill="#EEF4FF" height="30.2969" rx="2.5" ry="2.5" style="stroke:#2F6FED;stroke-width:0.5;" width="107.3926" x="692.6162" y="105.8906"/><text fill="#000000" font-family="sans-serif" font-size="14" lengthAdjust="spacing" textLength="93.3926" x="699.6162" y="125.8857">verifyToken()</text></g><g class="participant participant-tail" data-entity-uid="part4" data-qualified-name="JWT" data-source-line="16" id="part4-tail"><rect fill="#EEF4FF" height="30.2969" rx="2.5" ry="2.5" style="stroke:#2F6FED;stroke-width:0.5;" width="107.3926" x="692.6162" y="1244.4297"/><text fill="#000000" font-family="sans-serif" font-size="14" lengthAdjust="spacing" textLength="93.3926" x="699.6162" y="1264.4248">verifyToken()</text></g><g class="participant participant-head" data-entity-uid="part5" data-qualified-name="DB" data-source-line="17" id="part5-head"><text fill="#000000" font-family="sans-serif" font-size="14" lengthAdjust="spacing" textLength="80.7529" x="810.0088" y="117.5889">PostgreSQL</text><text fill="#000000" font-family="sans-serif" font-size="14" lengthAdjust="spacing" textLength="58.5225" x="821.124" y="133.8857">(Prisma)</text><path d="M835.3853,68.5938 C835.3853,58.5938 853.3853,58.5938 853.3853,58.5938 C853.3853,58.5938 871.3853,58.5938 871.3853,68.5938 L871.3853,94.5938 C871.3853,104.5938 853.3853,104.5938 853.3853,104.5938 C853.3853,104.5938 835.3853,104.5938 835.3853,94.5938 L835.3853,68.5938" fill="#E2E2F0" style="stroke:#181818;stroke-width:0.5;"/><path d="M835.3853,68.5938 C835.3853,78.5938 853.3853,78.5938 853.3853,78.5938 C853.3853,78.5938 871.3853,78.5938 871.3853,68.5938" fill="none" style="stroke:#181818;stroke-width:0.5;"/></g><g class="participant participant-tail" data-entity-uid="part5" data-qualified-name="DB" data-source-line="17" id="part5-tail"><text fill="#000000" font-family="sans-serif" font-size="14" lengthAdjust="spacing" textLength="80.7529" x="810.0088" y="1257.4248">PostgreSQL</text><text fill="#000000" font-family="sans-serif" font-size="14" lengthAdjust="spacing" textLength="58.5225" x="821.124" y="1273.7217">(Prisma)</text><path d="M835.3853,1287.0234 C835.3853,1277.0234 853.3853,1277.0234 853.3853,1277.0234 C853.3853,1277.0234 871.3853,1277.0234 871.3853,1287.0234 L871.3853,1313.0234 C871.3853,1323.0234 853.3853,1323.0234 853.3853,1323.0234 C853.3853,1323.0234 835.3853,1323.0234 835.3853,1313.0234 L835.3853,1287.0234" fill="#E2E2F0" style="stroke:#181818;stroke-width:0.5;"/><path d="M835.3853,1287.0234 C835.3853,1297.0234 853.3853,1297.0234 853.3853,1297.0234 C853.3853,1297.0234 871.3853,1297.0234 871.3853,1287.0234" fill="none" style="stroke:#181818;stroke-width:0.5;"/></g><g class="participant participant-head" data-entity-uid="part6" data-qualified-name="BCRYPT" data-source-line="18" id="part6-head"><rect fill="#EEF4FF" height="30.2969" rx="2.5" ry="2.5" style="stroke:#2F6FED;stroke-width:0.5;" width="70.1846" x="906.7617" y="105.8906"/><text fill="#000000" font-family="sans-serif" font-size="14" lengthAdjust="spacing" textLength="56.1846" x="913.7617" y="125.8857">bcryptjs</text></g><g class="participant participant-tail" data-entity-uid="part6" data-qualified-name="BCRYPT" data-source-line="18" id="part6-tail"><rect fill="#EEF4FF" height="30.2969" rx="2.5" ry="2.5" style="stroke:#2F6FED;stroke-width:0.5;" width="70.1846" x="906.7617" y="1244.4297"/><text fill="#000000" font-family="sans-serif" font-size="14" lengthAdjust="spacing" textLength="56.1846" x="913.7617" y="1264.4248">bcryptjs</text></g><g><title>ProfileForm</title><rect fill="#FFFFFF" height="1050.9609" style="stroke:#181818;stroke-width:1;" width="10" x="207.4092" y="176.4688"/></g><g><title>PATCH .api.profile</title><rect fill="#FFFFFF" height="964.7578" style="stroke:#181818;stroke-width:1;" width="10" x="507.3223" y="225.3906"/></g><g><title>verifyToken..</title><rect fill="#FFFFFF" height="25.6406" style="stroke:#181818;stroke-width:1;" width="10" x="741.3125" y="251.0313"/></g><g><title>PostgreSQL</title><rect fill="#FFFFFF" height="25.6406" style="stroke:#181818;stroke-width:1;" width="10" x="848.3853" y="359.0859"/></g><g><title>PostgreSQL</title><rect fill="#FFFFFF" height="25.6406" style="stroke:#181818;stroke-width:1;" width="10" x="848.3853" y="1115.5859"/></g><g><title>bcryptjs</title><rect fill="#FFFFFF" height="25.6406" style="stroke:#181818;stroke-width:1;" width="10" x="936.854" y="693.7266"/></g><g><title>bcryptjs</title><rect fill="#FFFFFF" height="25.6406" style="stroke:#181818;stroke-width:1;" width="10" x="936.854" y="858.5547"/></g><g class="message" data-entity-1="part1" data-entity-2="part2" data-source-line="20" id="msg1"><polygon fill="#2C3E50" points="195.4092,172.4688,205.4092,176.4688,195.4092,180.4688,199.4092,176.4688" style="stroke:#2C3E50;stroke-width:1;stroke-linejoin:miter;stroke-miterlimit:10;"/><line style="stroke:#2C3E50;stroke-width:1;" x1="43.0137" x2="201.4092" y1="176.4688" y2="176.4688"/><text fill="#000000" font-family="sans-serif" font-size="10" lengthAdjust="spacing" textLength="145.3955" x="50.0137" y="160.4697">edit nama / email / password</text><text fill="#000000" font-family="sans-serif" font-size="10" lengthAdjust="spacing" textLength="145.3516" x="50.0137" y="172.1104">/ personalContext / avatarUrl</text></g><g class="message" data-entity-1="part2" data-entity-2="part3" data-source-line="23" id="msg2"><polygon fill="#2C3E50" points="495.3223,221.3906,505.3223,225.3906,495.3223,229.3906,499.3223,225.3906" style="stroke:#2C3E50;stroke-width:1;stroke-linejoin:miter;stroke-miterlimit:10;"/><line style="stroke:#2C3E50;stroke-width:1;" x1="217.4092" x2="501.3223" y1="225.3906" y2="225.3906"/><text fill="#000000" font-family="sans-serif" font-size="10" lengthAdjust="spacing" textLength="90.459" x="224.4092" y="197.751">PATCH /api/profile</text><text fill="#000000" font-family="sans-serif" font-size="10" lengthAdjust="spacing" textLength="174.7412" x="224.4092" y="209.3916">{name?, email?, currentPassword?</text><text fill="#000000" font-family="sans-serif" font-size="10" lengthAdjust="spacing" textLength="232.0801" x="224.4092" y="221.0322">newPassword?, avatarUrl?, personalContext?}</text></g><g class="message" data-entity-1="part3" data-entity-2="part4" data-source-line="26" id="msg3"><polygon fill="#2C3E50" points="729.3125,247.0313,739.3125,251.0313,729.3125,255.0313,733.3125,251.0313" style="stroke:#2C3E50;stroke-width:1;stroke-linejoin:miter;stroke-miterlimit:10;"/><line style="stroke:#2C3E50;stroke-width:1;" x1="517.3223" x2="735.3125" y1="251.0313" y2="251.0313"/><text fill="#000000" font-family="sans-serif" font-size="10" lengthAdjust="spacing" textLength="130.6641" x="524.3223" y="246.6729">verifyToken(token cookie)</text></g><g class="message" data-entity-1="part4" data-entity-2="part3" data-source-line="28" id="msg4"><polygon fill="#2C3E50" points="528.3223,272.6719,518.3223,276.6719,528.3223,280.6719,524.3223,276.6719" style="stroke:#2C3E50;stroke-width:1;stroke-linejoin:miter;stroke-miterlimit:10;"/><line style="stroke:#2C3E50;stroke-width:1;stroke-dasharray:2,2;" x1="522.3223" x2="745.3125" y1="276.6719" y2="276.6719"/><text fill="#000000" font-family="sans-serif" font-size="10" lengthAdjust="spacing" textLength="86.7773" x="534.3223" y="272.3135">payload {userId}</text></g><path d="M155.3608,291.6719 L219.8037,291.6719 L219.8037,298.8047 L209.8037,308.8047 L155.3608,308.8047 L155.3608,291.6719" fill="#EEEEEE" style="stroke:#000000;stroke-width:1.5;"/><rect fill="none" height="42.7734" style="stroke:#000000;stroke-width:1.5;" width="437.2827" x="155.3608" y="291.6719"/><text fill="#000000" font-family="sans-serif" font-size="13" font-weight="700" lengthAdjust="spacing" textLength="19.4429" x="170.3608" y="304.7388">alt</text><text fill="#000000" font-family="sans-serif" font-size="11" font-weight="700" lengthAdjust="spacing" textLength="163.0288" x="234.8037" y="303.8823">[Token tidak ada / invalid]</text><g class="message" data-entity-1="part3" data-entity-2="part2" data-source-line="32" id="msg5"><polygon fill="#2C3E50" points="228.4092,322.4453,218.4092,326.4453,228.4092,330.4453,224.4092,326.4453" style="stroke:#2C3E50;stroke-width:1;stroke-linejoin:miter;stroke-miterlimit:10;"/><line style="stroke:#2C3E50;stroke-width:1;stroke-dasharray:2,2;" x1="222.4092" x2="506.3223" y1="326.4453" y2="326.4453"/><text fill="#000000" font-family="sans-serif" font-size="10" lengthAdjust="spacing" textLength="48.0322" x="234.4092" y="322.0869">HTTP 401</text></g><g class="message" data-entity-1="part3" data-entity-2="part5" data-source-line="35" id="msg6"><polygon fill="#2C3E50" points="836.3853,355.0859,846.3853,359.0859,836.3853,363.0859,840.3853,359.0859" style="stroke:#2C3E50;stroke-width:1;stroke-linejoin:miter;stroke-miterlimit:10;"/><line style="stroke:#2C3E50;stroke-width:1;" x1="517.3223" x2="842.3853" y1="359.0859" y2="359.0859"/><text fill="#000000" font-family="sans-serif" font-size="10" lengthAdjust="spacing" textLength="146.5576" x="524.3223" y="354.7275">user.findUnique({id: userId})</text></g><g class="message" data-entity-1="part5" data-entity-2="part3" data-source-line="37" id="msg7"><polygon fill="#2C3E50" points="528.3223,380.7266,518.3223,384.7266,528.3223,388.7266,524.3223,384.7266" style="stroke:#2C3E50;stroke-width:1;stroke-linejoin:miter;stroke-miterlimit:10;"/><line style="stroke:#2C3E50;stroke-width:1;stroke-dasharray:2,2;" x1="522.3223" x2="852.3853" y1="384.7266" y2="384.7266"/><text fill="#000000" font-family="sans-serif" font-size="10" lengthAdjust="spacing" textLength="62.2363" x="534.3223" y="380.3682">existingUser</text></g><path d="M155.3608,399.7266 L219.8037,399.7266 L219.8037,406.8594 L209.8037,416.8594 L155.3608,416.8594 L155.3608,399.7266" fill="#EEEEEE" style="stroke:#000000;stroke-width:1.5;"/><rect fill="none" height="42.7734" style="stroke:#000000;stroke-width:1.5;" width="437.2827" x="155.3608" y="399.7266"/><text fill="#000000" font-family="sans-serif" font-size="13" font-weight="700" lengthAdjust="spacing" textLength="19.4429" x="170.3608" y="412.7935">alt</text><text fill="#000000" font-family="sans-serif" font-size="11" font-weight="700" lengthAdjust="spacing" textLength="143.9453" x="234.8037" y="411.937">[User tidak ditemukan]</text><g class="message" data-entity-1="part3" data-entity-2="part2" data-source-line="41" id="msg8"><polygon fill="#2C3E50" points="228.4092,430.5,218.4092,434.5,228.4092,438.5,224.4092,434.5" style="stroke:#2C3E50;stroke-width:1;stroke-linejoin:miter;stroke-miterlimit:10;"/><line style="stroke:#2C3E50;stroke-width:1;stroke-dasharray:2,2;" x1="222.4092" x2="506.3223" y1="434.5" y2="434.5"/><text fill="#000000" font-family="sans-serif" font-size="10" lengthAdjust="spacing" textLength="48.0322" x="234.4092" y="430.1416">HTTP 404</text></g><g class="message" data-entity-1="part3" data-entity-2="part3" data-source-line="44" id="msg9"><line style="stroke:#2C3E50;stroke-width:1;" x1="517.3223" x2="559.3223" y1="467.1406" y2="467.1406"/><line style="stroke:#2C3E50;stroke-width:1;" x1="559.3223" x2="559.3223" y1="467.1406" y2="480.1406"/><line style="stroke:#2C3E50;stroke-width:1;" x1="518.3223" x2="559.3223" y1="480.1406" y2="480.1406"/><polygon fill="#2C3E50" points="528.3223,476.1406,518.3223,480.1406,528.3223,484.1406,524.3223,480.1406" style="stroke:#2C3E50;stroke-width:1;stroke-linejoin:miter;stroke-miterlimit:10;"/><text fill="#000000" font-family="sans-serif" font-size="10" lengthAdjust="spacing" textLength="119.1846" x="524.3223" y="462.7822">susun updateData = {}</text></g><path d="M522,493.1406 L522,533.1406 L804,533.1406 L804,503.1406 L794,493.1406 L522,493.1406" fill="#FEFFDD" style="stroke:#181818;stroke-width:0.5;"/><path d="M794,493.1406 L794,503.1406 L804,503.1406 L794,493.1406" fill="#FEFFDD" style="stroke:#181818;stroke-width:0.5;"/><text fill="#000000" font-family="sans-serif" font-size="13" lengthAdjust="spacing" textLength="261.0791" x="528" y="510.2075">Hanya field yang dikirim yang diupdate.</text><text fill="#000000" font-family="sans-serif" font-size="13" lengthAdjust="spacing" textLength="230.4644" x="528" y="525.3403">Field tidak dikirim = tidak berubah.</text><path d="M155.3608,545.4063 L219.8037,545.4063 L219.8037,552.5391 L209.8037,562.5391 L155.3608,562.5391 L155.3608,545.4063" fill="#EEEEEE" style="stroke:#000000;stroke-width:1.5;"/><rect fill="none" height="42.7734" style="stroke:#000000;stroke-width:1.5;" width="440.1382" x="155.3608" y="545.4063"/><text fill="#000000" font-family="sans-serif" font-size="13" font-weight="700" lengthAdjust="spacing" textLength="19.4429" x="170.3608" y="558.4731">alt</text><text fill="#000000" font-family="sans-serif" font-size="11" font-weight="700" lengthAdjust="spacing" textLength="355.6953" x="234.8037" y="557.6167">[avatarUrl dikirim &amp;&amp; bukan null &amp;&amp; tidak diawali "http"]</text><g class="message" data-entity-1="part3" data-entity-2="part2" data-source-line="51" id="msg10"><polygon fill="#2C3E50" points="228.4092,576.1797,218.4092,580.1797,228.4092,584.1797,224.4092,580.1797" style="stroke:#2C3E50;stroke-width:1;stroke-linejoin:miter;stroke-miterlimit:10;"/><line style="stroke:#2C3E50;stroke-width:1;stroke-dasharray:2,2;" x1="222.4092" x2="506.3223" y1="580.1797" y2="580.1797"/><text fill="#000000" font-family="sans-serif" font-size="10" lengthAdjust="spacing" textLength="171.748" x="234.4092" y="575.8213">HTTP 400 "URL Avatar tidak valid"</text></g><path d="M145.3608,602.1797 L209.8037,602.1797 L209.8037,609.3125 L199.8037,619.3125 L145.3608,619.3125 L145.3608,602.1797" fill="#EEEEEE" style="stroke:#000000;stroke-width:1.5;"/><rect fill="none" height="328.6563" style="stroke:#000000;stroke-width:1.5;" width="841.5854" x="145.3608" y="602.1797"/><text fill="#000000" font-family="sans-serif" font-size="13" font-weight="700" lengthAdjust="spacing" textLength="19.4429" x="160.3608" y="615.2466">alt</text><text fill="#000000" font-family="sans-serif" font-size="11" font-weight="700" lengthAdjust="spacing" textLength="142.3232" x="224.8037" y="614.3901">[newPassword dikirim]</text><path d="M155.3608,626.3125 L219.8037,626.3125 L219.8037,633.4453 L209.8037,643.4453 L155.3608,643.4453 L155.3608,626.3125" fill="#EEEEEE" style="stroke:#000000;stroke-width:1.5;"/><rect fill="none" height="42.7734" style="stroke:#000000;stroke-width:1.5;" width="437.2827" x="155.3608" y="626.3125"/><text fill="#000000" font-family="sans-serif" font-size="13" font-weight="700" lengthAdjust="spacing" textLength="19.4429" x="170.3608" y="639.3794">alt</text><text fill="#000000" font-family="sans-serif" font-size="11" font-weight="700" lengthAdjust="spacing" textLength="177.4233" x="234.8037" y="638.5229">[currentPassword tidak ada]</text><g class="message" data-entity-1="part3" data-entity-2="part2" data-source-line="56" id="msg11"><polygon fill="#2C3E50" points="228.4092,657.0859,218.4092,661.0859,228.4092,665.0859,224.4092,661.0859" style="stroke:#2C3E50;stroke-width:1;stroke-linejoin:miter;stroke-miterlimit:10;"/><line style="stroke:#2C3E50;stroke-width:1;stroke-dasharray:2,2;" x1="222.4092" x2="506.3223" y1="661.0859" y2="661.0859"/><text fill="#000000" font-family="sans-serif" font-size="10" lengthAdjust="spacing" textLength="188.1592" x="234.4092" y="656.7275">HTTP 400 "Password lama wajib diisi"</text></g><g class="message" data-entity-1="part3" data-entity-2="part6" data-source-line="59" id="msg12"><polygon fill="#2C3E50" points="924.854,689.7266,934.854,693.7266,924.854,697.7266,928.854,693.7266" style="stroke:#2C3E50;stroke-width:1;stroke-linejoin:miter;stroke-miterlimit:10;"/><line style="stroke:#2C3E50;stroke-width:1;" x1="517.3223" x2="930.854" y1="693.7266" y2="693.7266"/><text fill="#000000" font-family="sans-serif" font-size="10" lengthAdjust="spacing" textLength="280.3223" x="524.3223" y="689.3682">compare(currentPassword, existingUser.passwordHash)</text></g><g class="message" data-entity-1="part6" data-entity-2="part3" data-source-line="61" id="msg13"><polygon fill="#2C3E50" points="528.3223,715.3672,518.3223,719.3672,528.3223,723.3672,524.3223,719.3672" style="stroke:#2C3E50;stroke-width:1;stroke-linejoin:miter;stroke-miterlimit:10;"/><line style="stroke:#2C3E50;stroke-width:1;stroke-dasharray:2,2;" x1="522.3223" x2="940.854" y1="719.3672" y2="719.3672"/><text fill="#000000" font-family="sans-serif" font-size="10" lengthAdjust="spacing" textLength="85.0293" x="534.3223" y="715.0088">isMatch: boolean</text></g><path d="M155.3608,734.3672 L219.8037,734.3672 L219.8037,741.5 L209.8037,751.5 L155.3608,751.5 L155.3608,734.3672" fill="#EEEEEE" style="stroke:#000000;stroke-width:1.5;"/><rect fill="none" height="42.7734" style="stroke:#000000;stroke-width:1.5;" width="437.2827" x="155.3608" y="734.3672"/><text fill="#000000" font-family="sans-serif" font-size="13" font-weight="700" lengthAdjust="spacing" textLength="19.4429" x="170.3608" y="747.4341">alt</text><text fill="#000000" font-family="sans-serif" font-size="11" font-weight="700" lengthAdjust="spacing" textLength="140.3843" x="234.8037" y="746.5776">[Password lama salah]</text><g class="message" data-entity-1="part3" data-entity-2="part2" data-source-line="65" id="msg14"><polygon fill="#2C3E50" points="228.4092,765.1406,218.4092,769.1406,228.4092,773.1406,224.4092,769.1406" style="stroke:#2C3E50;stroke-width:1;stroke-linejoin:miter;stroke-miterlimit:10;"/><line style="stroke:#2C3E50;stroke-width:1;stroke-dasharray:2,2;" x1="222.4092" x2="506.3223" y1="769.1406" y2="769.1406"/><text fill="#000000" font-family="sans-serif" font-size="10" lengthAdjust="spacing" textLength="165.459" x="234.4092" y="764.7822">HTTP 401 "Password lama salah"</text></g><path d="M155.3608,791.1406 L219.8037,791.1406 L219.8037,798.2734 L209.8037,808.2734 L155.3608,808.2734 L155.3608,791.1406" fill="#EEEEEE" style="stroke:#000000;stroke-width:1.5;"/><rect fill="none" height="42.7734" style="stroke:#000000;stroke-width:1.5;" width="437.2827" x="155.3608" y="791.1406"/><text fill="#000000" font-family="sans-serif" font-size="13" font-weight="700" lengthAdjust="spacing" textLength="19.4429" x="170.3608" y="804.2075">alt</text><text fill="#000000" font-family="sans-serif" font-size="11" font-weight="700" lengthAdjust="spacing" textLength="176.5103" x="234.8037" y="803.3511">[newPassword &lt; 8 karakter]</text><g class="message" data-entity-1="part3" data-entity-2="part2" data-source-line="69" id="msg15"><polygon fill="#2C3E50" points="228.4092,821.9141,218.4092,825.9141,228.4092,829.9141,224.4092,825.9141" style="stroke:#2C3E50;stroke-width:1;stroke-linejoin:miter;stroke-miterlimit:10;"/><line style="stroke:#2C3E50;stroke-width:1;stroke-dasharray:2,2;" x1="222.4092" x2="506.3223" y1="825.9141" y2="825.9141"/><text fill="#000000" font-family="sans-serif" font-size="10" lengthAdjust="spacing" textLength="206.0596" x="234.4092" y="821.5557">HTTP 400 "Password minimal 8 karakter"</text></g><g class="message" data-entity-1="part3" data-entity-2="part6" data-source-line="72" id="msg16"><polygon fill="#2C3E50" points="924.854,854.5547,934.854,858.5547,924.854,862.5547,928.854,858.5547" style="stroke:#2C3E50;stroke-width:1;stroke-linejoin:miter;stroke-miterlimit:10;"/><line style="stroke:#2C3E50;stroke-width:1;" x1="517.3223" x2="930.854" y1="858.5547" y2="858.5547"/><text fill="#000000" font-family="sans-serif" font-size="10" lengthAdjust="spacing" textLength="180.7861" x="524.3223" y="854.1963">hash(newPassword, saltRounds: 10)</text></g><g class="message" data-entity-1="part6" data-entity-2="part3" data-source-line="74" id="msg17"><polygon fill="#2C3E50" points="528.3223,880.1953,518.3223,884.1953,528.3223,888.1953,524.3223,884.1953" style="stroke:#2C3E50;stroke-width:1;stroke-linejoin:miter;stroke-miterlimit:10;"/><line style="stroke:#2C3E50;stroke-width:1;stroke-dasharray:2,2;" x1="522.3223" x2="940.854" y1="884.1953" y2="884.1953"/><text fill="#000000" font-family="sans-serif" font-size="10" lengthAdjust="spacing" textLength="98.9502" x="534.3223" y="879.8369">passwordHash baru</text></g><g class="message" data-entity-1="part3" data-entity-2="part3" data-source-line="77" id="msg18"><line style="stroke:#2C3E50;stroke-width:1;" x1="517.3223" x2="559.3223" y1="909.8359" y2="909.8359"/><line style="stroke:#2C3E50;stroke-width:1;" x1="559.3223" x2="559.3223" y1="909.8359" y2="922.8359"/><line style="stroke:#2C3E50;stroke-width:1;" x1="518.3223" x2="559.3223" y1="922.8359" y2="922.8359"/><polygon fill="#2C3E50" points="528.3223,918.8359,518.3223,922.8359,528.3223,926.8359,524.3223,922.8359" style="stroke:#2C3E50;stroke-width:1;stroke-linejoin:miter;stroke-miterlimit:10;"/><text fill="#000000" font-family="sans-serif" font-size="10" lengthAdjust="spacing" textLength="199.9902" x="524.3223" y="905.4775">updateData.passwordHash = hash baru</text></g><path d="M155.3608,944.8359 L219.8037,944.8359 L219.8037,951.9688 L209.8037,961.9688 L155.3608,961.9688 L155.3608,944.8359" fill="#EEEEEE" style="stroke:#000000;stroke-width:1.5;"/><rect fill="none" height="42.7734" style="stroke:#000000;stroke-width:1.5;" width="437.2827" x="155.3608" y="944.8359"/><text fill="#000000" font-family="sans-serif" font-size="13" font-weight="700" lengthAdjust="spacing" textLength="19.4429" x="170.3608" y="957.9028">alt</text><text fill="#000000" font-family="sans-serif" font-size="11" font-weight="700" lengthAdjust="spacing" textLength="266.4009" x="234.8037" y="957.0464">[personalContext dikirim &amp;&amp; length &gt; 500]</text><g class="message" data-entity-1="part3" data-entity-2="part2" data-source-line="81" id="msg19"><polygon fill="#2C3E50" points="228.4092,975.6094,218.4092,979.6094,228.4092,983.6094,224.4092,979.6094" style="stroke:#2C3E50;stroke-width:1;stroke-linejoin:miter;stroke-miterlimit:10;"/><line style="stroke:#2C3E50;stroke-width:1;stroke-dasharray:2,2;" x1="222.4092" x2="506.3223" y1="979.6094" y2="979.6094"/><text fill="#000000" font-family="sans-serif" font-size="10" lengthAdjust="spacing" textLength="265.9131" x="234.4092" y="975.251">HTTP 400 "Konteks personal maksimal 500 karakter"</text></g><path d="M155.3608,1001.6094 L219.8037,1001.6094 L219.8037,1008.7422 L209.8037,1018.7422 L155.3608,1018.7422 L155.3608,1001.6094" fill="#EEEEEE" style="stroke:#000000;stroke-width:1.5;"/><rect fill="none" height="42.7734" style="stroke:#000000;stroke-width:1.5;" width="437.2827" x="155.3608" y="1001.6094"/><text fill="#000000" font-family="sans-serif" font-size="13" font-weight="700" lengthAdjust="spacing" textLength="19.4429" x="170.3608" y="1014.6763">alt</text><text fill="#000000" font-family="sans-serif" font-size="11" font-weight="700" lengthAdjust="spacing" textLength="324.7632" x="234.8037" y="1013.8198">[updateData kosong (tidak ada field yang berubah)]</text><g class="message" data-entity-1="part3" data-entity-2="part2" data-source-line="85" id="msg20"><polygon fill="#2C3E50" points="228.4092,1032.3828,218.4092,1036.3828,228.4092,1040.3828,224.4092,1036.3828" style="stroke:#2C3E50;stroke-width:1;stroke-linejoin:miter;stroke-miterlimit:10;"/><line style="stroke:#2C3E50;stroke-width:1;stroke-dasharray:2,2;" x1="222.4092" x2="506.3223" y1="1036.3828" y2="1036.3828"/><text fill="#000000" font-family="sans-serif" font-size="10" lengthAdjust="spacing" textLength="192.4561" x="234.4092" y="1032.0244">HTTP 400 "Tidak ada perubahan data"</text></g><g class="message" data-entity-1="part3" data-entity-2="part5" data-source-line="88" id="msg21"><polygon fill="#2C3E50" points="836.3853,1111.5859,846.3853,1115.5859,836.3853,1119.5859,840.3853,1115.5859" style="stroke:#2C3E50;stroke-width:1;stroke-linejoin:miter;stroke-miterlimit:10;"/><line style="stroke:#2C3E50;stroke-width:1;" x1="517.3223" x2="842.3853" y1="1115.5859" y2="1115.5859"/><text fill="#000000" font-family="sans-serif" font-size="10" lengthAdjust="spacing" textLength="64.126" x="524.3223" y="1064.665">user.update(</text><text fill="#000000" font-family="sans-serif" font-size="10" lengthAdjust="spacing" textLength="59.5068" x="530.6797" y="1076.3057">{id: userId}</text><text fill="#000000" font-family="sans-serif" font-size="10" lengthAdjust="spacing" textLength="88.1836" x="530.6797" y="1087.9463">data: updateData</text><text fill="#000000" font-family="sans-serif" font-size="10" lengthAdjust="spacing" textLength="157.4023" x="530.6797" y="1099.5869">select: id,name,email,avatarUrl</text><text fill="#000000" font-family="sans-serif" font-size="10" lengthAdjust="spacing" textLength="3.9014" x="524.3223" y="1111.2275">)</text></g><g class="message" data-entity-1="part5" data-entity-2="part3" data-source-line="90" id="msg22"><polygon fill="#2C3E50" points="528.3223,1137.2266,518.3223,1141.2266,528.3223,1145.2266,524.3223,1141.2266" style="stroke:#2C3E50;stroke-width:1;stroke-linejoin:miter;stroke-miterlimit:10;"/><line style="stroke:#2C3E50;stroke-width:1;stroke-dasharray:2,2;" x1="522.3223" x2="852.3853" y1="1141.2266" y2="1141.2266"/><text fill="#000000" font-family="sans-serif" font-size="10" lengthAdjust="spacing" textLength="64.375" x="534.3223" y="1136.8682">updatedUser</text></g><g class="message" data-entity-1="part3" data-entity-2="part2" data-source-line="93" id="msg23"><polygon fill="#2C3E50" points="228.4092,1186.1484,218.4092,1190.1484,228.4092,1194.1484,224.4092,1190.1484" style="stroke:#2C3E50;stroke-width:1;stroke-linejoin:miter;stroke-miterlimit:10;"/><line style="stroke:#2C3E50;stroke-width:1;stroke-dasharray:2,2;" x1="222.4092" x2="511.3223" y1="1190.1484" y2="1190.1484"/><text fill="#000000" font-family="sans-serif" font-size="10" lengthAdjust="spacing" textLength="48.0322" x="234.4092" y="1162.5088">HTTP 200</text><text fill="#000000" font-family="sans-serif" font-size="10" lengthAdjust="spacing" textLength="190.0293" x="234.4092" y="1174.1494">{message: "Profil berhasil diperbarui"</text><text fill="#000000" font-family="sans-serif" font-size="10" lengthAdjust="spacing" textLength="99.0967" x="234.4092" y="1185.79">user: updatedUser}</text></g><g class="message" data-entity-1="part2" data-entity-2="part1" data-source-line="96" id="msg24"><polygon fill="#2C3E50" points="54.0137,1223.4297,44.0137,1227.4297,54.0137,1231.4297,50.0137,1227.4297" style="stroke:#2C3E50;stroke-width:1;stroke-linejoin:miter;stroke-miterlimit:10;"/><line style="stroke:#2C3E50;stroke-width:1;stroke-dasharray:2,2;" x1="48.0137" x2="211.4092" y1="1227.4297" y2="1227.4297"/><text fill="#000000" font-family="sans-serif" font-size="10" lengthAdjust="spacing" textLength="117.3242" x="60.0137" y="1211.4307">tampil notifikasi sukses</text><text fill="#000000" font-family="sans-serif" font-size="10" lengthAdjust="spacing" textLength="105.9766" x="60.0137" y="1223.0713">data profil diperbarui</text></g><?plantuml-src ZLLjR-964FxkNp6Yqeb8N4BItBL2lKGX12NNLA84L5NYos0FPi_shhkx3aTHfFw8_iB-aixw3Pk4qtt1s3lpF3FFpeiLDYPuehyoaZx1I62eCO7__laNvcc0bc2YrKh42pcvcTtUmnccuYpDFv7dcKZ859s3gH1s7i2DRvKUeX-5McKok5Mnql33U7Gt7FNhOwK3qkKHVVo9BYxuQ8BQ2b-aAEqh_xkxyULuV63KHBbOVLnHm0QFOaMFGbBxrF-HFkJqMglDcn_7IjedyJV1UTzxyJnqSK9dGZ8CCuaTG0Fpfxkfb-u3uED2ZB7IoK9sfyHU9uNfmu7XAm6TlSfOutkKGKowyBkP73W-anQhxKn59Bk5oUS_PXvV3YxH40ChOqDDJxy_Ck142vDWOJOQje6Mljwczel93uUtqpydCyzp6S7xAmuN1a21i20nGJW3Ib34_4pHc0qhkP3ydxHH4kDRLeg-MZx5Puv3ptNiv1BFhc8uSO_H69DJOT2t4jyn2Ltt2X9--fdM9EsavBfUI4cR-gstf-7_1q5Sl-ofdNQUOsLo5ed9c-9Pzmk-Kf6WaxsJKzCPlwyZJd4RAmnWbndI3y6B5r3BsiFOGeu9LWGO0GPECI6VCHQk0lCGAb7lPxC9NFRFFP917Treo2SE_dGbP32NWlkdknD1yP4v6m7oFRBvFZpwAemLCfopPJCqjiiZSz_BmFW-ASaYb4U2kcm5LS2Rp6GIihpzHomxV8BTYoSLCsWHhYseLIuqkBhT8gm4nG5iKOPC5majakgbm3Xbot5kKyLK67qgtvUaioMkJrqeu6YABEehhntUlOEbomLa5iVkhSB33UiEdRMrQUT8edtepAUFS9E3bexvRNKA1HnZe-GgJaPp9mVbkRzrFZ_ALrl7hg4s-4Ki6LOOuMBCIKlNgx8PsTjN2RSiTGy8UwqxFwrQyXxD-iI5M5L0sTHG0UvhHfZVqFhh0IoLYYclXqRbLCEWoBOTkC4OrqVpF3_CCpTlP7Wex2_mCqIyCoBBnVizwYL2YWJZXjitz5kp8jq6NS_5OwTkZPW1p_NlLAifC2nHPyVaQZNElcLQDyI5lgvnwc8x7AMD8ezvuzWrNC67VlzuEV_g72DJ0q62aScLOhU6LZLZewCZnIuXTFVJgz74PJ-U7AUUrMvfOSizwVPHvyY8AvYx2mdG777ktRarbNFV3CNaMwxPeEVMH2zV4hrw7YpaDsPZWHIyDHfV9tFHx_CgIiWO36bGxN8d05-OS8E7ytFN9ZeBwO9kuRVMGhvvvYM1Mwa3i9Ya3C8JJQn4n80yMID3PY5Tqb3imWP74sx-y3y0?></g></svg>