<svg width="24" height="26" viewBox="0 0 24 26" fill="none" xmlns="http://www.w3.org/2000/svg">
<path d="M21.6936 11.6167C21.2999 11.1917 20.8206 10.8233 20.3755 10.455C19.2285 9.605 17.9275 8.99583 16.8318 8.10333C14.2811 6.035 13.7162 2.62083 15.3425 0C13.7162 0.325833 12.2953 1.0625 11.0799 1.87C6.64603 4.81667 4.8999 10.0158 6.98841 14.4783C7.05689 14.62 7.12536 14.7617 7.12536 14.9458C7.12536 15.2575 6.86858 15.5408 6.5262 15.6542C6.13246 15.7958 5.72161 15.7108 5.39635 15.4842C5.29919 15.4168 5.21793 15.3352 5.15668 15.2433C3.22223 13.2175 2.91409 10.3133 4.21514 7.99C1.35626 9.91667 -0.201565 13.175 0.0209823 16.2492C0.123696 16.9575 0.22641 17.6658 0.517433 18.3742C0.757099 19.2242 1.21931 20.0742 1.73288 20.825C3.58173 23.2758 6.78299 25.0325 10.2239 25.3867C13.8874 25.7692 17.8076 25.2167 20.6151 23.12C23.7479 20.7683 24.8435 17 23.2343 13.77L23.0118 13.4017C22.6523 12.75 21.6936 11.6167 21.6936 11.6167ZM16.284 20.5417C15.8047 20.8817 15.0172 21.25 14.4009 21.3917C12.4836 21.9583 10.5663 21.165 9.43643 20.23C11.4736 19.8333 12.689 18.5867 13.0485 17.3258C13.3396 16.1925 12.7918 15.2575 12.5692 14.1667C12.3638 13.1183 12.398 12.2258 12.8602 11.2483C13.1855 11.7867 13.5279 12.325 13.9387 12.75C15.2569 14.1667 17.3283 14.79 17.7734 16.7167C17.8419 16.915 17.8761 17.1133 17.8761 17.3258C17.9275 18.4875 17.3112 19.7625 16.284 20.5417Z" fill="#0D99FF"/>
</svg>
