<svg xmlns="http://www.w3.org/2000/svg" xmlns:xlink="http://www.w3.org/1999/xlink" contentStyleType="text/css" data-diagram-type="DESCRIPTION" height="2569px" preserveAspectRatio="none" style="width:866px;height:2569px;background:#FFFFFF;" version="1.1" viewBox="0 0 866 2569" width="866px" zoomAndPan="magnify"><?plantuml 1.2026.5?><defs/><g><g class="title" data-source-line="1"><text fill="#000000" font-family="sans-serif" font-size="14" font-weight="700" lengthAdjust="spacing" textLength="329.0205" x="265.4547" y="22.9951">Use Case Diagram &#8212; Sistem TanyaHukum</text></g><!--cluster Sistem TanyaHukum--><g class="cluster" data-qualified-name="Sistem TanyaHukum" data-source-line="29" id="ent0009"><rect fill="none" height="2511" rx="2.5" ry="2.5" style="stroke:#181818;stroke-width:1;" width="245.16" x="607.77" y="44.2969"/><text fill="#000000" font-family="sans-serif" font-size="14" font-weight="700" lengthAdjust="spacing" textLength="161.9502" x="649.3749" y="59.292">Sistem TanyaHukum</text></g><!--cluster Autentikasi--><g class="cluster" data-qualified-name="Sistem TanyaHukum.Autentikasi" data-source-line="32" id="ent0010"><path d="M644.26,448.2969 L735.5969,448.2969 A3.75,3.75 0 0 1 738.0969,450.7969 L745.0969,470.5938 L816.44,470.5938 A2.5,2.5 0 0 1 818.94,473.0938 L818.94,938.7969 A2.5,2.5 0 0 1 816.44,941.2969 L644.26,941.2969 A2.5,2.5 0 0 1 641.76,938.7969 L641.76,450.7969 A2.5,2.5 0 0 1 644.26,448.2969" fill="none" style="stroke:#000000;stroke-width:1.5;"/><line style="stroke:#000000;stroke-width:1.5;" x1="641.76" x2="745.0969" y1="470.5938" y2="470.5938"/><text fill="#000000" font-family="sans-serif" font-size="14" font-weight="700" lengthAdjust="spacing" textLength="90.3369" x="645.76" y="463.292">Autentikasi</text></g><!--cluster Chatbot Hukum--><g class="cluster" data-qualified-name="Sistem TanyaHukum.Chatbot Hukum" data-source-line="42" id="ent0017"><path d="M634.27,87.2969 L758.4057,87.2969 A3.75,3.75 0 0 1 760.9057,89.7969 L767.9057,109.5938 L826.43,109.5938 A2.5,2.5 0 0 1 828.93,112.0938 L828.93,421.7969 A2.5,2.5 0 0 1 826.43,424.2969 L634.27,424.2969 A2.5,2.5 0 0 1 631.77,421.7969 L631.77,89.7969 A2.5,2.5 0 0 1 634.27,87.2969" fill="none" style="stroke:#000000;stroke-width:1.5;"/><line style="stroke:#000000;stroke-width:1.5;" x1="631.77" x2="767.9057" y1="109.5938" y2="109.5938"/><text fill="#000000" font-family="sans-serif" font-size="14" font-weight="700" lengthAdjust="spacing" textLength="123.1357" x="635.77" y="102.292">Chatbot Hukum</text></g><!--cluster Pusat Data Hukum--><g class="cluster" data-qualified-name="Sistem TanyaHukum.Pusat Data Hukum" data-source-line="50" id="ent0022"><path d="M639.76,965.2969 L787.9651,965.2969 A3.75,3.75 0 0 1 790.4651,967.7969 L797.4651,987.5938 L820.94,987.5938 A2.5,2.5 0 0 1 823.44,990.0938 L823.44,1198.7969 A2.5,2.5 0 0 1 820.94,1201.2969 L639.76,1201.2969 A2.5,2.5 0 0 1 637.26,1198.7969 L637.26,967.7969 A2.5,2.5 0 0 1 639.76,965.2969" fill="none" style="stroke:#000000;stroke-width:1.5;"/><line style="stroke:#000000;stroke-width:1.5;" x1="637.26" x2="797.4651" y1="987.5938" y2="987.5938"/><text fill="#000000" font-family="sans-serif" font-size="14" font-weight="700" lengthAdjust="spacing" textLength="147.2051" x="641.26" y="980.292">Pusat Data Hukum</text></g><!--cluster Dashboard--><g class="cluster" data-qualified-name="Sistem TanyaHukum.Dashboard" data-source-line="57" id="ent0026"><path d="M658.1,1471.2969 L744.4809,1471.2969 A3.75,3.75 0 0 1 746.9809,1473.7969 L753.9809,1493.5938 L802.59,1493.5938 A2.5,2.5 0 0 1 805.09,1496.0938 L805.09,1642.7969 A2.5,2.5 0 0 1 802.59,1645.2969 L658.1,1645.2969 A2.5,2.5 0 0 1 655.6,1642.7969 L655.6,1473.7969 A2.5,2.5 0 0 1 658.1,1471.2969" fill="none" style="stroke:#000000;stroke-width:1.5;"/><line style="stroke:#000000;stroke-width:1.5;" x1="655.6" x2="753.9809" y1="1493.5938" y2="1493.5938"/><text fill="#000000" font-family="sans-serif" font-size="14" font-weight="700" lengthAdjust="spacing" textLength="85.3809" x="659.6" y="1486.292">Dashboard</text></g><!--cluster Profil--><g class="cluster" data-qualified-name="Sistem TanyaHukum.Profil" data-source-line="63" id="ent0029"><path d="M646.79,1669.2969 L690.2617,1669.2969 A3.75,3.75 0 0 1 692.7617,1671.7969 L699.7617,1691.5938 L813.9,1691.5938 A2.5,2.5 0 0 1 816.4,1694.0938 L816.4,2070.7969 A2.5,2.5 0 0 1 813.9,2073.2969 L646.79,2073.2969 A2.5,2.5 0 0 1 644.29,2070.7969 L644.29,1671.7969 A2.5,2.5 0 0 1 646.79,1669.2969" fill="none" style="stroke:#000000;stroke-width:1.5;"/><line style="stroke:#000000;stroke-width:1.5;" x1="644.29" x2="699.7617" y1="1691.5938" y2="1691.5938"/><text fill="#000000" font-family="sans-serif" font-size="14" font-weight="700" lengthAdjust="spacing" textLength="42.4717" x="648.29" y="1684.292">Profil</text></g><!--cluster Pembayaran--><g class="cluster" data-qualified-name="Sistem TanyaHukum.Pembayaran" data-source-line="72" id="ent0035"><path d="M657.18,1225.2969 L756.8841,1225.2969 A3.75,3.75 0 0 1 759.3841,1227.7969 L766.3841,1247.5938 L803.52,1247.5938 A2.5,2.5 0 0 1 806.02,1250.0938 L806.02,1444.7969 A2.5,2.5 0 0 1 803.52,1447.2969 L657.18,1447.2969 A2.5,2.5 0 0 1 654.68,1444.7969 L654.68,1227.7969 A2.5,2.5 0 0 1 657.18,1225.2969" fill="none" style="stroke:#000000;stroke-width:1.5;"/><line style="stroke:#000000;stroke-width:1.5;" x1="654.68" x2="766.3841" y1="1247.5938" y2="1247.5938"/><text fill="#000000" font-family="sans-serif" font-size="14" font-weight="700" lengthAdjust="spacing" textLength="98.7041" x="658.68" y="1240.292">Pembayaran</text></g><!--cluster Admin Panel--><g class="cluster" data-qualified-name="Sistem TanyaHukum.Admin Panel" data-source-line="78" id="ent0038"><path d="M645.24,2097.2969 L745.2927,2097.2969 A3.75,3.75 0 0 1 747.7927,2099.7969 L754.7927,2119.5938 L815.45,2119.5938 A2.5,2.5 0 0 1 817.95,2122.0938 L817.95,2528.7969 A2.5,2.5 0 0 1 815.45,2531.2969 L645.24,2531.2969 A2.5,2.5 0 0 1 642.74,2528.7969 L642.74,2099.7969 A2.5,2.5 0 0 1 645.24,2097.2969" fill="none" style="stroke:#000000;stroke-width:1.5;"/><line style="stroke:#000000;stroke-width:1.5;" x1="642.74" x2="754.7927" y1="2119.5938" y2="2119.5938"/><text fill="#000000" font-family="sans-serif" font-size="14" font-weight="700" lengthAdjust="spacing" textLength="99.0527" x="646.74" y="2112.292">Admin Panel</text></g><!--entity UC01--><g class="entity" data-qualified-name="Sistem TanyaHukum.Autentikasi.UC01" data-source-line="33" id="ent0011"><ellipse cx="730.3454" cy="579.2951" fill="#EEF4FF" rx="59.3254" ry="19.2882" style="stroke:#2F6FED;stroke-width:0.5;"/><text fill="#000000" font-family="sans-serif" font-size="11" lengthAdjust="spacing" textLength="33.6982" x="713.4963" y="573.0574">UC-01</text><text fill="#000000" font-family="sans-serif" font-size="11" lengthAdjust="spacing" textLength="88.5586" x="686.0661" y="585.8621">Registrasi Email</text></g><!--entity UC02--><g class="entity" data-qualified-name="Sistem TanyaHukum.Autentikasi.UC02" data-source-line="34" id="ent0012"><ellipse cx="730.3488" cy="832.2925" fill="#EEF4FF" rx="44.2988" ry="19.5556" style="stroke:#2F6FED;stroke-width:0.5;"/><text fill="#000000" font-family="sans-serif" font-size="11" lengthAdjust="spacing" textLength="33.6982" x="713.4997" y="826.4821">UC-02</text><text fill="#000000" font-family="sans-serif" font-size="11" lengthAdjust="spacing" textLength="63.8838" x="698.4069" y="839.2867">Login Email</text></g><!--entity UC03--><g class="entity" data-qualified-name="Sistem TanyaHukum.Autentikasi.UC03" data-source-line="35" id="ent0013"><ellipse cx="730.3483" cy="906.2945" fill="#EEF4FF" rx="72.5883" ry="19.1876" style="stroke:#2F6FED;stroke-width:0.5;"/><text fill="#000000" font-family="sans-serif" font-size="11" lengthAdjust="spacing" textLength="33.6982" x="713.4992" y="899.8932">UC-03</text><text fill="#000000" font-family="sans-serif" font-size="11" lengthAdjust="spacing" textLength="110.0913" x="675.3027" y="912.6979">Login Google OAuth</text></g><!--entity UC04--><g class="entity" data-qualified-name="Sistem TanyaHukum.Autentikasi.UC04" data-source-line="36" id="ent0014"><ellipse cx="730.3538" cy="758.2997" fill="#EEF4FF" rx="55.5438" ry="19.3328" style="stroke:#2F6FED;stroke-width:0.5;"/><text fill="#000000" font-family="sans-serif" font-size="11" lengthAdjust="spacing" textLength="33.6982" x="713.5047" y="752.1341">UC-04</text><text fill="#000000" font-family="sans-serif" font-size="11" lengthAdjust="spacing" textLength="82.3872" x="689.1602" y="764.9388">Lupa Password</text></g><!--entity UC05--><g class="entity" data-qualified-name="Sistem TanyaHukum.Autentikasi.UC05" data-source-line="37" id="ent0015"><ellipse cx="730.3482" cy="653.2969" fill="#EEF4FF" rx="58.2382" ry="19.3" style="stroke:#2F6FED;stroke-width:0.5;"/><text fill="#000000" font-family="sans-serif" font-size="11" lengthAdjust="spacing" textLength="33.6982" x="713.4991" y="647.0784">UC-05</text><text fill="#000000" font-family="sans-serif" font-size="11" lengthAdjust="spacing" textLength="86.7861" x="686.9551" y="659.883">Reset Password</text></g><!--entity UC06--><g class="entity" data-qualified-name="Sistem TanyaHukum.Autentikasi.UC06" data-source-line="38" id="ent0016"><ellipse cx="730.3526" cy="504.3018" fill="#EEF4FF" rx="29.0826" ry="20.645" style="stroke:#2F6FED;stroke-width:0.5;"/><text fill="#000000" font-family="sans-serif" font-size="11" lengthAdjust="spacing" textLength="33.6982" x="713.5034" y="500.1373">UC-06</text><text fill="#000000" font-family="sans-serif" font-size="11" lengthAdjust="spacing" textLength="37.8555" x="711.4248" y="512.942">Logout</text></g><!--entity UC07--><g class="entity" data-qualified-name="Sistem TanyaHukum.Chatbot Hukum.UC07" data-source-line="43" id="ent0018"><ellipse cx="730.3488" cy="146.295" fill="#EEF4FF" rx="82.5788" ry="23.8182" style="stroke:#2F6FED;stroke-width:0.5;"/><text fill="#000000" font-family="sans-serif" font-size="11" lengthAdjust="spacing" textLength="33.6982" x="713.4997" y="135.2535">UC-07</text><text fill="#000000" font-family="sans-serif" font-size="11" lengthAdjust="spacing" textLength="146.8403" x="656.9287" y="148.0582">Ajukan Pertanyaan Hukum</text><text fill="#000000" font-family="sans-serif" font-size="11" lengthAdjust="spacing" textLength="79.0625" x="690.8176" y="160.8629">(RAG Pipeline)</text></g><!--entity UC08--><g class="entity" data-qualified-name="Sistem TanyaHukum.Chatbot Hukum.UC08" data-source-line="44" id="ent0019"><ellipse cx="730.352" cy="241.297" fill="#EEF4FF" rx="68.772" ry="19.2101" style="stroke:#2F6FED;stroke-width:0.5;"/><text fill="#000000" font-family="sans-serif" font-size="11" lengthAdjust="spacing" textLength="33.6982" x="713.5028" y="234.9325">UC-08</text><text fill="#000000" font-family="sans-serif" font-size="11" lengthAdjust="spacing" textLength="103.9092" x="678.3974" y="247.7372">Lihat Riwayat Chat</text></g><!--entity UC09--><g class="entity" data-qualified-name="Sistem TanyaHukum.Chatbot Hukum.UC09" data-source-line="45" id="ent0020"><ellipse cx="730.3527" cy="314.3007" fill="#EEF4FF" rx="69.7727" ry="19.2038" style="stroke:#2F6FED;stroke-width:0.5;"/><text fill="#000000" font-family="sans-serif" font-size="11" lengthAdjust="spacing" textLength="33.6982" x="713.5036" y="307.9259">UC-09</text><text fill="#000000" font-family="sans-serif" font-size="11" lengthAdjust="spacing" textLength="105.5313" x="677.5871" y="320.7306">Rename Judul Chat</text></g><!--entity UC10--><g class="entity" data-qualified-name="Sistem TanyaHukum.Chatbot Hukum.UC10" data-source-line="46" id="ent0021"><ellipse cx="730.3485" cy="388.2922" fill="#EEF4FF" rx="44.3085" ry="19.5554" style="stroke:#2F6FED;stroke-width:0.5;"/><text fill="#000000" font-family="sans-serif" font-size="11" lengthAdjust="spacing" textLength="33.6982" x="713.4994" y="382.4813">UC-10</text><text fill="#000000" font-family="sans-serif" font-size="11" lengthAdjust="spacing" textLength="63.8999" x="698.3986" y="395.286">Hapus Chat</text></g><!--entity UC11--><g class="entity" data-qualified-name="Sistem TanyaHukum.Pusat Data Hukum.UC11" data-source-line="51" id="ent0023"><ellipse cx="730.3504" cy="1019.2977" fill="#EEF4FF" rx="49.4804" ry="19.4308" style="stroke:#2F6FED;stroke-width:0.5;"/><text fill="#000000" font-family="sans-serif" font-size="11" lengthAdjust="spacing" textLength="33.6982" x="713.5013" y="1013.2891">UC-11</text><text fill="#000000" font-family="sans-serif" font-size="11" lengthAdjust="spacing" textLength="72.4453" x="694.1277" y="1026.0938">Cari Regulasi</text></g><!--entity UC12--><g class="entity" data-qualified-name="Sistem TanyaHukum.Pusat Data Hukum.UC12" data-source-line="52" id="ent0024"><ellipse cx="730.3493" cy="1093.2935" fill="#EEF4FF" rx="74.7293" ry="19.1766" style="stroke:#2F6FED;stroke-width:0.5;"/><text fill="#000000" font-family="sans-serif" font-size="11" lengthAdjust="spacing" textLength="33.6982" x="713.5001" y="1086.8742">UC-12</text><text fill="#000000" font-family="sans-serif" font-size="11" lengthAdjust="spacing" textLength="113.5557" x="673.5714" y="1099.6789">Lihat Detail Regulasi</text></g><!--entity UC13--><g class="entity" data-qualified-name="Sistem TanyaHukum.Pusat Data Hukum.UC13" data-source-line="53" id="ent0025"><ellipse cx="730.3477" cy="1166.2924" fill="#EEF4FF" rx="77.0877" ry="19.1656" style="stroke:#2F6FED;stroke-width:0.5;"/><text fill="#000000" font-family="sans-serif" font-size="11" lengthAdjust="spacing" textLength="33.6982" x="713.4986" y="1159.8552">UC-13</text><text fill="#000000" font-family="sans-serif" font-size="11" lengthAdjust="spacing" textLength="117.3691" x="671.6631" y="1172.6598">Unduh Dokumen PDF</text></g><!--entity UC14--><g class="entity" data-qualified-name="Sistem TanyaHukum.Dashboard.UC14" data-source-line="58" id="ent0027"><ellipse cx="730.348" cy="1604.3005" fill="#EEF4FF" rx="54.058" ry="24.6536" style="stroke:#2F6FED;stroke-width:0.5;"/><text fill="#000000" font-family="sans-serif" font-size="11" lengthAdjust="spacing" textLength="33.6982" x="713.4988" y="1593.1646">UC-14</text><text fill="#000000" font-family="sans-serif" font-size="11" lengthAdjust="spacing" textLength="90.5781" x="685.0589" y="1605.9693">Lihat Dashboard</text><text fill="#000000" font-family="sans-serif" font-size="11" lengthAdjust="spacing" textLength="56.9497" x="701.8731" y="1618.774">&amp; Statistik</text></g><!--entity UC15--><g class="entity" data-qualified-name="Sistem TanyaHukum.Dashboard.UC15" data-source-line="59" id="ent0028"><ellipse cx="730.3455" cy="1525.3013" fill="#EEF4FF" rx="58.7455" ry="19.2944" style="stroke:#2F6FED;stroke-width:0.5;"/><text fill="#000000" font-family="sans-serif" font-size="11" lengthAdjust="spacing" textLength="33.6982" x="713.4963" y="1519.0737">UC-15</text><text fill="#000000" font-family="sans-serif" font-size="11" lengthAdjust="spacing" textLength="87.6133" x="686.5388" y="1531.8784">Lihat Isu Terkini</text></g><!--entity UC16--><g class="entity" data-qualified-name="Sistem TanyaHukum.Profil.UC16" data-source-line="64" id="ent0030"><ellipse cx="730.354" cy="1724.3" fill="#EEF4FF" rx="41.114" ry="19.6631" style="stroke:#2F6FED;stroke-width:0.5;"/><text fill="#000000" font-family="sans-serif" font-size="11" lengthAdjust="spacing" textLength="33.6982" x="713.5049" y="1718.6582">UC-16</text><text fill="#000000" font-family="sans-serif" font-size="11" lengthAdjust="spacing" textLength="58.5771" x="701.0654" y="1731.4629">Lihat Profil</text></g><!--entity UC17--><g class="entity" data-qualified-name="Sistem TanyaHukum.Profil.UC17" data-source-line="65" id="ent0031"><ellipse cx="730.3524" cy="2037.3017" fill="#EEF4FF" rx="37.6024" ry="19.8248" style="stroke:#2F6FED;stroke-width:0.5;"/><text fill="#000000" font-family="sans-serif" font-size="11" lengthAdjust="spacing" textLength="33.6982" x="713.5032" y="2031.9109">UC-17</text><text fill="#000000" font-family="sans-serif" font-size="11" lengthAdjust="spacing" textLength="52.6689" x="704.0179" y="2044.7156">Edit Profil</text></g><!--entity UC18--><g class="entity" data-qualified-name="Sistem TanyaHukum.Profil.UC18" data-source-line="66" id="ent0032"><ellipse cx="730.3473" cy="1946.2983" fill="#EEF4FF" rx="57.2473" ry="19.3115" style="stroke:#2F6FED;stroke-width:0.5;"/><text fill="#000000" font-family="sans-serif" font-size="11" lengthAdjust="spacing" textLength="33.6982" x="713.4981" y="1940.0983">UC-18</text><text fill="#000000" font-family="sans-serif" font-size="11" lengthAdjust="spacing" textLength="85.1694" x="687.7625" y="1952.903">Ganti Password</text></g><!--entity UC19--><g class="entity" data-qualified-name="Sistem TanyaHukum.Profil.UC19" data-source-line="67" id="ent0033"><ellipse cx="730.3545" cy="1798.299" fill="#EEF4FF" rx="70.0545" ry="19.2021" style="stroke:#2F6FED;stroke-width:0.5;"/><text fill="#000000" font-family="sans-serif" font-size="11" lengthAdjust="spacing" textLength="33.6982" x="713.5054" y="1791.9214">UC-19</text><text fill="#000000" font-family="sans-serif" font-size="11" lengthAdjust="spacing" textLength="105.9878" x="677.3606" y="1804.7261">Upload Foto Avatar</text></g><!--entity UC20--><g class="entity" data-qualified-name="Sistem TanyaHukum.Profil.UC20" data-source-line="68" id="ent0034"><ellipse cx="730.3547" cy="1872.2964" fill="#EEF4FF" rx="45.5947" ry="19.5196" style="stroke:#2F6FED;stroke-width:0.5;"/><text fill="#000000" font-family="sans-serif" font-size="11" lengthAdjust="spacing" textLength="33.6982" x="713.5055" y="1866.429">UC-20</text><text fill="#000000" font-family="sans-serif" font-size="11" lengthAdjust="spacing" textLength="66.0322" x="697.3386" y="1879.2336">Hapus Akun</text></g><!--entity UC21--><g class="entity" data-qualified-name="Sistem TanyaHukum.Pembayaran.UC21" data-source-line="73" id="ent0036"><ellipse cx="730.3527" cy="1287.3007" fill="#EEF4FF" rx="59.6727" ry="27.1638" style="stroke:#2F6FED;stroke-width:0.5;"/><text fill="#000000" font-family="sans-serif" font-size="11" lengthAdjust="spacing" textLength="33.6982" x="713.5036" y="1273.5342">UC-21</text><text fill="#000000" font-family="sans-serif" font-size="11" lengthAdjust="spacing" textLength="90.0947" x="685.3054" y="1286.3389">Upgrade ke PRO</text><text fill="#000000" font-family="sans-serif" font-size="11" lengthAdjust="spacing" textLength="87.5649" x="686.5702" y="1299.1436">(Midtrans Snap)</text></g><!--entity UC22--><g class="entity" data-qualified-name="Sistem TanyaHukum.Pembayaran.UC22" data-source-line="74" id="ent0037"><ellipse cx="730.346" cy="1406.3014" fill="#EEF4FF" rx="57.196" ry="25.3445" style="stroke:#2F6FED;stroke-width:0.5;"/><text fill="#000000" font-family="sans-serif" font-size="11" lengthAdjust="spacing" textLength="33.6982" x="713.4969" y="1394.3688">UC-22</text><text fill="#000000" font-family="sans-serif" font-size="11" lengthAdjust="spacing" textLength="93.1724" x="683.7598" y="1407.1735">Terima Notifikasi</text><text fill="#000000" font-family="sans-serif" font-size="11" lengthAdjust="spacing" textLength="69.3247" x="695.6836" y="1419.9782">Pembayaran</text></g><!--entity UC23--><g class="entity" data-qualified-name="Sistem TanyaHukum.Admin Panel.UC23" data-source-line="79" id="ent0039"><ellipse cx="730.3536" cy="2488.2984" fill="#EEF4FF" rx="61.3836" ry="27.4015" style="stroke:#2F6FED;stroke-width:0.5;"/><text fill="#000000" font-family="sans-serif" font-size="11" lengthAdjust="spacing" textLength="33.6982" x="713.5044" y="2474.2398">UC-23</text><text fill="#000000" font-family="sans-serif" font-size="11" lengthAdjust="spacing" textLength="90.5781" x="685.0645" y="2487.0445">Lihat Dashboard</text><text fill="#000000" font-family="sans-serif" font-size="11" lengthAdjust="spacing" textLength="91.9102" x="684.3985" y="2499.8492">Admin &amp; Analitik</text></g><!--entity UC24--><g class="entity" data-qualified-name="Sistem TanyaHukum.Admin Panel.UC24" data-source-line="80" id="ent0040"><ellipse cx="730.3537" cy="2156.2952" fill="#EEF4FF" rx="52.6637" ry="23.7183" style="stroke:#2F6FED;stroke-width:0.5;"/><text fill="#000000" font-family="sans-serif" font-size="11" lengthAdjust="spacing" textLength="33.6982" x="713.5046" y="2146.1103">UC-24</text><text fill="#000000" font-family="sans-serif" font-size="11" lengthAdjust="spacing" textLength="92.082" x="684.3127" y="2158.915">Kelola Pengguna</text><text fill="#000000" font-family="sans-serif" font-size="11" lengthAdjust="spacing" textLength="40.4282" x="710.1396" y="2171.7197">(CRUD)</text></g><!--entity UC25--><g class="entity" data-qualified-name="Sistem TanyaHukum.Admin Panel.UC25" data-source-line="81" id="ent0041"><ellipse cx="730.3548" cy="2242.3016" fill="#EEF4FF" rx="63.3948" ry="27.3747" style="stroke:#2F6FED;stroke-width:0.5;"/><text fill="#000000" font-family="sans-serif" font-size="11" lengthAdjust="spacing" textLength="33.6982" x="713.5057" y="2228.1993">UC-25</text><text fill="#000000" font-family="sans-serif" font-size="11" lengthAdjust="spacing" textLength="84.0093" x="688.3502" y="2241.004">Kelola Regulasi</text><text fill="#000000" font-family="sans-serif" font-size="11" lengthAdjust="spacing" textLength="95.1812" x="682.7642" y="2253.8087">(CRUD + Upload)</text></g><!--entity UC26--><g class="entity" data-qualified-name="Sistem TanyaHukum.Admin Panel.UC26" data-source-line="82" id="ent0042"><ellipse cx="730.3486" cy="2328.2972" fill="#EEF4FF" rx="53.5386" ry="23.6603" style="stroke:#2F6FED;stroke-width:0.5;"/><text fill="#000000" font-family="sans-serif" font-size="11" lengthAdjust="spacing" textLength="33.6982" x="713.4995" y="2318.1236">UC-26</text><text fill="#000000" font-family="sans-serif" font-size="11" lengthAdjust="spacing" textLength="93.9673" x="683.365" y="2330.9283">Kelola Isu Terkini</text><text fill="#000000" font-family="sans-serif" font-size="11" lengthAdjust="spacing" textLength="40.4282" x="710.1345" y="2343.7329">(CRUD)</text></g><!--entity UC27--><g class="entity" data-qualified-name="Sistem TanyaHukum.Admin Panel.UC27" data-source-line="83" id="ent0043"><ellipse cx="730.353" cy="2406.2999" fill="#EEF4FF" rx="71.603" ry="19.193" style="stroke:#2F6FED;stroke-width:0.5;"/><text fill="#000000" font-family="sans-serif" font-size="11" lengthAdjust="spacing" textLength="33.6982" x="713.5039" y="2399.9075">UC-27</text><text fill="#000000" font-family="sans-serif" font-size="11" lengthAdjust="spacing" textLength="108.4961" x="676.105" y="2412.7122">Lihat Log Pencarian</text></g><!--entity GUEST--><g class="entity" data-qualified-name="GUEST" data-source-line="18" id="ent0001"><ellipse cx="400.4107" cy="797.9969" fill="#FDEBD0" rx="8" ry="8" style="stroke:#E67E22;stroke-width:0.5;"/><path d="M400.4107,805.9969 L400.4107,832.9969 M387.4107,813.9969 L413.4107,813.9969 M400.4107,832.9969 L387.4107,847.9969 M400.4107,832.9969 L413.4107,847.9969" fill="none" style="stroke:#E67E22;stroke-width:0.5;"/><text fill="#000000" font-family="sans-serif" font-size="11" lengthAdjust="spacing" textLength="55.0215" x="372.9" y="859.7073">Pengguna</text><text fill="#000000" font-family="sans-serif" font-size="11" lengthAdjust="spacing" textLength="40.8901" x="372.9" y="872.512">(Guest)</text></g><!--entity FREE--><g class="entity" data-qualified-name="FREE" data-source-line="19" id="ent0002"><ellipse cx="149.5307" cy="1083.9969" fill="#FDEBD0" rx="8" ry="8" style="stroke:#E67E22;stroke-width:0.5;"/><path d="M149.5307,1091.9969 L149.5307,1118.9969 M136.5307,1099.9969 L162.5307,1099.9969 M149.5307,1118.9969 L136.5307,1133.9969 M149.5307,1118.9969 L162.5307,1133.9969" fill="none" style="stroke:#E67E22;stroke-width:0.5;"/><text fill="#000000" font-family="sans-serif" font-size="11" lengthAdjust="spacing" textLength="55.0215" x="122.02" y="1145.7073">Pengguna</text><text fill="#000000" font-family="sans-serif" font-size="11" lengthAdjust="spacing" textLength="36.4536" x="122.02" y="1158.512">(FREE)</text></g><!--entity PRO--><g class="entity" data-qualified-name="PRO" data-source-line="20" id="ent0003"><ellipse cx="33.5107" cy="598.9969" fill="#FDEBD0" rx="8" ry="8" style="stroke:#E67E22;stroke-width:0.5;"/><path d="M33.5107,606.9969 L33.5107,633.9969 M20.5107,614.9969 L46.5107,614.9969 M33.5107,633.9969 L20.5107,648.9969 M33.5107,633.9969 L46.5107,648.9969" fill="none" style="stroke:#E67E22;stroke-width:0.5;"/><text fill="#000000" font-family="sans-serif" font-size="11" lengthAdjust="spacing" textLength="55.0215" x="6" y="660.7073">Pengguna</text><text fill="#000000" font-family="sans-serif" font-size="11" lengthAdjust="spacing" textLength="31.5176" x="6" y="673.512">(PRO)</text></g><!--entity ADMIN--><g class="entity" data-qualified-name="ADMIN" data-source-line="21" id="ent0004"><ellipse cx="400.4052" cy="2300.3969" fill="#FDEBD0" rx="8" ry="8" style="stroke:#E67E22;stroke-width:0.5;"/><path d="M400.4052,2308.3969 L400.4052,2335.3969 M387.4052,2316.3969 L413.4052,2316.3969 M400.4052,2335.3969 L387.4052,2350.3969 M400.4052,2335.3969 L413.4052,2350.3969" fill="none" style="stroke:#E67E22;stroke-width:0.5;"/><text fill="#000000" font-family="sans-serif" font-size="11" lengthAdjust="spacing" textLength="35.2505" x="382.78" y="2362.1073">Admin</text></g><!--entity GOOGLE--><g class="entity" data-qualified-name="GOOGLE" data-source-line="22" id="ent0005"><ellipse cx="400.403" cy="931.3916" fill="#FDEBD0" rx="8" ry="8" style="stroke:#E67E22;stroke-width:0.5;"/><path d="M400.403,939.3916 L400.403,966.3916 M387.403,947.3916 L413.403,947.3916 M400.403,966.3916 L387.403,981.3916 M400.403,966.3916 L413.403,981.3916" fill="none" style="stroke:#E67E22;stroke-width:0.5;"/><text fill="#000000" font-family="sans-serif" font-size="11" lengthAdjust="spacing" textLength="76.7261" x="362.04" y="993.102">Google OAuth</text><text fill="#000000" font-family="sans-serif" font-size="11" lengthAdjust="spacing" textLength="36.0723" x="362.04" y="1005.9067">Server</text><text fill="#000000" font-family="sans-serif" font-size="11" font-style="italic" lengthAdjust="spacing" textLength="53.2275" x="373.7893" y="920.2973">&#171;system&#187;</text></g><!--entity MIDTRANS--><g class="entity" data-qualified-name="MIDTRANS" data-source-line="23" id="ent0006"><ellipse cx="400.4038" cy="1378.3916" fill="#FDEBD0" rx="8" ry="8" style="stroke:#E67E22;stroke-width:0.5;"/><path d="M400.4038,1386.3916 L400.4038,1413.3916 M387.4038,1394.3916 L413.4038,1394.3916 M400.4038,1413.3916 L387.4038,1428.3916 M400.4038,1413.3916 L413.4038,1428.3916" fill="none" style="stroke:#E67E22;stroke-width:0.5;"/><text fill="#000000" font-family="sans-serif" font-size="11" lengthAdjust="spacing" textLength="47.8081" x="376.1076" y="1440.102">Midtrans</text><text fill="#000000" font-family="sans-serif" font-size="11" lengthAdjust="spacing" textLength="48.5923" x="376.1076" y="1452.9067">Gateway</text><text fill="#000000" font-family="sans-serif" font-size="11" font-style="italic" lengthAdjust="spacing" textLength="53.2275" x="373.79" y="1367.2973">&#171;system&#187;</text></g><!--link FREE to GUEST--><g class="link" data-entity-1="ent0002" data-entity-2="ent0001" data-link-type="extension" data-source-line="25" id="lnk7"><path d="M177.4,1087.4169 C225.29,1032.3869 313.0237,931.5654 360.8337,876.6254" fill="none" id="FREE-to-GUEST" style="stroke:#2C3E50;stroke-width:1;"/><polygon fill="none" points="372.65,863.0469,356.3075,872.6866,365.3599,880.5641,372.65,863.0469" style="stroke:#2C3E50;stroke-width:1;stroke-linejoin:miter;stroke-miterlimit:10;"/></g><!--link PRO to FREE--><g class="link" data-entity-1="ent0003" data-entity-2="ent0002" data-link-type="extension" data-source-line="26" id="lnk8"><path d="M44.63,676.3369 C66.24,768.2569 112.5713,965.3344 134.2313,1057.4844" fill="none" id="PRO-to-FREE" style="stroke:#2C3E50;stroke-width:1;"/><polygon fill="none" points="138.35,1075.0069,140.0721,1056.1115,128.3905,1058.8573,138.35,1075.0069" style="stroke:#2C3E50;stroke-width:1;stroke-linejoin:miter;stroke-miterlimit:10;"/></g><!--link GUEST to UC01--><g class="link" data-entity-1="ent0001" data-entity-2="ent0011" data-link-type="dependency" data-source-line="88" id="lnk44"><path d="M419.77,789.0669 C431.5,764.5669 448.35,734.3169 468.77,711.2969 C516.5,657.4969 535.1,647.7569 599.77,616.2969 C624.7,604.1669 649.4513,596.517 674.0713,590.537" fill="none" id="GUEST-to-UC01" style="stroke:#2C3E50;stroke-width:1;"/><polygon fill="#2C3E50" points="678.93,589.3569,669.2402,587.5942,674.0713,590.537,671.1284,595.3681,678.93,589.3569" style="stroke:#2C3E50;stroke-width:1;stroke-linejoin:miter;stroke-miterlimit:10;"/></g><!--link GUEST to UC02--><g class="link" data-entity-1="ent0001" data-entity-2="ent0012" data-link-type="dependency" data-source-line="89" id="lnk45"><path d="M428.24,832.2969 C484.84,832.2969 611.88,832.2969 680.77,832.2969" fill="none" id="GUEST-to-UC02" style="stroke:#2C3E50;stroke-width:1;"/><polygon fill="#2C3E50" points="685.77,832.2969,676.77,828.2969,680.77,832.2969,676.77,836.2969,685.77,832.2969" style="stroke:#2C3E50;stroke-width:1;stroke-linejoin:miter;stroke-miterlimit:10;"/></g><!--link GUEST to UC03--><g class="link" data-entity-1="ent0001" data-entity-2="ent0013" data-link-type="dependency" data-source-line="90" id="lnk46"><path d="M428.37,860.7269 C439.79,870.9369 453.9,881.3769 468.77,887.2969 C530.51,911.8669 601.9242,914.741 656.0042,912.531" fill="none" id="GUEST-to-UC03" style="stroke:#2C3E50;stroke-width:1;"/><polygon fill="#2C3E50" points="661,912.3269,651.8442,908.6977,656.0042,912.531,652.1708,916.691,661,912.3269" style="stroke:#2C3E50;stroke-width:1;stroke-linejoin:miter;stroke-miterlimit:10;"/></g><!--link GUEST to UC04--><g class="link" data-entity-1="ent0001" data-entity-2="ent0014" data-link-type="dependency" data-source-line="91" id="lnk47"><path d="M428.22,820.6269 C440.41,815.6669 455.14,810.1469 468.77,806.2969 C540.04,786.1669 619.7789,773.0742 672.8189,765.6042" fill="none" id="GUEST-to-UC04" style="stroke:#2C3E50;stroke-width:1;"/><polygon fill="#2C3E50" points="677.77,764.9069,668.3001,762.2011,672.8189,765.6042,669.4158,770.1229,677.77,764.9069" style="stroke:#2C3E50;stroke-width:1;stroke-linejoin:miter;stroke-miterlimit:10;"/></g><!--link GUEST to UC05--><g class="link" data-entity-1="ent0001" data-entity-2="ent0015" data-link-type="dependency" data-source-line="92" id="lnk48"><path d="M428.29,802.0369 C439.92,790.1569 454.18,777.0569 468.77,767.2969 C539.75,719.7669 629.059,686.0052 682.579,668.0752" fill="none" id="GUEST-to-UC05" style="stroke:#2C3E50;stroke-width:1;"/><polygon fill="#2C3E50" points="687.32,666.4869,677.5155,665.553,682.579,668.0752,680.0568,673.1387,687.32,666.4869" style="stroke:#2C3E50;stroke-width:1;stroke-linejoin:miter;stroke-miterlimit:10;"/></g><!--link GUEST to UC11--><g class="link" data-entity-1="ent0001" data-entity-2="ent0023" data-link-type="dependency" data-source-line="93" id="lnk49"><path d="M428.38,873.3469 C432.07,879.5869 435.65,886.0369 438.77,892.2969 C455.33,925.5469 440.24,946.5169 468.77,970.2969 C528.97,1020.4669 619.3537,1025.7692 676.4937,1023.5692" fill="none" id="GUEST-to-UC11" style="stroke:#2C3E50;stroke-width:1;"/><polygon fill="#2C3E50" points="681.49,1023.3769,672.3428,1019.7261,676.4937,1023.5692,672.6506,1027.7202,681.49,1023.3769" style="stroke:#2C3E50;stroke-width:1;stroke-linejoin:miter;stroke-miterlimit:10;"/></g><!--link GUEST to UC12--><g class="link" data-entity-1="ent0001" data-entity-2="ent0024" data-link-type="dependency" data-source-line="94" id="lnk50"><path d="M428.29,871.3169 C432.21,878.1069 435.89,885.2569 438.77,892.2969 C461.89,948.7769 426.3,982.4669 468.77,1026.2969 C516.96,1076.0269 591.7288,1090.3305 650.3388,1093.8105" fill="none" id="GUEST-to-UC12" style="stroke:#2C3E50;stroke-width:1;"/><polygon fill="#2C3E50" points="655.33,1094.1069,646.5829,1089.5805,650.3388,1093.8105,646.1087,1097.5664,655.33,1094.1069" style="stroke:#2C3E50;stroke-width:1;stroke-linejoin:miter;stroke-miterlimit:10;"/></g><!--link GUEST to UC13--><g class="link" data-entity-1="ent0001" data-entity-2="ent0025" data-link-type="dependency" data-source-line="95" id="lnk51"><path d="M428.36,870.4869 C432.37,877.4869 436.06,884.9269 438.77,892.2969 C470.08,977.4869 408.63,1026.3169 468.77,1094.2969 C514.56,1146.0569 588.903,1161.7359 648.033,1166.0159" fill="none" id="GUEST-to-UC13" style="stroke:#2C3E50;stroke-width:1;"/><polygon fill="#2C3E50" points="653.02,1166.3769,644.3323,1161.7376,648.033,1166.0159,643.7547,1169.7167,653.02,1166.3769" style="stroke:#2C3E50;stroke-width:1;stroke-linejoin:miter;stroke-miterlimit:10;"/></g><!--link FREE to UC06--><g class="link" data-entity-1="ent0002" data-entity-2="ent0016" data-link-type="dependency" data-source-line="99" id="lnk52"><path d="M161.17,1075.1769 C170.47,1041.6969 185.83,994.8169 207.04,957.2969 C296.81,798.5569 336.98,767.3369 468.77,641.2969 C521.51,590.8569 534.58,575.0969 599.77,542.2969 C632.96,525.5969 669.8256,516.0293 696.8256,510.3893" fill="none" id="FREE-to-UC06" style="stroke:#2C3E50;stroke-width:1;"/><polygon fill="#2C3E50" points="701.72,509.3669,692.0923,507.2917,696.8256,510.3893,693.7281,515.1226,701.72,509.3669" style="stroke:#2C3E50;stroke-width:1;stroke-linejoin:miter;stroke-miterlimit:10;"/></g><!--link FREE to UC07--><g class="link" data-entity-1="ent0002" data-entity-2="ent0018" data-link-type="dependency" data-source-line="100" id="lnk53"><path d="M150.85,1075.2669 C152.31,955.3269 160.56,619.6569 207.04,521.2969 C301.49,321.4669 557.5899,208.1497 670.9199,166.2797" fill="none" id="FREE-to-UC07" style="stroke:#2C3E50;stroke-width:1;"/><polygon fill="#2C3E50" points="675.61,164.5469,665.7815,163.9138,670.9199,166.2797,668.554,171.418,675.61,164.5469" style="stroke:#2C3E50;stroke-width:1;stroke-linejoin:miter;stroke-miterlimit:10;"/></g><!--link FREE to UC08--><g class="link" data-entity-1="ent0002" data-entity-2="ent0019" data-link-type="dependency" data-source-line="101" id="lnk54"><path d="M152.01,1075.2069 C156.1,972.7169 169.83,717.3169 207.04,641.2969 C311.68,427.5469 388.2,386.2769 599.77,277.2969 C622.19,265.7469 643.8908,258.7151 667.1108,253.0851" fill="none" id="FREE-to-UC08" style="stroke:#2C3E50;stroke-width:1;"/><polygon fill="#2C3E50" points="671.97,251.9069,662.2809,250.1402,667.1108,253.0851,664.166,257.915,671.97,251.9069" style="stroke:#2C3E50;stroke-width:1;stroke-linejoin:miter;stroke-miterlimit:10;"/></g><!--link FREE to UC09--><g class="link" data-entity-1="ent0002" data-entity-2="ent0020" data-link-type="dependency" data-source-line="102" id="lnk55"><path d="M153.38,1075.1469 C159.72,987.6069 176.86,792.4069 207.04,733.2969 C224.77,698.5869 534.64,388.9869 599.77,351.2969 C621.44,338.7569 642.7735,331.4263 665.9235,325.7563" fill="none" id="FREE-to-UC09" style="stroke:#2C3E50;stroke-width:1;"/><polygon fill="#2C3E50" points="670.78,324.5669,661.0868,322.8227,665.9235,325.7563,662.9899,330.5931,670.78,324.5669" style="stroke:#2C3E50;stroke-width:1;stroke-linejoin:miter;stroke-miterlimit:10;"/></g><!--link FREE to UC10--><g class="link" data-entity-1="ent0002" data-entity-2="ent0021" data-link-type="dependency" data-source-line="103" id="lnk56"><path d="M152.03,1075.1769 C155.58,1018.6869 167.46,917.9169 207.04,842.2969 C325.86,615.3069 604.7322,453.7986 696.0422,405.3986" fill="none" id="FREE-to-UC10" style="stroke:#2C3E50;stroke-width:1;"/><polygon fill="#2C3E50" points="700.46,403.0569,690.6347,403.7377,696.0422,405.3986,694.3814,410.8061,700.46,403.0569" style="stroke:#2C3E50;stroke-width:1;stroke-linejoin:miter;stroke-miterlimit:10;"/></g><!--link FREE to UC14--><g class="link" data-entity-1="ent0002" data-entity-2="ent0027" data-link-type="dependency" data-source-line="104" id="lnk57"><path d="M165.35,1161.5369 C192.81,1235.5069 258.39,1386.7269 362.04,1473.2969 C387.73,1494.7569 588.1332,1559.7177 680.1732,1588.8577" fill="none" id="FREE-to-UC14" style="stroke:#2C3E50;stroke-width:1;"/><polygon fill="#2C3E50" points="684.94,1590.3669,677.5671,1583.8369,680.1732,1588.8577,675.1524,1591.4638,684.94,1590.3669" style="stroke:#2C3E50;stroke-width:1;stroke-linejoin:miter;stroke-miterlimit:10;"/></g><!--link FREE to UC16--><g class="link" data-entity-1="ent0002" data-entity-2="ent0030" data-link-type="dependency" data-source-line="105" id="lnk58"><path d="M153.01,1161.3669 C158.35,1240.8969 173.29,1406.8569 207.04,1452.2969 C320.86,1605.5569 423.91,1552.3669 591.77,1643.2969 C631.74,1664.9469 672.6944,1689.4882 700.0344,1706.2082" fill="none" id="FREE-to-UC16" style="stroke:#2C3E50;stroke-width:1;"/><polygon fill="#2C3E50" points="704.3,1708.8169,698.7089,1700.7089,700.0344,1706.2082,694.5351,1707.5338,704.3,1708.8169" style="stroke:#2C3E50;stroke-width:1;stroke-linejoin:miter;stroke-miterlimit:10;"/></g><!--link FREE to UC17--><g class="link" data-entity-1="ent0002" data-entity-2="ent0031" data-link-type="dependency" data-source-line="106" id="lnk59"><path d="M150.97,1161.4369 C152.89,1313.4769 162.6,1818.3669 207.04,1874.2969 C329.22,2028.0569 589.7304,2039.8373 687.3604,2038.6573" fill="none" id="FREE-to-UC17" style="stroke:#2C3E50;stroke-width:1;"/><polygon fill="#2C3E50" points="692.36,2038.5969,683.3123,2034.7059,687.3604,2038.6573,683.409,2042.7054,692.36,2038.5969" style="stroke:#2C3E50;stroke-width:1;stroke-linejoin:miter;stroke-miterlimit:10;"/></g><!--link FREE to UC18--><g class="link" data-entity-1="ent0002" data-entity-2="ent0032" data-link-type="dependency" data-source-line="107" id="lnk60"><path d="M151.61,1161.1669 C155.42,1298.3269 170.06,1720.2869 207.04,1768.2969 C320.61,1915.7169 557.5534,1941.7126 667.6634,1945.7726" fill="none" id="FREE-to-UC18" style="stroke:#2C3E50;stroke-width:1;"/><polygon fill="#2C3E50" points="672.66,1945.9569,663.8135,1941.628,667.6634,1945.7726,663.5187,1949.6225,672.66,1945.9569" style="stroke:#2C3E50;stroke-width:1;stroke-linejoin:miter;stroke-miterlimit:10;"/></g><!--link FREE to UC19--><g class="link" data-entity-1="ent0002" data-entity-2="ent0033" data-link-type="dependency" data-source-line="108" id="lnk61"><path d="M150.77,1161.2769 C152.13,1260.1569 160.3,1500.1569 207.04,1563.2969 C318.59,1713.9769 466.89,1596.4569 591.77,1736.2969 C599.54,1744.9969 591.39,1753.1769 599.77,1761.2969 C616.82,1777.8169 635.8436,1785.9519 658.4836,1791.0819" fill="none" id="FREE-to-UC19" style="stroke:#2C3E50;stroke-width:1;"/><polygon fill="#2C3E50" points="663.36,1792.1869,655.4665,1786.2969,658.4836,1791.0819,653.6986,1794.0991,663.36,1792.1869" style="stroke:#2C3E50;stroke-width:1;stroke-linejoin:miter;stroke-miterlimit:10;"/></g><!--link FREE to UC20--><g class="link" data-entity-1="ent0002" data-entity-2="ent0034" data-link-type="dependency" data-source-line="109" id="lnk62"><path d="M149.78,1161.2769 C148.64,1273.8169 151.04,1573.8669 207.04,1652.2969 C318.94,1809.0069 419.35,1767.9869 599.77,1835.2969 C629.47,1846.3769 659.1882,1854.8491 685.1482,1861.5391" fill="none" id="FREE-to-UC20" style="stroke:#2C3E50;stroke-width:1;"/><polygon fill="#2C3E50" points="689.99,1862.7869,682.2729,1856.6675,685.1482,1861.5391,680.2765,1864.4144,689.99,1862.7869" style="stroke:#2C3E50;stroke-width:1;stroke-linejoin:miter;stroke-miterlimit:10;"/></g><!--link FREE to UC21--><g class="link" data-entity-1="ent0002" data-entity-2="ent0036" data-link-type="dependency" data-source-line="110" id="lnk63"><path d="M177.29,1126.1069 C267.45,1152.4369 556.2804,1236.7654 674.5304,1271.2954" fill="none" id="FREE-to-UC21" style="stroke:#2C3E50;stroke-width:1;"/><polygon fill="#2C3E50" points="679.33,1272.6969,671.812,1266.3345,674.5304,1271.2954,669.5696,1274.0138,679.33,1272.6969" style="stroke:#2C3E50;stroke-width:1;stroke-linejoin:miter;stroke-miterlimit:10;"/></g><!--link PRO to UC07--><g class="link" data-entity-1="ent0003" data-entity-2="ent0018" data-link-type="dependency" data-source-line="113" id="lnk64"><path d="M61.39,591.2169 C121.59,501.1969 277.13,291.0469 468.77,204.2969 C527.56,177.6869 594.5449,163.596 647.9349,155.616" fill="none" id="PRO-to-UC07" style="stroke:#2C3E50;stroke-width:1;"/><polygon fill="#2C3E50" points="652.88,154.8769,643.3876,152.2512,647.9349,155.616,644.5702,160.1633,652.88,154.8769" style="stroke:#2C3E50;stroke-width:1;stroke-linejoin:miter;stroke-miterlimit:10;"/><text fill="#000000" font-family="sans-serif" font-size="13" lengthAdjust="spacing" textLength="123.208" x="208.04" y="288.3638">tanpa batas harian</text></g><!--link ADMIN to UC23--><g class="link" data-entity-1="ent0004" data-entity-2="ent0039" data-link-type="dependency" data-source-line="116" id="lnk65"><path d="M418.47,2342.6869 C431.71,2353.4769 450.77,2368.2369 468.77,2379.2969 C537.49,2421.5469 620.7497,2452.9163 674.8697,2471.0763" fill="none" id="ADMIN-to-UC23" style="stroke:#2C3E50;stroke-width:1;"/><polygon fill="#2C3E50" points="679.61,2472.6669,672.35,2466.0116,674.8697,2471.0763,669.8051,2473.596,679.61,2472.6669" style="stroke:#2C3E50;stroke-width:1;stroke-linejoin:miter;stroke-miterlimit:10;"/></g><!--link ADMIN to UC24--><g class="link" data-entity-1="ent0004" data-entity-2="ent0040" data-link-type="dependency" data-source-line="117" id="lnk66"><path d="M418.42,2307.6869 C431.19,2293.1469 449.69,2273.8969 468.77,2260.2969 C536,2212.3769 623.6139,2183.634 678.4039,2168.794" fill="none" id="ADMIN-to-UC24" style="stroke:#2C3E50;stroke-width:1;"/><polygon fill="#2C3E50" points="683.23,2167.4869,673.4973,2165.9789,678.4039,2168.794,675.5887,2173.7007,683.23,2167.4869" style="stroke:#2C3E50;stroke-width:1;stroke-linejoin:miter;stroke-miterlimit:10;"/></g><!--link ADMIN to UC25--><g class="link" data-entity-1="ent0004" data-entity-2="ent0041" data-link-type="dependency" data-source-line="118" id="lnk67"><path d="M418.34,2320.9869 C431.82,2315.3569 451.27,2307.6569 468.77,2302.2969 C537.46,2281.2469 613.4158,2264.7009 666.6358,2254.1309" fill="none" id="ADMIN-to-UC25" style="stroke:#2C3E50;stroke-width:1;"/><polygon fill="#2C3E50" points="671.54,2253.1569,661.9332,2250.9867,666.6358,2254.1309,663.4916,2258.8335,671.54,2253.1569" style="stroke:#2C3E50;stroke-width:1;stroke-linejoin:miter;stroke-miterlimit:10;"/></g><!--link ADMIN to UC26--><g class="link" data-entity-1="ent0004" data-entity-2="ent0042" data-link-type="dependency" data-source-line="119" id="lnk68"><path d="M418.12,2328.2969 C465.24,2328.2969 595.63,2328.2969 671.4,2328.2969" fill="none" id="ADMIN-to-UC26" style="stroke:#2C3E50;stroke-width:1;"/><polygon fill="#2C3E50" points="676.4,2328.2969,667.4,2324.2969,671.4,2328.2969,667.4,2332.2969,676.4,2328.2969" style="stroke:#2C3E50;stroke-width:1;stroke-linejoin:miter;stroke-miterlimit:10;"/></g><!--link ADMIN to UC27--><g class="link" data-entity-1="ent0004" data-entity-2="ent0043" data-link-type="dependency" data-source-line="120" id="lnk69"><path d="M418.12,2332.2769 C465.11,2343.4469 595.0257,2374.3498 670.9057,2392.3998" fill="none" id="ADMIN-to-UC27" style="stroke:#2C3E50;stroke-width:1;"/><polygon fill="#2C3E50" points="675.77,2393.5569,667.94,2387.5827,670.9057,2392.3998,666.0886,2395.3655,675.77,2393.5569" style="stroke:#2C3E50;stroke-width:1;stroke-linejoin:miter;stroke-miterlimit:10;"/></g><!--link GOOGLE to UC03--><g class="link" data-entity-1="ent0005" data-entity-2="ent0013" data-link-type="dependency" data-source-line="123" id="lnk70"><path d="M438.95,961.0569 C477.59,962.1269 539.38,961.8169 591.77,952.2969 C625.96,946.0869 658.6105,935.0205 685.7405,924.4605" fill="none" id="GOOGLE-to-UC03" style="stroke:#2C3E50;stroke-width:1;"/><polygon fill="#2C3E50" points="690.4,922.6469,680.562,922.1838,685.7405,924.4605,683.4639,929.639,690.4,922.6469" style="stroke:#2C3E50;stroke-width:1;stroke-linejoin:miter;stroke-miterlimit:10;"/><text fill="#000000" font-family="sans-serif" font-size="13" lengthAdjust="spacing" textLength="90.4351" x="485.27" y="948.3638">validasi token</text></g><!--link MIDTRANS to UC22--><g class="link" data-entity-1="ent0006" data-entity-2="ent0037" data-link-type="dependency" data-source-line="124" id="lnk71"><path d="M428.24,1406.2969 C481.48,1406.2969 596.45,1406.2969 667.84,1406.2969" fill="none" id="MIDTRANS-to-UC22" style="stroke:#2C3E50;stroke-width:1;"/><polygon fill="#2C3E50" points="672.84,1406.2969,663.84,1402.2969,667.84,1406.2969,663.84,1410.2969,672.84,1406.2969" style="stroke:#2C3E50;stroke-width:1;stroke-linejoin:miter;stroke-miterlimit:10;"/><text fill="#000000" font-family="sans-serif" font-size="13" lengthAdjust="spacing" textLength="121.6592" x="469.77" y="1402.3638">webhook notifikasi</text></g><!--link UC07 to UC08--><g class="link" data-entity-1="ent0018" data-entity-2="ent0019" data-link-type="dependency" data-source-line="127" id="lnk72"><path d="M730.35,170.3369 C730.35,186.1969 730.35,201.7169 730.35,216.6169" fill="none" id="UC07-to-UC08" style="stroke:#2C3E50;stroke-width:1;stroke-dasharray:7,7;"/><polygon fill="#2C3E50" points="730.35,221.6169,734.35,212.6169,730.35,216.6169,726.35,212.6169,730.35,221.6169" style="stroke:#2C3E50;stroke-width:1;stroke-linejoin:miter;stroke-miterlimit:10;"/><text fill="#000000" font-family="sans-serif" font-size="13" lengthAdjust="spacing" textLength="63.0068" x="687.35" y="200.6638">&#171;include&#187;</text></g><!--link UC03 to UC01--><g class="link" data-entity-1="ent0013" data-entity-2="ent0011" data-link-type="dependency" data-source-line="128" id="lnk73"><path d="M675.04,919.1469 C626.71,926.7469 558.51,927.9769 520.62,886.2969 C505.37,869.5269 507.8,704.2169 599.77,616.2969 C619.18,597.7369 642.2846,589.283 667.3946,584.603" fill="none" id="UC03-to-UC01" style="stroke:#2C3E50;stroke-width:1;stroke-dasharray:7,7;"/><polygon fill="#2C3E50" points="672.31,583.6869,662.7295,581.4036,667.3946,584.603,664.1953,589.2682,672.31,583.6869" style="stroke:#2C3E50;stroke-width:1;stroke-linejoin:miter;stroke-miterlimit:10;"/><text fill="#000000" font-family="sans-serif" font-size="13" lengthAdjust="spacing" textLength="61.1851" x="499.8608" y="867.3638">&#171;extend&#187;</text><text fill="#000000" font-family="sans-serif" font-size="13" lengthAdjust="spacing" textLength="84.3667" x="488.27" y="882.4966">auto-register</text></g><!--link UC21 to UC22--><g class="link" data-entity-1="ent0036" data-entity-2="ent0037" data-link-type="dependency" data-source-line="129" id="lnk74"><path d="M730.35,1314.7269 C730.35,1334.5169 730.35,1356.0669 730.35,1375.4769" fill="none" id="UC21-to-UC22" style="stroke:#2C3E50;stroke-width:1;stroke-dasharray:7,7;"/><polygon fill="#2C3E50" points="730.35,1380.4769,734.35,1371.4769,730.35,1375.4769,726.35,1371.4769,730.35,1380.4769" style="stroke:#2C3E50;stroke-width:1;stroke-linejoin:miter;stroke-miterlimit:10;"/><text fill="#000000" font-family="sans-serif" font-size="13" lengthAdjust="spacing" textLength="61.1851" x="680.9757" y="1344.7738">&#171;extend&#187;</text><text fill="#000000" font-family="sans-serif" font-size="13" lengthAdjust="spacing" textLength="162.4365" x="630.35" y="1359.9066">webhook dipicu Midtrans</text></g><!--link UC04 to UC05--><g class="link" data-entity-1="ent0014" data-entity-2="ent0015" data-link-type="dependency" data-source-line="130" id="lnk75"><path d="M730.35,738.5469 C730.35,719.7769 730.35,696.6969 730.35,677.9569" fill="none" id="UC04-to-UC05" style="stroke:#2C3E50;stroke-width:1;stroke-dasharray:7,7;"/><polygon fill="#2C3E50" points="730.35,672.9569,726.35,681.9569,730.35,677.9569,734.35,681.9569,730.35,672.9569" style="stroke:#2C3E50;stroke-width:1;stroke-linejoin:miter;stroke-miterlimit:10;"/><text fill="#000000" font-family="sans-serif" font-size="13" lengthAdjust="spacing" textLength="61.1851" x="680.9513" y="702.8438">&#171;extend&#187;</text><text fill="#000000" font-family="sans-serif" font-size="13" lengthAdjust="spacing" textLength="89.3877" x="666.85" y="717.9766">klik link email</text></g><!--link UC18 to UC17--><g class="link" data-entity-1="ent0032" data-entity-2="ent0031" data-link-type="dependency" data-source-line="131" id="lnk76"><path d="M730.35,1965.8069 C730.35,1980.9369 730.35,1996.8069 730.35,2012.0969" fill="none" id="UC18-to-UC17" style="stroke:#2C3E50;stroke-width:1;stroke-dasharray:7,7;"/><polygon fill="#2C3E50" points="730.35,2017.0969,734.35,2008.0969,730.35,2012.0969,726.35,2008.0969,730.35,2017.0969" style="stroke:#2C3E50;stroke-width:1;stroke-linejoin:miter;stroke-miterlimit:10;"/><text fill="#000000" font-family="sans-serif" font-size="13" lengthAdjust="spacing" textLength="63.0068" x="687.35" y="1996.1038">&#171;include&#187;</text></g><?plantuml-src pLVDRkCs4BxhAGOkiDcWI6l9VqaH6F3wRzDk4iEERxxG5cEpaab38fDrsm3x4Fk4-oGTKgOiXaOlFII0aMYeRuOpmszcACbaIc6UK-WJ_3DWP9sHBVpuzXrcB9Tq2m-4xybdbQXj4EG9upkY0IgdAwtmTm3mYQoITIOKZ_iY5HdyD1oEcgEHVYEoc6Q7rUYn_KXZN1q9BcViBmfX6BnKR9ALHDn9YwF1yDEW_jeYRNTe5Fs7nLwMYMUx_Qf1M_KWIEcZ12aWO-kDX9XbT2MPu45m1Z--VyCVzBGV-K5wFx-Wo4zjGlbwhJXPy8zZHNDvNWEImtW-d3sSW8ocms61q4yd09FfVV4U7-phNhnbt2ps1hStTtPvBCGQsNBVKtApu3EQFT6isFp-Vlnb2DVN-Lvpfjkr6hSibXdX-OAFYQJFP6_WjpU3XsdlRbPL2BHxS77nJ_SG2hfJYCRlu-dCZ0OI0Tb1iltR75EWMKEupaRDgvCQSXX9UGOwJ_YmGpQJDI9HfbooXEIiPdWEPHtLvlsBUhZWKxf6SnaYOBWbB3NvclVheO-E5loBM3Fk0YCVsB30wlbPVCF7Dn6lTWGc9C-ViTuijEb3MzhZd4eFs_AnRUE6KD9YseXvAJBLtn1PpPIMbq92cK_FMcV1Ut-gX72Oq4pgtEEZWIEdfxqnJDYEfepJSxjTnpToYIunt0gc3Bc9__M-5d_fuwzqk9niAVokOfKwy2iF7jON_3FPgRoA2-l7g0T4aiBdQkmJbQCdntUdmW-HAdsICK2-gDJmgR3kyoICR903Af4edehFc10PC-Unsi10e0CKSpmOMNYZwd--MGgInLNtoyMJVZTBPonimJ_0J1A9j6U9tSIdMjYocZUvWWUQOPClGsWTVPfauf6bJZxDoablsjQcnHJcsZuIwJQCsMkWJwdmKhSwBFBN5H7wT0gHJlDTAaYC0mmdKky9ppopU9zFKScdNgBu0HTL-3GXUpmifv0cTBj4PcCFFfM0ADGUuCIFAIHKJm0i7jkpOSR9pbPFv1ChGcBXER0jWJiXsQFfQmjUtR5GZOuUci7Yj4IzW8vpUlA4eiO9lXGw7w37ISgEf8dyLXOXtVwWgKYncHqdNdyw7vHn-KoBMgMIBPM34lmCnNcLsdwRYzgbTeMehtVr6HPrRAJO9BMtAoplOmux9eSlbJbePl-xkwJesMZcDyxkRZ6u735onOOhDbsnvOYXQofqJM5VEZEj03Pw683YKYKwmndiSL13QYRWnzZI29PAOeCZE0hFArarjv2vrdelsJpSYxh5nAnA7KUwTAIhgeGpfoer7Scn6JesGyTcwDYC79lO7euvr3StayAFaiKa0H8JIDaMk-V6SFhy_-RsS3SiaW2_0Ov_lAuiiNlcXosgjtdJBTvZdPYxjKrWmnMRhjXonROhTlphyTj_mmI7Zm9RwNXEJzYlOtsrbIAXF2W_0mvXH0XvfikD40dmSg9KOhlXgrJXgFeLXb_n9Xs_GNY1eTmlHSMXlzVNh70AFs5CbCMhqBoYnijkTy6npOYBpDpjQHReUYc09kOgqCOVinrRAR2pMDjk7cotNgaaAKkmldW2L7y81Bfk2sZOSJty5m00?></g></svg>