<svg xmlns="http://www.w3.org/2000/svg" xmlns:xlink="http://www.w3.org/1999/xlink" contentStyleType="text/css" data-diagram-type="ACTIVITY" height="1513px" preserveAspectRatio="none" style="width:402px;height:1513px;background:#FFFFFF;" version="1.1" viewBox="0 0 402 1513" width="402px" zoomAndPan="magnify"><?plantuml 1.2026.5?><defs/><g><g class="title" data-source-line="1"><text fill="#000000" font-family="sans-serif" font-size="14" font-weight="700" lengthAdjust="spacing" textLength="360.0898" x="20" y="32.9951">FC-03: Alur Login / Register via Google OAuth</text><text fill="#000000" font-family="sans-serif" font-size="14" font-weight="700" lengthAdjust="spacing" textLength="175.9229" x="112.0835" y="49.292">POST /api/auth/google</text></g><ellipse cx="199.0449" cy="78.5938" fill="#2F6FED" rx="10" ry="10" style="stroke:#222222;stroke-width:1;"/><rect fill="#EEF4FF" height="33.9688" rx="12.5" ry="12.5" style="stroke:#2F6FED;stroke-width:0.5;" width="273.0898" x="62.5" y="108.5938"/><text fill="#000000" font-family="sans-serif" font-size="12" lengthAdjust="spacing" textLength="253.0898" x="72.5" y="129.7324">Pengguna klik tombol "Login with Google"</text><rect fill="#EEF4FF" height="33.9688" rx="12.5" ry="12.5" style="stroke:#2F6FED;stroke-width:0.5;" width="276.8984" x="60.5957" y="162.5625"/><text fill="#000000" font-family="sans-serif" font-size="12" lengthAdjust="spacing" textLength="256.8984" x="70.5957" y="183.7012">Browser memuat Google Sign-In (GSI) SDK</text><rect fill="#EEF4FF" height="33.9688" rx="12.5" ry="12.5" style="stroke:#2F6FED;stroke-width:0.5;" width="211.666" x="93.2119" y="216.5313"/><text fill="#000000" font-family="sans-serif" font-size="12" lengthAdjust="spacing" textLength="191.666" x="103.2119" y="237.6699">Pengguna memilih akun Google</text><rect fill="#EEF4FF" height="47.9375" rx="12.5" ry="12.5" style="stroke:#2F6FED;stroke-width:0.5;" width="264.9043" x="66.5928" y="270.5"/><text fill="#000000" font-family="sans-serif" font-size="12" lengthAdjust="spacing" textLength="244.9043" x="76.5928" y="291.6387">Google mengembalikan credential token</text><text fill="#000000" font-family="sans-serif" font-size="12" lengthAdjust="spacing" textLength="122.5137" x="76.5928" y="305.6074">ke callback frontend</text><rect fill="#EEF4FF" height="47.9375" rx="12.5" ry="12.5" style="stroke:#2F6FED;stroke-width:0.5;" width="245.7441" x="76.1729" y="338.4375"/><text fill="#000000" font-family="sans-serif" font-size="12" lengthAdjust="spacing" textLength="225.7441" x="86.1729" y="359.5762">Frontend kirim POST /api/auth/google</text><text fill="#000000" font-family="sans-serif" font-size="12" lengthAdjust="spacing" textLength="112.125" x="86.1729" y="373.5449">{credentialToken}</text><rect fill="#EEF4FF" height="33.9688" rx="12.5" ry="12.5" style="stroke:#2F6FED;stroke-width:0.5;" width="151.9414" x="123.0742" y="454.7773"/><text fill="#000000" font-family="sans-serif" font-size="12" lengthAdjust="spacing" textLength="131.9414" x="133.0742" y="475.916">Kembalikan HTTP 400</text><ellipse cx="199.0449" cy="528.2617" fill="none" rx="11" ry="11" style="stroke:#222222;stroke-width:1;"/><ellipse cx="199.0449" cy="528.2617" fill="#222222" rx="6" ry="6" style="stroke:#222222;stroke-width:1;"/><polygon fill="#EEF4FF" points="124.2739,406.375,273.8159,406.375,285.8159,418.375,273.8159,430.375,124.2739,430.375,112.2739,418.375,124.2739,406.375" style="stroke:#2F6FED;stroke-width:0.5;stroke-linejoin:miter;stroke-miterlimit:10;"/><text fill="#000000" font-family="sans-serif" font-size="11" lengthAdjust="spacing" textLength="13.46" x="203.0449" y="440.5854">Ya</text><text fill="#000000" font-family="sans-serif" font-size="11" lengthAdjust="spacing" textLength="149.542" x="124.2739" y="422.1831">credentialToken tidak ada?</text><rect fill="#EEF4FF" height="47.9375" rx="12.5" ry="12.5" style="stroke:#2F6FED;stroke-width:0.5;" width="219.1836" x="89.4531" y="581.2617"/><text fill="#000000" font-family="sans-serif" font-size="12" lengthAdjust="spacing" textLength="199.1836" x="99.4531" y="602.4004">Verifikasi token ke server Google</text><text fill="#000000" font-family="sans-serif" font-size="12" lengthAdjust="spacing" textLength="127.9805" x="99.4531" y="616.3691">(client.verifyIdToken)</text><rect fill="#EEF4FF" height="33.9688" rx="12.5" ry="12.5" style="stroke:#2F6FED;stroke-width:0.5;" width="151.9414" x="123.0742" y="697.6016"/><text fill="#000000" font-family="sans-serif" font-size="12" lengthAdjust="spacing" textLength="131.9414" x="133.0742" y="718.7402">Kembalikan HTTP 401</text><ellipse cx="199.0449" cy="771.0859" fill="none" rx="11" ry="11" style="stroke:#222222;stroke-width:1;"/><ellipse cx="199.0449" cy="771.0859" fill="#222222" rx="6" ry="6" style="stroke:#222222;stroke-width:1;"/><polygon fill="#EEF4FF" points="128.8555,649.1992,269.2344,649.1992,281.2344,661.1992,269.2344,673.1992,128.8555,673.1992,116.8555,661.1992,128.8555,649.1992" style="stroke:#2F6FED;stroke-width:0.5;stroke-linejoin:miter;stroke-miterlimit:10;"/><text fill="#000000" font-family="sans-serif" font-size="11" lengthAdjust="spacing" textLength="13.46" x="203.0449" y="683.4097">Ya</text><text fill="#000000" font-family="sans-serif" font-size="11" lengthAdjust="spacing" textLength="140.3789" x="128.8555" y="665.0073">Token palsu / tidak valid?</text><rect fill="#EEF4FF" height="47.9375" rx="12.5" ry="12.5" style="stroke:#2F6FED;stroke-width:0.5;" width="153.9219" x="122.084" y="824.0859"/><text fill="#000000" font-family="sans-serif" font-size="12" lengthAdjust="spacing" textLength="85.7168" x="132.084" y="845.2246">Ambil payload</text><text fill="#000000" font-family="sans-serif" font-size="12" lengthAdjust="spacing" textLength="133.9219" x="132.084" y="859.1934">(email, name, picture)</text><rect fill="#EEF4FF" height="33.9688" rx="12.5" ry="12.5" style="stroke:#2F6FED;stroke-width:0.5;" width="151.9414" x="123.0742" y="940.4258"/><text fill="#000000" font-family="sans-serif" font-size="12" lengthAdjust="spacing" textLength="131.9414" x="133.0742" y="961.5645">Kembalikan HTTP 400</text><ellipse cx="199.0449" cy="1013.9102" fill="none" rx="11" ry="11" style="stroke:#222222;stroke-width:1;"/><ellipse cx="199.0449" cy="1013.9102" fill="#222222" rx="6" ry="6" style="stroke:#222222;stroke-width:1;"/><polygon fill="#EEF4FF" points="123.0198,892.0234,275.0701,892.0234,287.0701,904.0234,275.0701,916.0234,123.0198,916.0234,111.0198,904.0234,123.0198,892.0234" style="stroke:#2F6FED;stroke-width:0.5;stroke-linejoin:miter;stroke-miterlimit:10;"/><text fill="#000000" font-family="sans-serif" font-size="11" lengthAdjust="spacing" textLength="13.46" x="203.0449" y="926.2339">Ya</text><text fill="#000000" font-family="sans-serif" font-size="11" lengthAdjust="spacing" textLength="152.0503" x="123.0198" y="907.8315">Email tidak ada di payload?</text><rect fill="#EEF4FF" height="33.9688" rx="12.5" ry="12.5" style="stroke:#2F6FED;stroke-width:0.5;" width="265.666" x="66.2119" y="1066.9102"/><text fill="#000000" font-family="sans-serif" font-size="12" lengthAdjust="spacing" textLength="245.666" x="76.2119" y="1088.0488">Query DB &#8212; cari user berdasarkan email</text><rect fill="#EEF4FF" height="61.9063" rx="12.5" ry="12.5" style="stroke:#2F6FED;stroke-width:0.5;" width="161.4453" x="118.3223" y="1169.2813"/><text fill="#000000" font-family="sans-serif" font-size="12" lengthAdjust="spacing" textLength="140.0449" x="128.3223" y="1190.4199">Auto-register user baru</text><text fill="#000000" font-family="sans-serif" font-size="12" lengthAdjust="spacing" textLength="141.4453" x="128.3223" y="1204.3887">(authProvider: GOOGLE</text><text fill="#000000" font-family="sans-serif" font-size="12" lengthAdjust="spacing" textLength="134.0977" x="128.3223" y="1218.3574">tier: FREE, role: USER)</text><polygon fill="#EEF4FF" points="138.459,1120.8789,259.6309,1120.8789,271.6309,1132.8789,259.6309,1144.8789,138.459,1144.8789,126.459,1132.8789,138.459,1120.8789" style="stroke:#2F6FED;stroke-width:0.5;stroke-linejoin:miter;stroke-miterlimit:10;"/><text fill="#000000" font-family="sans-serif" font-size="11" lengthAdjust="spacing" textLength="13.46" x="203.0449" y="1155.0894">Ya</text><text fill="#000000" font-family="sans-serif" font-size="11" lengthAdjust="spacing" textLength="121.1719" x="138.459" y="1136.687">User belum terdaftar?</text><polygon fill="#EEF4FF" points="199.0449,1251.1875,211.0449,1263.1875,199.0449,1275.1875,187.0449,1263.1875,199.0449,1251.1875" style="stroke:#2F6FED;stroke-width:0.5;stroke-linejoin:miter;stroke-miterlimit:10;"/><rect fill="#EEF4FF" height="33.9688" rx="12.5" ry="12.5" style="stroke:#2F6FED;stroke-width:0.5;" width="112.2441" x="142.9229" y="1295.1875"/><text fill="#000000" font-family="sans-serif" font-size="12" lengthAdjust="spacing" textLength="92.2441" x="152.9229" y="1316.3262">Buat JWT token</text><rect fill="#EEF4FF" height="33.9688" rx="12.5" ry="12.5" style="stroke:#2F6FED;stroke-width:0.5;" width="188.6563" x="104.7168" y="1349.1563"/><text fill="#000000" font-family="sans-serif" font-size="12" lengthAdjust="spacing" textLength="168.6563" x="114.7168" y="1370.2949">Set cookie HttpOnly "token"</text><rect fill="#EEF4FF" height="47.9375" rx="12.5" ry="12.5" style="stroke:#2F6FED;stroke-width:0.5;" width="151.9414" x="123.0742" y="1403.125"/><text fill="#000000" font-family="sans-serif" font-size="12" lengthAdjust="spacing" textLength="131.9414" x="133.0742" y="1424.2637">Kembalikan HTTP 200</text><text fill="#000000" font-family="sans-serif" font-size="12" lengthAdjust="spacing" textLength="70.8867" x="133.0742" y="1438.2324">+ data user</text><ellipse cx="199.0449" cy="1482.0625" fill="none" rx="11" ry="11" style="stroke:#222222;stroke-width:1;"/><ellipse cx="199.0449" cy="1482.0625" fill="#222222" rx="6" ry="6" style="stroke:#222222;stroke-width:1;"/><line style="stroke:#2F6FED;stroke-width:1;" x1="199.0449" x2="199.0449" y1="88.5938" y2="108.5938"/><polygon fill="#2F6FED" points="195.0449,98.5938,199.0449,108.5938,203.0449,98.5938,199.0449,102.5938" style="stroke:#2F6FED;stroke-width:1;stroke-linejoin:miter;stroke-miterlimit:10;"/><line style="stroke:#2F6FED;stroke-width:1;" x1="199.0449" x2="199.0449" y1="142.5625" y2="162.5625"/><polygon fill="#2F6FED" points="195.0449,152.5625,199.0449,162.5625,203.0449,152.5625,199.0449,156.5625" style="stroke:#2F6FED;stroke-width:1;stroke-linejoin:miter;stroke-miterlimit:10;"/><line style="stroke:#2F6FED;stroke-width:1;" x1="199.0449" x2="199.0449" y1="196.5313" y2="216.5313"/><polygon fill="#2F6FED" points="195.0449,206.5313,199.0449,216.5313,203.0449,206.5313,199.0449,210.5313" style="stroke:#2F6FED;stroke-width:1;stroke-linejoin:miter;stroke-miterlimit:10;"/><line style="stroke:#2F6FED;stroke-width:1;" x1="199.0449" x2="199.0449" y1="250.5" y2="270.5"/><polygon fill="#2F6FED" points="195.0449,260.5,199.0449,270.5,203.0449,260.5,199.0449,264.5" style="stroke:#2F6FED;stroke-width:1;stroke-linejoin:miter;stroke-miterlimit:10;"/><line style="stroke:#2F6FED;stroke-width:1;" x1="199.0449" x2="199.0449" y1="318.4375" y2="338.4375"/><polygon fill="#2F6FED" points="195.0449,328.4375,199.0449,338.4375,203.0449,328.4375,199.0449,332.4375" style="stroke:#2F6FED;stroke-width:1;stroke-linejoin:miter;stroke-miterlimit:10;"/><line style="stroke:#2F6FED;stroke-width:1;" x1="199.0449" x2="199.0449" y1="488.7461" y2="517.2617"/><polygon fill="#2F6FED" points="195.0449,507.2617,199.0449,517.2617,203.0449,507.2617,199.0449,511.2617" style="stroke:#2F6FED;stroke-width:1;stroke-linejoin:miter;stroke-miterlimit:10;"/><line style="stroke:#2F6FED;stroke-width:1;" x1="199.0449" x2="199.0449" y1="430.375" y2="454.7773"/><polygon fill="#2F6FED" points="195.0449,444.7773,199.0449,454.7773,203.0449,444.7773,199.0449,448.7773" style="stroke:#2F6FED;stroke-width:1;stroke-linejoin:miter;stroke-miterlimit:10;"/><line style="stroke:#2F6FED;stroke-width:1;" x1="285.8159" x2="297.8159" y1="418.375" y2="418.375"/><polygon fill="#2F6FED" points="293.8159,487.2617,297.8159,497.2617,301.8159,487.2617,297.8159,491.2617" style="stroke:#2F6FED;stroke-width:1;stroke-linejoin:miter;stroke-miterlimit:10;"/><line style="stroke:#2F6FED;stroke-width:1;" x1="297.8159" x2="297.8159" y1="418.375" y2="561.2617"/><line style="stroke:#2F6FED;stroke-width:1;" x1="297.8159" x2="199.0449" y1="561.2617" y2="561.2617"/><line style="stroke:#2F6FED;stroke-width:1;" x1="199.0449" x2="199.0449" y1="561.2617" y2="581.2617"/><polygon fill="#2F6FED" points="195.0449,571.2617,199.0449,581.2617,203.0449,571.2617,199.0449,575.2617" style="stroke:#2F6FED;stroke-width:1;stroke-linejoin:miter;stroke-miterlimit:10;"/><line style="stroke:#2F6FED;stroke-width:1;" x1="199.0449" x2="199.0449" y1="386.375" y2="406.375"/><polygon fill="#2F6FED" points="195.0449,396.375,199.0449,406.375,203.0449,396.375,199.0449,400.375" style="stroke:#2F6FED;stroke-width:1;stroke-linejoin:miter;stroke-miterlimit:10;"/><line style="stroke:#2F6FED;stroke-width:1;" x1="199.0449" x2="199.0449" y1="731.5703" y2="760.0859"/><polygon fill="#2F6FED" points="195.0449,750.0859,199.0449,760.0859,203.0449,750.0859,199.0449,754.0859" style="stroke:#2F6FED;stroke-width:1;stroke-linejoin:miter;stroke-miterlimit:10;"/><line style="stroke:#2F6FED;stroke-width:1;" x1="199.0449" x2="199.0449" y1="673.1992" y2="697.6016"/><polygon fill="#2F6FED" points="195.0449,687.6016,199.0449,697.6016,203.0449,687.6016,199.0449,691.6016" style="stroke:#2F6FED;stroke-width:1;stroke-linejoin:miter;stroke-miterlimit:10;"/><line style="stroke:#2F6FED;stroke-width:1;" x1="281.2344" x2="293.2344" y1="661.1992" y2="661.1992"/><polygon fill="#2F6FED" points="289.2344,730.0859,293.2344,740.0859,297.2344,730.0859,293.2344,734.0859" style="stroke:#2F6FED;stroke-width:1;stroke-linejoin:miter;stroke-miterlimit:10;"/><line style="stroke:#2F6FED;stroke-width:1;" x1="293.2344" x2="293.2344" y1="661.1992" y2="804.0859"/><line style="stroke:#2F6FED;stroke-width:1;" x1="293.2344" x2="199.0449" y1="804.0859" y2="804.0859"/><line style="stroke:#2F6FED;stroke-width:1;" x1="199.0449" x2="199.0449" y1="804.0859" y2="824.0859"/><polygon fill="#2F6FED" points="195.0449,814.0859,199.0449,824.0859,203.0449,814.0859,199.0449,818.0859" style="stroke:#2F6FED;stroke-width:1;stroke-linejoin:miter;stroke-miterlimit:10;"/><line style="stroke:#2F6FED;stroke-width:1;" x1="199.0449" x2="199.0449" y1="629.1992" y2="649.1992"/><polygon fill="#2F6FED" points="195.0449,639.1992,199.0449,649.1992,203.0449,639.1992,199.0449,643.1992" style="stroke:#2F6FED;stroke-width:1;stroke-linejoin:miter;stroke-miterlimit:10;"/><line style="stroke:#2F6FED;stroke-width:1;" x1="199.0449" x2="199.0449" y1="974.3945" y2="1002.9102"/><polygon fill="#2F6FED" points="195.0449,992.9102,199.0449,1002.9102,203.0449,992.9102,199.0449,996.9102" style="stroke:#2F6FED;stroke-width:1;stroke-linejoin:miter;stroke-miterlimit:10;"/><line style="stroke:#2F6FED;stroke-width:1;" x1="199.0449" x2="199.0449" y1="916.0234" y2="940.4258"/><polygon fill="#2F6FED" points="195.0449,930.4258,199.0449,940.4258,203.0449,930.4258,199.0449,934.4258" style="stroke:#2F6FED;stroke-width:1;stroke-linejoin:miter;stroke-miterlimit:10;"/><line style="stroke:#2F6FED;stroke-width:1;" x1="287.0701" x2="299.0701" y1="904.0234" y2="904.0234"/><polygon fill="#2F6FED" points="295.0701,972.9102,299.0701,982.9102,303.0701,972.9102,299.0701,976.9102" style="stroke:#2F6FED;stroke-width:1;stroke-linejoin:miter;stroke-miterlimit:10;"/><line style="stroke:#2F6FED;stroke-width:1;" x1="299.0701" x2="299.0701" y1="904.0234" y2="1046.9102"/><line style="stroke:#2F6FED;stroke-width:1;" x1="299.0701" x2="199.0449" y1="1046.9102" y2="1046.9102"/><line style="stroke:#2F6FED;stroke-width:1;" x1="199.0449" x2="199.0449" y1="1046.9102" y2="1066.9102"/><polygon fill="#2F6FED" points="195.0449,1056.9102,199.0449,1066.9102,203.0449,1056.9102,199.0449,1060.9102" style="stroke:#2F6FED;stroke-width:1;stroke-linejoin:miter;stroke-miterlimit:10;"/><line style="stroke:#2F6FED;stroke-width:1;" x1="199.0449" x2="199.0449" y1="872.0234" y2="892.0234"/><polygon fill="#2F6FED" points="195.0449,882.0234,199.0449,892.0234,203.0449,882.0234,199.0449,886.0234" style="stroke:#2F6FED;stroke-width:1;stroke-linejoin:miter;stroke-miterlimit:10;"/><line style="stroke:#2F6FED;stroke-width:1;" x1="199.0449" x2="199.0449" y1="1144.8789" y2="1169.2813"/><polygon fill="#2F6FED" points="195.0449,1159.2813,199.0449,1169.2813,203.0449,1159.2813,199.0449,1163.2813" style="stroke:#2F6FED;stroke-width:1;stroke-linejoin:miter;stroke-miterlimit:10;"/><line style="stroke:#2F6FED;stroke-width:1;" x1="271.6309" x2="289.7676" y1="1132.8789" y2="1132.8789"/><polygon fill="#2F6FED" points="285.7676,1190.2344,289.7676,1200.2344,293.7676,1190.2344,289.7676,1194.2344" style="stroke:#2F6FED;stroke-width:1;stroke-linejoin:miter;stroke-miterlimit:10;"/><line style="stroke:#2F6FED;stroke-width:1;" x1="289.7676" x2="289.7676" y1="1132.8789" y2="1263.1875"/><line style="stroke:#2F6FED;stroke-width:1;" x1="289.7676" x2="211.0449" y1="1263.1875" y2="1263.1875"/><polygon fill="#2F6FED" points="221.0449,1259.1875,211.0449,1263.1875,221.0449,1267.1875,217.0449,1263.1875" style="stroke:#2F6FED;stroke-width:1;stroke-linejoin:miter;stroke-miterlimit:10;"/><line style="stroke:#2F6FED;stroke-width:1;" x1="199.0449" x2="199.0449" y1="1231.1875" y2="1251.1875"/><polygon fill="#2F6FED" points="195.0449,1241.1875,199.0449,1251.1875,203.0449,1241.1875,199.0449,1245.1875" style="stroke:#2F6FED;stroke-width:1;stroke-linejoin:miter;stroke-miterlimit:10;"/><line style="stroke:#2F6FED;stroke-width:1;" x1="199.0449" x2="199.0449" y1="1100.8789" y2="1120.8789"/><polygon fill="#2F6FED" points="195.0449,1110.8789,199.0449,1120.8789,203.0449,1110.8789,199.0449,1114.8789" style="stroke:#2F6FED;stroke-width:1;stroke-linejoin:miter;stroke-miterlimit:10;"/><line style="stroke:#2F6FED;stroke-width:1;" x1="199.0449" x2="199.0449" y1="1275.1875" y2="1295.1875"/><polygon fill="#2F6FED" points="195.0449,1285.1875,199.0449,1295.1875,203.0449,1285.1875,199.0449,1289.1875" style="stroke:#2F6FED;stroke-width:1;stroke-linejoin:miter;stroke-miterlimit:10;"/><line style="stroke:#2F6FED;stroke-width:1;" x1="199.0449" x2="199.0449" y1="1329.1563" y2="1349.1563"/><polygon fill="#2F6FED" points="195.0449,1339.1563,199.0449,1349.1563,203.0449,1339.1563,199.0449,1343.1563" style="stroke:#2F6FED;stroke-width:1;stroke-linejoin:miter;stroke-miterlimit:10;"/><line style="stroke:#2F6FED;stroke-width:1;" x1="199.0449" x2="199.0449" y1="1383.125" y2="1403.125"/><polygon fill="#2F6FED" points="195.0449,1393.125,199.0449,1403.125,203.0449,1393.125,199.0449,1397.125" style="stroke:#2F6FED;stroke-width:1;stroke-linejoin:miter;stroke-miterlimit:10;"/><line style="stroke:#2F6FED;stroke-width:1;" x1="199.0449" x2="199.0449" y1="1451.0625" y2="1471.0625"/><polygon fill="#2F6FED" points="195.0449,1461.0625,199.0449,1471.0625,203.0449,1461.0625,199.0449,1465.0625" style="stroke:#2F6FED;stroke-width:1;stroke-linejoin:miter;stroke-miterlimit:10;"/><?plantuml-src dLF1Rjf04BtxAqRf1LGeD46jP0uL98RGH89YqgeIby6xDYElTz5wxGXLbVeH_S9-ISVOb8YcYjJRxiwRUM_Up3foIiBakjk_yc6a2Wlt9Y4DFLZAX78dBPI4C3KcOTnyLBZjMY_cuGfwkACUyhsN78AUbwUaTsWnWr7ag2It7sEK9jOKMbmRPIoy2eB9O39v3cciaBP1NSRlOYcUegmrZ_yCDYL2XzQz10h-I97l1z5LnAghDCzVI9qaXKP85QNWJBOn2YvgCnx9RHiBBeQUFsOnEHkJoQn0T_Gcf4HtPnfQqt3MXl3cRlYaA4D9qHOmBNIJmE4cCsEKp3R8nAWXib98xGWLgqYbNkjKGeHARTXCYAtHJch1sPFc22bPok3PeQprjrEzLLNk-z3pA8RMsJCu4fW22lpG1hVbXzPNR7i0_jr9skrgjO11lp_azzoPdSVi57kU_rbQYXcIKwqPM38xLB99qqP7ArB4V6_A2hgVYGDhkn5JIzYXoWlUl5fAoQJYPJ5l_n8poZQakDXU6HHCB3CarG6DcUp0ZY9NM7aa3ghOgNSGT4py7ni-5TBkuMOCltxyv95PWgBQausq0dEqLUv1J4F-K0TLaO6h835luZajVpZJjSUlM9T3Mt1RrPGNrfJ4_yQ7wNm-lG_MFD3gDba6GGUiKTA7Xp1OShj7ZUDgPJz-MTM3uZKAfOF8c9Gat3gtcskrXuj3iDhryxOl-_srVWq27HxK3BtAWTy0?></g></svg>