<svg xmlns="http://www.w3.org/2000/svg" xmlns:xlink="http://www.w3.org/1999/xlink" contentStyleType="text/css" data-diagram-type="ACTIVITY" height="2343px" preserveAspectRatio="none" style="width:320px;height:2343px;background:#FFFFFF;" version="1.1" viewBox="0 0 320 2343" width="320px" zoomAndPan="magnify"><?plantuml 1.2026.5?><defs/><g><g class="title" data-source-line="1"><text fill="#000000" font-family="sans-serif" font-size="14" font-weight="700" lengthAdjust="spacing" textLength="278.8174" x="20" y="32.9951">FC-04: Alur Lupa &amp; Reset Password</text><text fill="#000000" font-family="sans-serif" font-size="14" font-weight="700" lengthAdjust="spacing" textLength="252.7178" x="33.0498" y="49.292">POST /api/auth/forgot-password</text><text fill="#000000" font-family="sans-serif" font-size="14" font-weight="700" lengthAdjust="spacing" textLength="244.6924" x="37.0625" y="65.5889">POST /api/auth/reset-password</text></g><ellipse cx="156.7913" cy="94.8906" fill="#2F6FED" rx="10" ry="10" style="stroke:#222222;stroke-width:1;"/><rect fill="none" height="1073.9727" style="stroke:#000000;stroke-width:1.5;" width="246.2798" x="43.8909" y="114.8906"/><path d="M249.6516,114.8906 L249.6516,124.1875 L239.6516,134.1875 L43.8909,134.1875" fill="none" style="stroke:#000000;stroke-width:1.5;"/><text fill="#000000" font-family="sans-serif" font-size="14" lengthAdjust="spacing" textLength="195.7607" x="46.8909" y="128.8857">Tahap 1 &#8212; Forgot Password</text><rect fill="#EEF4FF" height="33.9688" rx="12.5" ry="12.5" style="stroke:#2F6FED;stroke-width:0.5;" width="182.5039" x="65.5393" y="151.1875"/><text fill="#000000" font-family="sans-serif" font-size="12" lengthAdjust="spacing" textLength="162.5039" x="75.5393" y="172.3262">Pengguna masukkan email</text><rect fill="#EEF4FF" height="47.9375" rx="12.5" ry="12.5" style="stroke:#2F6FED;stroke-width:0.5;" width="162.2773" x="75.6526" y="205.1563"/><text fill="#000000" font-family="sans-serif" font-size="12" lengthAdjust="spacing" textLength="81.1113" x="85.6526" y="226.2949">Cek rate limit</text><text fill="#000000" font-family="sans-serif" font-size="12" lengthAdjust="spacing" textLength="142.2773" x="85.6526" y="240.2637">(maks 3 req / 15 menit)</text><rect fill="#EEF4FF" height="33.9688" rx="12.5" ry="12.5" style="stroke:#2F6FED;stroke-width:0.5;" width="151.9414" x="80.8206" y="321.4961"/><text fill="#000000" font-family="sans-serif" font-size="12" lengthAdjust="spacing" textLength="131.9414" x="90.8206" y="342.6348">Kembalikan HTTP 429</text><ellipse cx="156.7913" cy="394.9805" fill="none" rx="11" ry="11" style="stroke:#222222;stroke-width:1;"/><ellipse cx="156.7913" cy="394.9805" fill="#222222" rx="6" ry="6" style="stroke:#222222;stroke-width:1;"/><polygon fill="#EEF4FF" points="102.9595,273.0938,210.623,273.0938,222.623,285.0938,210.623,297.0938,102.9595,297.0938,90.9595,285.0938,102.9595,273.0938" style="stroke:#2F6FED;stroke-width:0.5;stroke-linejoin:miter;stroke-miterlimit:10;"/><text fill="#000000" font-family="sans-serif" font-size="11" lengthAdjust="spacing" textLength="13.46" x="160.7913" y="307.3042">Ya</text><text fill="#000000" font-family="sans-serif" font-size="11" lengthAdjust="spacing" textLength="107.6636" x="102.9595" y="288.9019">Rate limit tercapai?</text><rect fill="#EEF4FF" height="33.9688" rx="12.5" ry="12.5" style="stroke:#2F6FED;stroke-width:0.5;" width="151.9414" x="80.8206" y="496.3828"/><text fill="#000000" font-family="sans-serif" font-size="12" lengthAdjust="spacing" textLength="131.9414" x="90.8206" y="517.5215">Kembalikan HTTP 400</text><ellipse cx="156.7913" cy="569.8672" fill="none" rx="11" ry="11" style="stroke:#222222;stroke-width:1;"/><ellipse cx="156.7913" cy="569.8672" fill="#222222" rx="6" ry="6" style="stroke:#222222;stroke-width:1;"/><polygon fill="#EEF4FF" points="66.4119,447.9805,247.1707,447.9805,259.1707,459.9805,247.1707,471.9805,66.4119,471.9805,54.4119,459.9805,66.4119,447.9805" style="stroke:#2F6FED;stroke-width:0.5;stroke-linejoin:miter;stroke-miterlimit:10;"/><text fill="#000000" font-family="sans-serif" font-size="11" lengthAdjust="spacing" textLength="13.46" x="160.7913" y="482.1909">Ya</text><text fill="#000000" font-family="sans-serif" font-size="11" lengthAdjust="spacing" textLength="180.7588" x="66.4119" y="463.7886">Email kosong atau format salah?</text><rect fill="#EEF4FF" height="33.9688" rx="12.5" ry="12.5" style="stroke:#2F6FED;stroke-width:0.5;" width="149.5918" x="81.9954" y="622.8672"/><text fill="#000000" font-family="sans-serif" font-size="12" lengthAdjust="spacing" textLength="129.5918" x="91.9954" y="644.0059">Query DB &#8212; cari user</text><rect fill="#EEF4FF" height="61.9063" rx="12.5" ry="12.5" style="stroke:#2F6FED;stroke-width:0.5;" width="163.6191" x="74.9817" y="725.2383"/><text fill="#000000" font-family="sans-serif" font-size="12" lengthAdjust="spacing" textLength="131.9414" x="84.9817" y="746.377">Kembalikan HTTP 200</text><text fill="#000000" font-family="sans-serif" font-size="12" lengthAdjust="spacing" textLength="85.2305" x="84.9817" y="760.3457">pesan generik</text><text fill="#000000" font-family="sans-serif" font-size="12" lengthAdjust="spacing" textLength="143.6191" x="84.9817" y="774.3145">(anti user-enumeration)</text><ellipse cx="156.7913" cy="818.1445" fill="none" rx="11" ry="11" style="stroke:#222222;stroke-width:1;"/><ellipse cx="156.7913" cy="818.1445" fill="#222222" rx="6" ry="6" style="stroke:#222222;stroke-width:1;"/><polygon fill="#EEF4FF" points="94.6638,676.8359,218.9187,676.8359,230.9187,688.8359,218.9187,700.8359,94.6638,700.8359,82.6638,688.8359,94.6638,676.8359" style="stroke:#2F6FED;stroke-width:0.5;stroke-linejoin:miter;stroke-miterlimit:10;"/><text fill="#000000" font-family="sans-serif" font-size="11" lengthAdjust="spacing" textLength="13.46" x="160.7913" y="711.0464">Ya</text><text fill="#000000" font-family="sans-serif" font-size="11" lengthAdjust="spacing" textLength="124.2549" x="94.6638" y="692.644">User tidak ditemukan?</text><rect fill="#EEF4FF" height="47.9375" rx="12.5" ry="12.5" style="stroke:#2F6FED;stroke-width:0.5;" width="170.7734" x="71.4045" y="871.1445"/><text fill="#000000" font-family="sans-serif" font-size="12" lengthAdjust="spacing" textLength="144.1992" x="81.4045" y="892.2832">Generate random token</text><text fill="#000000" font-family="sans-serif" font-size="12" lengthAdjust="spacing" textLength="150.7734" x="81.4045" y="906.252">(crypto.randomBytes 32)</text><rect fill="#EEF4FF" height="33.9688" rx="12.5" ry="12.5" style="stroke:#2F6FED;stroke-width:0.5;" width="192.9277" x="60.3274" y="939.082"/><text fill="#000000" font-family="sans-serif" font-size="12" lengthAdjust="spacing" textLength="172.9277" x="70.3274" y="960.2207">Hash token dengan SHA-256</text><rect fill="#EEF4FF" height="47.9375" rx="12.5" ry="12.5" style="stroke:#2F6FED;stroke-width:0.5;" width="205.8008" x="53.8909" y="993.0508"/><text fill="#000000" font-family="sans-serif" font-size="12" lengthAdjust="spacing" textLength="185.8008" x="63.8909" y="1014.1895">Simpan hashed token + expiry</text><text fill="#000000" font-family="sans-serif" font-size="12" lengthAdjust="spacing" textLength="92.6777" x="63.8909" y="1028.1582">(+1 jam) ke DB</text><rect fill="#EEF4FF" height="47.9375" rx="12.5" ry="12.5" style="stroke:#2F6FED;stroke-width:0.5;" width="179.8086" x="66.887" y="1060.9883"/><text fill="#000000" font-family="sans-serif" font-size="12" lengthAdjust="spacing" textLength="104.7363" x="76.887" y="1082.127">Kirim email berisi</text><text fill="#000000" font-family="sans-serif" font-size="12" lengthAdjust="spacing" textLength="159.8086" x="76.887" y="1096.0957">link reset (token plaintext)</text><rect fill="#EEF4FF" height="47.9375" rx="12.5" ry="12.5" style="stroke:#2F6FED;stroke-width:0.5;" width="151.9414" x="80.8206" y="1128.9258"/><text fill="#000000" font-family="sans-serif" font-size="12" lengthAdjust="spacing" textLength="131.9414" x="90.8206" y="1150.0645">Kembalikan HTTP 200</text><text fill="#000000" font-family="sans-serif" font-size="12" lengthAdjust="spacing" textLength="85.2305" x="90.8206" y="1164.0332">pesan generik</text><rect fill="none" height="1082.4883" style="stroke:#000000;stroke-width:1.5;" width="260.2891" x="26.6467" y="1198.8633"/><path d="M226.8293,1198.8633 L226.8293,1208.1602 L216.8293,1218.1602 L26.6467,1218.1602" fill="none" style="stroke:#000000;stroke-width:1.5;"/><text fill="#000000" font-family="sans-serif" font-size="14" lengthAdjust="spacing" textLength="190.1826" x="29.6467" y="1212.8584">Tahap 2 &#8212; Reset Password</text><rect fill="#EEF4FF" height="47.9375" rx="12.5" ry="12.5" style="stroke:#2F6FED;stroke-width:0.5;" width="197.2871" x="58.1477" y="1235.1602"/><text fill="#000000" font-family="sans-serif" font-size="12" lengthAdjust="spacing" textLength="161.1152" x="68.1477" y="1256.2988">Pengguna klik link di email</text><text fill="#000000" font-family="sans-serif" font-size="12" lengthAdjust="spacing" textLength="177.2871" x="68.1477" y="1270.2676">(/reset-password?token=xxx)</text><rect fill="#EEF4FF" height="33.9688" rx="12.5" ry="12.5" style="stroke:#2F6FED;stroke-width:0.5;" width="237.916" x="37.8333" y="1303.0977"/><text fill="#000000" font-family="sans-serif" font-size="12" lengthAdjust="spacing" textLength="217.916" x="47.8333" y="1324.2363">Pengguna masukkan password baru</text><rect fill="#EEF4FF" height="47.9375" rx="12.5" ry="12.5" style="stroke:#2F6FED;stroke-width:0.5;" width="240.2891" x="36.6467" y="1357.0664"/><text fill="#000000" font-family="sans-serif" font-size="12" lengthAdjust="spacing" textLength="220.2891" x="46.6467" y="1378.2051">Kirim POST /api/auth/reset-password</text><text fill="#000000" font-family="sans-serif" font-size="12" lengthAdjust="spacing" textLength="138.4863" x="46.6467" y="1392.1738">{token, newPassword}</text><rect fill="#EEF4FF" height="33.9688" rx="12.5" ry="12.5" style="stroke:#2F6FED;stroke-width:0.5;" width="151.9414" x="80.8206" y="1473.4063"/><text fill="#000000" font-family="sans-serif" font-size="12" lengthAdjust="spacing" textLength="131.9414" x="90.8206" y="1494.5449">Kembalikan HTTP 400</text><ellipse cx="156.7913" cy="1546.8906" fill="none" rx="11" ry="11" style="stroke:#222222;stroke-width:1;"/><ellipse cx="156.7913" cy="1546.8906" fill="#222222" rx="6" ry="6" style="stroke:#222222;stroke-width:1;"/><polygon fill="#EEF4FF" points="67.5452,1425.0039,246.0374,1425.0039,258.0374,1437.0039,246.0374,1449.0039,67.5452,1449.0039,55.5452,1437.0039,67.5452,1425.0039" style="stroke:#2F6FED;stroke-width:0.5;stroke-linejoin:miter;stroke-miterlimit:10;"/><text fill="#000000" font-family="sans-serif" font-size="11" lengthAdjust="spacing" textLength="13.46" x="160.7913" y="1459.2144">Ya</text><text fill="#000000" font-family="sans-serif" font-size="11" lengthAdjust="spacing" textLength="178.4922" x="67.5452" y="1440.812">Token atau password tidak ada?</text><rect fill="#EEF4FF" height="33.9688" rx="12.5" ry="12.5" style="stroke:#2F6FED;stroke-width:0.5;" width="151.9414" x="80.8206" y="1648.293"/><text fill="#000000" font-family="sans-serif" font-size="12" lengthAdjust="spacing" textLength="131.9414" x="90.8206" y="1669.4316">Kembalikan HTTP 400</text><ellipse cx="156.7913" cy="1721.7773" fill="none" rx="11" ry="11" style="stroke:#222222;stroke-width:1;"/><ellipse cx="156.7913" cy="1721.7773" fill="#222222" rx="6" ry="6" style="stroke:#222222;stroke-width:1;"/><polygon fill="#EEF4FF" points="91.3123,1599.8906,222.2703,1599.8906,234.2703,1611.8906,222.2703,1623.8906,91.3123,1623.8906,79.3123,1611.8906,91.3123,1599.8906" style="stroke:#2F6FED;stroke-width:0.5;stroke-linejoin:miter;stroke-miterlimit:10;"/><text fill="#000000" font-family="sans-serif" font-size="11" lengthAdjust="spacing" textLength="13.46" x="160.7913" y="1634.1011">Ya</text><text fill="#000000" font-family="sans-serif" font-size="11" lengthAdjust="spacing" textLength="130.958" x="91.3123" y="1615.6987">Password &lt; 8 karakter?</text><rect fill="#EEF4FF" height="33.9688" rx="12.5" ry="12.5" style="stroke:#2F6FED;stroke-width:0.5;" width="207.9688" x="52.8069" y="1774.7773"/><text fill="#000000" font-family="sans-serif" font-size="12" lengthAdjust="spacing" textLength="187.9688" x="62.8069" y="1795.916">Hash token dari URL (SHA-256)</text><rect fill="#EEF4FF" height="47.9375" rx="12.5" ry="12.5" style="stroke:#2F6FED;stroke-width:0.5;" width="207.8809" x="52.8508" y="1828.7461"/><text fill="#000000" font-family="sans-serif" font-size="12" lengthAdjust="spacing" textLength="178.5879" x="62.8508" y="1849.8848">Query DB &#8212; cari user dengan</text><text fill="#000000" font-family="sans-serif" font-size="12" lengthAdjust="spacing" textLength="187.8809" x="62.8508" y="1863.8535">hashed token &amp; expiry &gt; now()</text><rect fill="#EEF4FF" height="33.9688" rx="12.5" ry="12.5" style="stroke:#2F6FED;stroke-width:0.5;" width="151.9414" x="80.8206" y="1945.0859"/><text fill="#000000" font-family="sans-serif" font-size="12" lengthAdjust="spacing" textLength="131.9414" x="90.8206" y="1966.2246">Kembalikan HTTP 400</text><ellipse cx="156.7913" cy="2018.5703" fill="none" rx="11" ry="11" style="stroke:#222222;stroke-width:1;"/><ellipse cx="156.7913" cy="2018.5703" fill="#222222" rx="6" ry="6" style="stroke:#222222;stroke-width:1;"/><polygon fill="#EEF4FF" points="80.5486,1896.6836,233.0339,1896.6836,245.0339,1908.6836,233.0339,1920.6836,80.5486,1920.6836,68.5486,1908.6836,80.5486,1896.6836" style="stroke:#2F6FED;stroke-width:0.5;stroke-linejoin:miter;stroke-miterlimit:10;"/><text fill="#000000" font-family="sans-serif" font-size="11" lengthAdjust="spacing" textLength="13.46" x="160.7913" y="1930.894">Ya</text><text fill="#000000" font-family="sans-serif" font-size="11" lengthAdjust="spacing" textLength="152.4854" x="80.5486" y="1912.4917">Token tidak valid / expired?</text><rect fill="#EEF4FF" height="33.9688" rx="12.5" ry="12.5" style="stroke:#2F6FED;stroke-width:0.5;" width="238.8477" x="37.3674" y="2071.5703"/><text fill="#000000" font-family="sans-serif" font-size="12" lengthAdjust="spacing" textLength="218.8477" x="47.3674" y="2092.709">Hash password baru (bcrypt salt 12)</text><rect fill="#EEF4FF" height="75.875" rx="12.5" ry="12.5" style="stroke:#2F6FED;stroke-width:0.5;" width="193.3848" x="60.0989" y="2125.5391"/><text fill="#000000" font-family="sans-serif" font-size="12" lengthAdjust="spacing" textLength="68.7891" x="70.0989" y="2146.6777">Update DB:</text><text fill="#000000" font-family="sans-serif" font-size="12" lengthAdjust="spacing" textLength="173.3848" x="70.0989" y="2160.6465">- passwordHash = hash baru</text><text fill="#000000" font-family="sans-serif" font-size="12" lengthAdjust="spacing" textLength="114.9727" x="70.0989" y="2174.6152">- resetToken = null</text><text fill="#000000" font-family="sans-serif" font-size="12" lengthAdjust="spacing" textLength="152.6426" x="70.0989" y="2188.584">- resetTokenExpiry = null</text><rect fill="#EEF4FF" height="47.9375" rx="12.5" ry="12.5" style="stroke:#2F6FED;stroke-width:0.5;" width="184.4141" x="64.5842" y="2221.4141"/><text fill="#000000" font-family="sans-serif" font-size="12" lengthAdjust="spacing" textLength="131.9414" x="74.5842" y="2242.5527">Kembalikan HTTP 200</text><text fill="#000000" font-family="sans-serif" font-size="12" lengthAdjust="spacing" textLength="164.4141" x="74.5842" y="2256.5215">"Password berhasil diubah"</text><ellipse cx="156.7913" cy="2312.3516" fill="none" rx="11" ry="11" style="stroke:#222222;stroke-width:1;"/><ellipse cx="156.7913" cy="2312.3516" fill="#222222" rx="6" ry="6" style="stroke:#222222;stroke-width:1;"/><line style="stroke:#2F6FED;stroke-width:1;" x1="156.7913" x2="156.7913" y1="185.1563" y2="205.1563"/><polygon fill="#2F6FED" points="152.7913,195.1563,156.7913,205.1563,160.7913,195.1563,156.7913,199.1563" style="stroke:#2F6FED;stroke-width:1;stroke-linejoin:miter;stroke-miterlimit:10;"/><line style="stroke:#2F6FED;stroke-width:1;" x1="156.7913" x2="156.7913" y1="355.4648" y2="383.9805"/><polygon fill="#2F6FED" points="152.7913,373.9805,156.7913,383.9805,160.7913,373.9805,156.7913,377.9805" style="stroke:#2F6FED;stroke-width:1;stroke-linejoin:miter;stroke-miterlimit:10;"/><line style="stroke:#2F6FED;stroke-width:1;" x1="156.7913" x2="156.7913" y1="297.0938" y2="321.4961"/><polygon fill="#2F6FED" points="152.7913,311.4961,156.7913,321.4961,160.7913,311.4961,156.7913,315.4961" style="stroke:#2F6FED;stroke-width:1;stroke-linejoin:miter;stroke-miterlimit:10;"/><line style="stroke:#2F6FED;stroke-width:1;" x1="222.623" x2="242.762" y1="285.0938" y2="285.0938"/><polygon fill="#2F6FED" points="238.762,353.9805,242.762,363.9805,246.762,353.9805,242.762,357.9805" style="stroke:#2F6FED;stroke-width:1;stroke-linejoin:miter;stroke-miterlimit:10;"/><line style="stroke:#2F6FED;stroke-width:1;" x1="242.762" x2="242.762" y1="285.0938" y2="427.9805"/><line style="stroke:#2F6FED;stroke-width:1;" x1="242.762" x2="156.7913" y1="427.9805" y2="427.9805"/><line style="stroke:#2F6FED;stroke-width:1;" x1="156.7913" x2="156.7913" y1="427.9805" y2="447.9805"/><polygon fill="#2F6FED" points="152.7913,437.9805,156.7913,447.9805,160.7913,437.9805,156.7913,441.9805" style="stroke:#2F6FED;stroke-width:1;stroke-linejoin:miter;stroke-miterlimit:10;"/><line style="stroke:#2F6FED;stroke-width:1;" x1="156.7913" x2="156.7913" y1="253.0938" y2="273.0938"/><polygon fill="#2F6FED" points="152.7913,263.0938,156.7913,273.0938,160.7913,263.0938,156.7913,267.0938" style="stroke:#2F6FED;stroke-width:1;stroke-linejoin:miter;stroke-miterlimit:10;"/><line style="stroke:#2F6FED;stroke-width:1;" x1="156.7913" x2="156.7913" y1="530.3516" y2="558.8672"/><polygon fill="#2F6FED" points="152.7913,548.8672,156.7913,558.8672,160.7913,548.8672,156.7913,552.8672" style="stroke:#2F6FED;stroke-width:1;stroke-linejoin:miter;stroke-miterlimit:10;"/><line style="stroke:#2F6FED;stroke-width:1;" x1="156.7913" x2="156.7913" y1="471.9805" y2="496.3828"/><polygon fill="#2F6FED" points="152.7913,486.3828,156.7913,496.3828,160.7913,486.3828,156.7913,490.3828" style="stroke:#2F6FED;stroke-width:1;stroke-linejoin:miter;stroke-miterlimit:10;"/><line style="stroke:#2F6FED;stroke-width:1;" x1="259.1707" x2="271.1707" y1="459.9805" y2="459.9805"/><polygon fill="#2F6FED" points="267.1707,528.8672,271.1707,538.8672,275.1707,528.8672,271.1707,532.8672" style="stroke:#2F6FED;stroke-width:1;stroke-linejoin:miter;stroke-miterlimit:10;"/><line style="stroke:#2F6FED;stroke-width:1;" x1="271.1707" x2="271.1707" y1="459.9805" y2="602.8672"/><line style="stroke:#2F6FED;stroke-width:1;" x1="271.1707" x2="156.7913" y1="602.8672" y2="602.8672"/><line style="stroke:#2F6FED;stroke-width:1;" x1="156.7913" x2="156.7913" y1="602.8672" y2="622.8672"/><polygon fill="#2F6FED" points="152.7913,612.8672,156.7913,622.8672,160.7913,612.8672,156.7913,616.8672" style="stroke:#2F6FED;stroke-width:1;stroke-linejoin:miter;stroke-miterlimit:10;"/><line style="stroke:#2F6FED;stroke-width:1;" x1="156.7913" x2="156.7913" y1="787.1445" y2="807.1445"/><polygon fill="#2F6FED" points="152.7913,797.1445,156.7913,807.1445,160.7913,797.1445,156.7913,801.1445" style="stroke:#2F6FED;stroke-width:1;stroke-linejoin:miter;stroke-miterlimit:10;"/><line style="stroke:#2F6FED;stroke-width:1;" x1="156.7913" x2="156.7913" y1="700.8359" y2="725.2383"/><polygon fill="#2F6FED" points="152.7913,715.2383,156.7913,725.2383,160.7913,715.2383,156.7913,719.2383" style="stroke:#2F6FED;stroke-width:1;stroke-linejoin:miter;stroke-miterlimit:10;"/><line style="stroke:#2F6FED;stroke-width:1;" x1="230.9187" x2="248.6008" y1="688.8359" y2="688.8359"/><polygon fill="#2F6FED" points="244.6008,771.6914,248.6008,781.6914,252.6008,771.6914,248.6008,775.6914" style="stroke:#2F6FED;stroke-width:1;stroke-linejoin:miter;stroke-miterlimit:10;"/><line style="stroke:#2F6FED;stroke-width:1;" x1="248.6008" x2="248.6008" y1="688.8359" y2="851.1445"/><line style="stroke:#2F6FED;stroke-width:1;" x1="248.6008" x2="156.7913" y1="851.1445" y2="851.1445"/><line style="stroke:#2F6FED;stroke-width:1;" x1="156.7913" x2="156.7913" y1="851.1445" y2="871.1445"/><polygon fill="#2F6FED" points="152.7913,861.1445,156.7913,871.1445,160.7913,861.1445,156.7913,865.1445" style="stroke:#2F6FED;stroke-width:1;stroke-linejoin:miter;stroke-miterlimit:10;"/><line style="stroke:#2F6FED;stroke-width:1;" x1="156.7913" x2="156.7913" y1="656.8359" y2="676.8359"/><polygon fill="#2F6FED" points="152.7913,666.8359,156.7913,676.8359,160.7913,666.8359,156.7913,670.8359" style="stroke:#2F6FED;stroke-width:1;stroke-linejoin:miter;stroke-miterlimit:10;"/><line style="stroke:#2F6FED;stroke-width:1;" x1="156.7913" x2="156.7913" y1="919.082" y2="939.082"/><polygon fill="#2F6FED" points="152.7913,929.082,156.7913,939.082,160.7913,929.082,156.7913,933.082" style="stroke:#2F6FED;stroke-width:1;stroke-linejoin:miter;stroke-miterlimit:10;"/><line style="stroke:#2F6FED;stroke-width:1;" x1="156.7913" x2="156.7913" y1="973.0508" y2="993.0508"/><polygon fill="#2F6FED" points="152.7913,983.0508,156.7913,993.0508,160.7913,983.0508,156.7913,987.0508" style="stroke:#2F6FED;stroke-width:1;stroke-linejoin:miter;stroke-miterlimit:10;"/><line style="stroke:#2F6FED;stroke-width:1;" x1="156.7913" x2="156.7913" y1="1040.9883" y2="1060.9883"/><polygon fill="#2F6FED" points="152.7913,1050.9883,156.7913,1060.9883,160.7913,1050.9883,156.7913,1054.9883" style="stroke:#2F6FED;stroke-width:1;stroke-linejoin:miter;stroke-miterlimit:10;"/><line style="stroke:#2F6FED;stroke-width:1;" x1="156.7913" x2="156.7913" y1="1108.9258" y2="1128.9258"/><polygon fill="#2F6FED" points="152.7913,1118.9258,156.7913,1128.9258,160.7913,1118.9258,156.7913,1122.9258" style="stroke:#2F6FED;stroke-width:1;stroke-linejoin:miter;stroke-miterlimit:10;"/><line style="stroke:#2F6FED;stroke-width:1;" x1="156.7913" x2="156.7913" y1="104.8906" y2="151.1875"/><polygon fill="#2F6FED" points="152.7913,141.1875,156.7913,151.1875,160.7913,141.1875,156.7913,145.1875" style="stroke:#2F6FED;stroke-width:1;stroke-linejoin:miter;stroke-miterlimit:10;"/><line style="stroke:#2F6FED;stroke-width:1;" x1="156.7913" x2="156.7913" y1="1283.0977" y2="1303.0977"/><polygon fill="#2F6FED" points="152.7913,1293.0977,156.7913,1303.0977,160.7913,1293.0977,156.7913,1297.0977" style="stroke:#2F6FED;stroke-width:1;stroke-linejoin:miter;stroke-miterlimit:10;"/><line style="stroke:#2F6FED;stroke-width:1;" x1="156.7913" x2="156.7913" y1="1337.0664" y2="1357.0664"/><polygon fill="#2F6FED" points="152.7913,1347.0664,156.7913,1357.0664,160.7913,1347.0664,156.7913,1351.0664" style="stroke:#2F6FED;stroke-width:1;stroke-linejoin:miter;stroke-miterlimit:10;"/><line style="stroke:#2F6FED;stroke-width:1;" x1="156.7913" x2="156.7913" y1="1507.375" y2="1535.8906"/><polygon fill="#2F6FED" points="152.7913,1525.8906,156.7913,1535.8906,160.7913,1525.8906,156.7913,1529.8906" style="stroke:#2F6FED;stroke-width:1;stroke-linejoin:miter;stroke-miterlimit:10;"/><line style="stroke:#2F6FED;stroke-width:1;" x1="156.7913" x2="156.7913" y1="1449.0039" y2="1473.4063"/><polygon fill="#2F6FED" points="152.7913,1463.4063,156.7913,1473.4063,160.7913,1463.4063,156.7913,1467.4063" style="stroke:#2F6FED;stroke-width:1;stroke-linejoin:miter;stroke-miterlimit:10;"/><line style="stroke:#2F6FED;stroke-width:1;" x1="258.0374" x2="270.0374" y1="1437.0039" y2="1437.0039"/><polygon fill="#2F6FED" points="266.0374,1505.8906,270.0374,1515.8906,274.0374,1505.8906,270.0374,1509.8906" style="stroke:#2F6FED;stroke-width:1;stroke-linejoin:miter;stroke-miterlimit:10;"/><line style="stroke:#2F6FED;stroke-width:1;" x1="270.0374" x2="270.0374" y1="1437.0039" y2="1579.8906"/><line style="stroke:#2F6FED;stroke-width:1;" x1="270.0374" x2="156.7913" y1="1579.8906" y2="1579.8906"/><line style="stroke:#2F6FED;stroke-width:1;" x1="156.7913" x2="156.7913" y1="1579.8906" y2="1599.8906"/><polygon fill="#2F6FED" points="152.7913,1589.8906,156.7913,1599.8906,160.7913,1589.8906,156.7913,1593.8906" style="stroke:#2F6FED;stroke-width:1;stroke-linejoin:miter;stroke-miterlimit:10;"/><line style="stroke:#2F6FED;stroke-width:1;" x1="156.7913" x2="156.7913" y1="1405.0039" y2="1425.0039"/><polygon fill="#2F6FED" points="152.7913,1415.0039,156.7913,1425.0039,160.7913,1415.0039,156.7913,1419.0039" style="stroke:#2F6FED;stroke-width:1;stroke-linejoin:miter;stroke-miterlimit:10;"/><line style="stroke:#2F6FED;stroke-width:1;" x1="156.7913" x2="156.7913" y1="1682.2617" y2="1710.7773"/><polygon fill="#2F6FED" points="152.7913,1700.7773,156.7913,1710.7773,160.7913,1700.7773,156.7913,1704.7773" style="stroke:#2F6FED;stroke-width:1;stroke-linejoin:miter;stroke-miterlimit:10;"/><line style="stroke:#2F6FED;stroke-width:1;" x1="156.7913" x2="156.7913" y1="1623.8906" y2="1648.293"/><polygon fill="#2F6FED" points="152.7913,1638.293,156.7913,1648.293,160.7913,1638.293,156.7913,1642.293" style="stroke:#2F6FED;stroke-width:1;stroke-linejoin:miter;stroke-miterlimit:10;"/><line style="stroke:#2F6FED;stroke-width:1;" x1="234.2703" x2="246.2703" y1="1611.8906" y2="1611.8906"/><polygon fill="#2F6FED" points="242.2703,1680.7773,246.2703,1690.7773,250.2703,1680.7773,246.2703,1684.7773" style="stroke:#2F6FED;stroke-width:1;stroke-linejoin:miter;stroke-miterlimit:10;"/><line style="stroke:#2F6FED;stroke-width:1;" x1="246.2703" x2="246.2703" y1="1611.8906" y2="1754.7773"/><line style="stroke:#2F6FED;stroke-width:1;" x1="246.2703" x2="156.7913" y1="1754.7773" y2="1754.7773"/><line style="stroke:#2F6FED;stroke-width:1;" x1="156.7913" x2="156.7913" y1="1754.7773" y2="1774.7773"/><polygon fill="#2F6FED" points="152.7913,1764.7773,156.7913,1774.7773,160.7913,1764.7773,156.7913,1768.7773" style="stroke:#2F6FED;stroke-width:1;stroke-linejoin:miter;stroke-miterlimit:10;"/><line style="stroke:#2F6FED;stroke-width:1;" x1="156.7913" x2="156.7913" y1="1808.7461" y2="1828.7461"/><polygon fill="#2F6FED" points="152.7913,1818.7461,156.7913,1828.7461,160.7913,1818.7461,156.7913,1822.7461" style="stroke:#2F6FED;stroke-width:1;stroke-linejoin:miter;stroke-miterlimit:10;"/><line style="stroke:#2F6FED;stroke-width:1;" x1="156.7913" x2="156.7913" y1="1979.0547" y2="2007.5703"/><polygon fill="#2F6FED" points="152.7913,1997.5703,156.7913,2007.5703,160.7913,1997.5703,156.7913,2001.5703" style="stroke:#2F6FED;stroke-width:1;stroke-linejoin:miter;stroke-miterlimit:10;"/><line style="stroke:#2F6FED;stroke-width:1;" x1="156.7913" x2="156.7913" y1="1920.6836" y2="1945.0859"/><polygon fill="#2F6FED" points="152.7913,1935.0859,156.7913,1945.0859,160.7913,1935.0859,156.7913,1939.0859" style="stroke:#2F6FED;stroke-width:1;stroke-linejoin:miter;stroke-miterlimit:10;"/><line style="stroke:#2F6FED;stroke-width:1;" x1="245.0339" x2="257.0339" y1="1908.6836" y2="1908.6836"/><polygon fill="#2F6FED" points="253.0339,1977.5703,257.0339,1987.5703,261.0339,1977.5703,257.0339,1981.5703" style="stroke:#2F6FED;stroke-width:1;stroke-linejoin:miter;stroke-miterlimit:10;"/><line style="stroke:#2F6FED;stroke-width:1;" x1="257.0339" x2="257.0339" y1="1908.6836" y2="2051.5703"/><line style="stroke:#2F6FED;stroke-width:1;" x1="257.0339" x2="156.7913" y1="2051.5703" y2="2051.5703"/><line style="stroke:#2F6FED;stroke-width:1;" x1="156.7913" x2="156.7913" y1="2051.5703" y2="2071.5703"/><polygon fill="#2F6FED" points="152.7913,2061.5703,156.7913,2071.5703,160.7913,2061.5703,156.7913,2065.5703" style="stroke:#2F6FED;stroke-width:1;stroke-linejoin:miter;stroke-miterlimit:10;"/><line style="stroke:#2F6FED;stroke-width:1;" x1="156.7913" x2="156.7913" y1="1876.6836" y2="1896.6836"/><polygon fill="#2F6FED" points="152.7913,1886.6836,156.7913,1896.6836,160.7913,1886.6836,156.7913,1890.6836" style="stroke:#2F6FED;stroke-width:1;stroke-linejoin:miter;stroke-miterlimit:10;"/><line style="stroke:#2F6FED;stroke-width:1;" x1="156.7913" x2="156.7913" y1="2105.5391" y2="2125.5391"/><polygon fill="#2F6FED" points="152.7913,2115.5391,156.7913,2125.5391,160.7913,2115.5391,156.7913,2119.5391" style="stroke:#2F6FED;stroke-width:1;stroke-linejoin:miter;stroke-miterlimit:10;"/><line style="stroke:#2F6FED;stroke-width:1;" x1="156.7913" x2="156.7913" y1="2201.4141" y2="2221.4141"/><polygon fill="#2F6FED" points="152.7913,2211.4141,156.7913,2221.4141,160.7913,2211.4141,156.7913,2215.4141" style="stroke:#2F6FED;stroke-width:1;stroke-linejoin:miter;stroke-miterlimit:10;"/><line style="stroke:#2F6FED;stroke-width:1;" x1="156.7913" x2="156.7913" y1="1176.8633" y2="1235.1602"/><polygon fill="#2F6FED" points="152.7913,1225.1602,156.7913,1235.1602,160.7913,1225.1602,156.7913,1229.1602" style="stroke:#2F6FED;stroke-width:1;stroke-linejoin:miter;stroke-miterlimit:10;"/><line style="stroke:#2F6FED;stroke-width:1;" x1="156.7913" x2="156.7913" y1="2269.3516" y2="2301.3516"/><polygon fill="#2F6FED" points="152.7913,2291.3516,156.7913,2301.3516,160.7913,2291.3516,156.7913,2295.3516" style="stroke:#2F6FED;stroke-width:1;stroke-linejoin:miter;stroke-miterlimit:10;"/><?plantuml-src fLJRRjf047ttLuoe585IoYKaRQ5f519ef4Gg3UIX4Y-3Tu2jxLrtlGwWA58_eb_OB-bu3LP8GbCfRxRdpDcpPyxOIXiIzC-gzLORJiFKm5KQ8-p1DILaOO19ij16ZDNWwt04DOnb3LCxhqsrcMbRZNVLJTPUb3ql2QIAqM04fxwLjzAkkkW7CwDJ9Svqg0sywVNwhNx_EIGpa5cZcjEZAOc7A6FqOcTnJJ6qQEnBe5uXXTwt_0EVLMTj7gEij58hA8rmZZ4quC-ltz1t5XGMbU3E0sWFICrcgKA8C4c301LGX3BiPBKp2i2W9GXb9ErObICC4ZW0Gp-X1er3Y4X9M-bu39PJA5yNMB1aV8nHdbJ0pab1-JjM6CMabnHDC9JPIHUZqG1QpOyTLqciZlc1b93J3MClqmA1JhIQ0LfCWGSPeOK4Gvp_1tcz_Znv-rjAPWNdNMUDZqP2cf0fhdB3Bs2bm024j1IbJFdoSSrwVQnYIlXzHegC3DWqL3Odhv9A8s93UJIL7RA-P6sPZGQLq15O7P1Y4j-iOglVvL-xAqiyXwOZQLzWCizn87YOVFRmuhJQF3norQ6COluqPn29DMmVQ1bBisBU_GRymAW20R4Nhk5I6Xdb8O09No6HOnLAnKbm6rREAU8GfRAqjBc6buteUFVUqsGsdVtRk_iuc07pWbCWPAwBTJzQs1EdwdYvNEPwdgPwWuG9clJ1HV_v7nYhEqVy5XGjDlhkYv2Cd1KkbWLzdXaK-8fmPjoRq-0JV820zpxWbNfDu1_698lxpVKLbDT9oKrxVYNMeHghhGZjhIC4dq7fHRdoo9FSXLjM9lXFuQ0aNgr-QuPGdhYbo7u55XhhPRY9HROzvztsM5MB1jTzx9R0zMOrD-bSxJ6eD0otF_Row-MbtHal5NFYNM5-NXeXqmdEIrdWisly1G00?></g></svg>