<svg xmlns="http://www.w3.org/2000/svg" xmlns:xlink="http://www.w3.org/1999/xlink" contentStyleType="text/css" data-diagram-type="ACTIVITY" height="919px" preserveAspectRatio="none" style="width:705px;height:919px;background:#FFFFFF;" version="1.1" viewBox="0 0 705 919" width="705px" zoomAndPan="magnify"><?plantuml 1.2026.5?><defs/><g><g class="title" data-source-line="1"><text fill="#000000" font-family="sans-serif" font-size="14" font-weight="700" lengthAdjust="spacing" textLength="240.1875" x="231.6436" y="32.9951">FC-10: Alur Pusat Data Hukum</text><text fill="#000000" font-family="sans-serif" font-size="14" font-weight="700" lengthAdjust="spacing" textLength="339.2402" x="182.1172" y="49.292">GET /api/regulations &amp; /api/regulations/[id]</text></g><ellipse cx="350.5186" cy="78.5938" fill="#2F6FED" rx="10" ry="10" style="stroke:#222222;stroke-width:1;"/><line style="stroke:#2F6FED;stroke-width:1.5;" x1="171.9043" x2="525.4442" y1="108.5938" y2="108.5938"/><rect fill="none" height="718.8984" style="stroke:#000000;stroke-width:1.5;" width="330.6548" x="16" y="118.5938"/><path d="M299.4102,118.5938 L299.4102,127.8906 L289.4102,137.8906 L16,137.8906" fill="none" style="stroke:#000000;stroke-width:1.5;"/><text fill="#000000" font-family="sans-serif" font-size="14" lengthAdjust="spacing" textLength="273.4102" x="19" y="132.5889">GET /api/regulations &#8212; Daftar Regulasi</text><rect fill="#EEF4FF" height="47.9375" rx="12.5" ry="12.5" style="stroke:#2F6FED;stroke-width:0.5;" width="287.8086" x="28" y="154.8906"/><text fill="#000000" font-family="sans-serif" font-size="12" lengthAdjust="spacing" textLength="121.6523" x="38" y="176.0293">Ambil query params</text><text fill="#000000" font-family="sans-serif" font-size="12" lengthAdjust="spacing" textLength="267.8086" x="38" y="189.998">(page, limit, search, category, sortBy, order)</text><rect fill="#EEF4FF" height="61.9063" rx="12.5" ry="12.5" style="stroke:#2F6FED;stroke-width:0.5;" width="254.8027" x="44.5029" y="226.8555"/><text fill="#000000" font-family="sans-serif" font-size="12" lengthAdjust="spacing" textLength="80.373" x="54.5029" y="247.9941">Sanitasi nilai:</text><text fill="#000000" font-family="sans-serif" font-size="12" lengthAdjust="spacing" textLength="203.3145" x="54.5029" y="261.9629">- page: Math.max(1, parseInt || 1)</text><text fill="#000000" font-family="sans-serif" font-size="12" lengthAdjust="spacing" textLength="234.8027" x="54.5029" y="275.9316">- limit: Math.min(100, Math.max(1, ...))</text><rect fill="#EEF4FF" height="47.9375" rx="12.5" ry="12.5" style="stroke:#2F6FED;stroke-width:0.5;" width="287.2285" x="28.29" y="372.1641"/><text fill="#000000" font-family="sans-serif" font-size="12" lengthAdjust="spacing" textLength="130.3125" x="38.29" y="393.3027">Simpan ke SearchLog</text><text fill="#000000" font-family="sans-serif" font-size="12" lengthAdjust="spacing" textLength="267.2285" x="38.29" y="407.2715">(async fire-and-forget, tidak block response)</text><polygon fill="#EEF4FF" points="107.4377,323.7617,236.3708,323.7617,248.3708,335.7617,236.3708,347.7617,107.4377,347.7617,95.4377,335.7617,107.4377,323.7617" style="stroke:#2F6FED;stroke-width:0.5;stroke-linejoin:miter;stroke-miterlimit:10;"/><text fill="#000000" font-family="sans-serif" font-size="11" lengthAdjust="spacing" textLength="13.46" x="175.9043" y="357.9722">Ya</text><text fill="#000000" font-family="sans-serif" font-size="11" lengthAdjust="spacing" textLength="128.9331" x="107.4377" y="339.5698">Ada parameter search?</text><polygon fill="#EEF4FF" points="171.9043,444.5039,183.9043,456.5039,171.9043,468.5039,159.9043,456.5039,171.9043,444.5039" style="stroke:#2F6FED;stroke-width:0.5;stroke-linejoin:miter;stroke-miterlimit:10;"/><rect fill="#EEF4FF" height="75.875" rx="12.5" ry="12.5" style="stroke:#2F6FED;stroke-width:0.5;" width="234.1133" x="54.8477" y="495.4375"/><text fill="#000000" font-family="sans-serif" font-size="12" lengthAdjust="spacing" textLength="121.9688" x="64.8477" y="516.5762">Susun whereClause:</text><text fill="#000000" font-family="sans-serif" font-size="12" lengthAdjust="spacing" textLength="87.5449" x="64.8477" y="530.5449">- isActive: true</text><text fill="#000000" font-family="sans-serif" font-size="12" lengthAdjust="spacing" textLength="214.1133" x="64.8477" y="544.5137">- search: OR(title, description) ILIKE</text><text fill="#000000" font-family="sans-serif" font-size="12" lengthAdjust="spacing" textLength="192.7734" x="64.8477" y="558.4824">- category (jika bukan "Semua")</text><rect fill="#EEF4FF" height="61.9063" rx="12.5" ry="12.5" style="stroke:#2F6FED;stroke-width:0.5;" width="130.666" x="106.5713" y="599.8281"/><text fill="#000000" font-family="sans-serif" font-size="12" lengthAdjust="spacing" textLength="70.0488" x="116.5713" y="620.9668">Promise.all:</text><text fill="#000000" font-family="sans-serif" font-size="12" lengthAdjust="spacing" textLength="110.666" x="116.5713" y="634.9355">1. findMany (data)</text><text fill="#000000" font-family="sans-serif" font-size="12" lengthAdjust="spacing" textLength="89.7363" x="116.5713" y="648.9043">2. count (total)</text><rect fill="#EEF4FF" height="47.9375" rx="12.5" ry="12.5" style="stroke:#2F6FED;stroke-width:0.5;" width="195.541" x="74.1338" y="691.6758"/><text fill="#000000" font-family="sans-serif" font-size="12" lengthAdjust="spacing" textLength="142.5176" x="84.1338" y="712.8145">Hitung pagination meta</text><text fill="#000000" font-family="sans-serif" font-size="12" lengthAdjust="spacing" textLength="175.541" x="84.1338" y="726.7832">(totalPages, currentPage, dll)</text><rect fill="#EEF4FF" height="47.9375" rx="12.5" ry="12.5" style="stroke:#2F6FED;stroke-width:0.5;" width="151.9414" x="95.9336" y="769.5547"/><text fill="#000000" font-family="sans-serif" font-size="12" lengthAdjust="spacing" textLength="131.9414" x="105.9336" y="790.6934">Kembalikan HTTP 200</text><text fill="#000000" font-family="sans-serif" font-size="12" lengthAdjust="spacing" textLength="81.0586" x="105.9336" y="804.6621">{data, meta}</text><rect fill="none" height="699.0156" style="stroke:#000000;stroke-width:1.5;" width="313.9561" x="371.5186" y="128.5352"/><path d="M680.4746,128.5352 L680.4746,137.832 L670.4746,147.832 L371.5186,147.832" fill="none" style="stroke:#000000;stroke-width:1.5;"/><text fill="#000000" font-family="sans-serif" font-size="14" lengthAdjust="spacing" textLength="298.9561" x="374.5186" y="142.5303">GET /api/regulations/[id] &#8212; Detail Regulasi</text><rect fill="#EEF4FF" height="33.9688" rx="12.5" ry="12.5" style="stroke:#2F6FED;stroke-width:0.5;" width="172.6367" x="439.1259" y="164.832"/><text fill="#000000" font-family="sans-serif" font-size="12" lengthAdjust="spacing" textLength="152.6367" x="449.1259" y="185.9707">Ambil id dari URL params</text><rect fill="#EEF4FF" height="33.9688" rx="12.5" ry="12.5" style="stroke:#2F6FED;stroke-width:0.5;" width="77.6387" x="486.6249" y="271.2305"/><text fill="#000000" font-family="sans-serif" font-size="12" lengthAdjust="spacing" textLength="57.6387" x="496.6249" y="292.3691">HTTP 400</text><ellipse cx="525.4442" cy="351.1992" fill="none" rx="11" ry="11" style="stroke:#222222;stroke-width:1;"/><ellipse cx="525.4442" cy="351.1992" fill="#222222" rx="6" ry="6" style="stroke:#222222;stroke-width:1;"/><polygon fill="#EEF4FF" points="490.046,222.8281,560.8424,222.8281,572.8424,234.8281,560.8424,246.8281,490.046,246.8281,478.046,234.8281,490.046,222.8281" style="stroke:#2F6FED;stroke-width:0.5;stroke-linejoin:miter;stroke-miterlimit:10;"/><text fill="#000000" font-family="sans-serif" font-size="11" lengthAdjust="spacing" textLength="13.46" x="529.4442" y="257.0386">Ya</text><text fill="#000000" font-family="sans-serif" font-size="11" lengthAdjust="spacing" textLength="70.7964" x="490.046" y="238.6362">id tidak ada?</text><rect fill="#EEF4FF" height="33.9688" rx="12.5" ry="12.5" style="stroke:#2F6FED;stroke-width:0.5;" width="179.041" x="435.9237" y="427.6016"/><text fill="#000000" font-family="sans-serif" font-size="12" lengthAdjust="spacing" textLength="159.041" x="445.9237" y="448.7402">findUnique berdasarkan id</text><rect fill="#EEF4FF" height="33.9688" rx="12.5" ry="12.5" style="stroke:#2F6FED;stroke-width:0.5;" width="77.6387" x="486.6249" y="536.9063"/><text fill="#000000" font-family="sans-serif" font-size="12" lengthAdjust="spacing" textLength="57.6387" x="496.6249" y="558.0449">HTTP 404</text><ellipse cx="525.4442" cy="610.3906" fill="none" rx="11" ry="11" style="stroke:#222222;stroke-width:1;"/><ellipse cx="525.4442" cy="610.3906" fill="#222222" rx="6" ry="6" style="stroke:#222222;stroke-width:1;"/><polygon fill="#EEF4FF" points="452.3785,488.5039,598.5099,488.5039,610.5099,500.5039,598.5099,512.5039,452.3785,512.5039,440.3785,500.5039,452.3785,488.5039" style="stroke:#2F6FED;stroke-width:0.5;stroke-linejoin:miter;stroke-miterlimit:10;"/><text fill="#000000" font-family="sans-serif" font-size="11" lengthAdjust="spacing" textLength="13.46" x="529.4442" y="522.7144">Ya</text><text fill="#000000" font-family="sans-serif" font-size="11" lengthAdjust="spacing" textLength="146.1313" x="452.3785" y="504.312">Regulasi tidak ditemukan?</text><rect fill="#EEF4FF" height="47.9375" rx="12.5" ry="12.5" style="stroke:#2F6FED;stroke-width:0.5;" width="189.9219" x="430.4833" y="681.7344"/><text fill="#000000" font-family="sans-serif" font-size="12" lengthAdjust="spacing" textLength="150.0293" x="440.4833" y="702.873">Increment viewCount +1</text><text fill="#000000" font-family="sans-serif" font-size="12" lengthAdjust="spacing" textLength="169.9219" x="440.4833" y="716.8418">(fire-and-forget, tidak block)</text><rect fill="#EEF4FF" height="47.9375" rx="12.5" ry="12.5" style="stroke:#2F6FED;stroke-width:0.5;" width="151.9414" x="449.4735" y="759.6133"/><text fill="#000000" font-family="sans-serif" font-size="12" lengthAdjust="spacing" textLength="131.9414" x="459.4735" y="780.752">Kembalikan HTTP 200</text><text fill="#000000" font-family="sans-serif" font-size="12" lengthAdjust="spacing" textLength="111.3691" x="459.4735" y="794.7207">{data: regulation}</text><line style="stroke:#2F6FED;stroke-width:1.5;" x1="171.9043" x2="525.4442" y1="857.4922" y2="857.4922"/><ellipse cx="350.5186" cy="888.4922" fill="none" rx="11" ry="11" style="stroke:#222222;stroke-width:1;"/><ellipse cx="350.5186" cy="888.4922" fill="#222222" rx="6" ry="6" style="stroke:#222222;stroke-width:1;"/><line style="stroke:#2F6FED;stroke-width:1;" x1="171.9043" x2="171.9043" y1="202.8281" y2="226.8555"/><polygon fill="#2F6FED" points="167.9043,216.8555,171.9043,226.8555,175.9043,216.8555,171.9043,220.8555" style="stroke:#2F6FED;stroke-width:1;stroke-linejoin:miter;stroke-miterlimit:10;"/><line style="stroke:#2F6FED;stroke-width:1;" x1="171.9043" x2="171.9043" y1="347.7617" y2="372.1641"/><polygon fill="#2F6FED" points="167.9043,362.1641,171.9043,372.1641,175.9043,362.1641,171.9043,366.1641" style="stroke:#2F6FED;stroke-width:1;stroke-linejoin:miter;stroke-miterlimit:10;"/><line style="stroke:#2F6FED;stroke-width:1;" x1="248.3708" x2="325.5186" y1="335.7617" y2="335.7617"/><polygon fill="#2F6FED" points="321.5186,386.1328,325.5186,396.1328,329.5186,386.1328,325.5186,390.1328" style="stroke:#2F6FED;stroke-width:1;stroke-linejoin:miter;stroke-miterlimit:10;"/><line style="stroke:#2F6FED;stroke-width:1;" x1="325.5186" x2="325.5186" y1="335.7617" y2="456.5039"/><line style="stroke:#2F6FED;stroke-width:1;" x1="325.5186" x2="183.9043" y1="456.5039" y2="456.5039"/><polygon fill="#2F6FED" points="193.9043,452.5039,183.9043,456.5039,193.9043,460.5039,189.9043,456.5039" style="stroke:#2F6FED;stroke-width:1;stroke-linejoin:miter;stroke-miterlimit:10;"/><line style="stroke:#2F6FED;stroke-width:1;" x1="171.9043" x2="171.9043" y1="420.1016" y2="444.5039"/><polygon fill="#2F6FED" points="167.9043,434.5039,171.9043,444.5039,175.9043,434.5039,171.9043,438.5039" style="stroke:#2F6FED;stroke-width:1;stroke-linejoin:miter;stroke-miterlimit:10;"/><line style="stroke:#2F6FED;stroke-width:1;" x1="171.9043" x2="171.9043" y1="288.7617" y2="323.7617"/><polygon fill="#2F6FED" points="167.9043,313.7617,171.9043,323.7617,175.9043,313.7617,171.9043,317.7617" style="stroke:#2F6FED;stroke-width:1;stroke-linejoin:miter;stroke-miterlimit:10;"/><line style="stroke:#2F6FED;stroke-width:1;" x1="171.9043" x2="171.9043" y1="468.5039" y2="495.4375"/><polygon fill="#2F6FED" points="167.9043,485.4375,171.9043,495.4375,175.9043,485.4375,171.9043,489.4375" style="stroke:#2F6FED;stroke-width:1;stroke-linejoin:miter;stroke-miterlimit:10;"/><line style="stroke:#2F6FED;stroke-width:1;" x1="171.9043" x2="171.9043" y1="571.3125" y2="599.8281"/><polygon fill="#2F6FED" points="167.9043,589.8281,171.9043,599.8281,175.9043,589.8281,171.9043,593.8281" style="stroke:#2F6FED;stroke-width:1;stroke-linejoin:miter;stroke-miterlimit:10;"/><line style="stroke:#2F6FED;stroke-width:1;" x1="171.9043" x2="171.9043" y1="661.7344" y2="691.6758"/><polygon fill="#2F6FED" points="167.9043,681.6758,171.9043,691.6758,175.9043,681.6758,171.9043,685.6758" style="stroke:#2F6FED;stroke-width:1;stroke-linejoin:miter;stroke-miterlimit:10;"/><line style="stroke:#2F6FED;stroke-width:1;" x1="171.9043" x2="171.9043" y1="739.6133" y2="769.5547"/><polygon fill="#2F6FED" points="167.9043,759.5547,171.9043,769.5547,175.9043,759.5547,171.9043,763.5547" style="stroke:#2F6FED;stroke-width:1;stroke-linejoin:miter;stroke-miterlimit:10;"/><line style="stroke:#2F6FED;stroke-width:1;" x1="525.4442" x2="525.4442" y1="305.1992" y2="340.1992"/><polygon fill="#2F6FED" points="521.4442,330.1992,525.4442,340.1992,529.4442,330.1992,525.4442,334.1992" style="stroke:#2F6FED;stroke-width:1;stroke-linejoin:miter;stroke-miterlimit:10;"/><line style="stroke:#2F6FED;stroke-width:1;" x1="525.4442" x2="525.4442" y1="246.8281" y2="271.2305"/><polygon fill="#2F6FED" points="521.4442,261.2305,525.4442,271.2305,529.4442,261.2305,525.4442,265.2305" style="stroke:#2F6FED;stroke-width:1;stroke-linejoin:miter;stroke-miterlimit:10;"/><line style="stroke:#2F6FED;stroke-width:1;" x1="572.8424" x2="584.8424" y1="234.8281" y2="234.8281"/><polygon fill="#2F6FED" points="580.8424,303.7148,584.8424,313.7148,588.8424,303.7148,584.8424,307.7148" style="stroke:#2F6FED;stroke-width:1;stroke-linejoin:miter;stroke-miterlimit:10;"/><line style="stroke:#2F6FED;stroke-width:1;" x1="584.8424" x2="584.8424" y1="234.8281" y2="392.6016"/><line style="stroke:#2F6FED;stroke-width:1;" x1="584.8424" x2="525.4442" y1="392.6016" y2="392.6016"/><line style="stroke:#2F6FED;stroke-width:1;" x1="525.4442" x2="525.4442" y1="392.6016" y2="427.6016"/><polygon fill="#2F6FED" points="521.4442,417.6016,525.4442,427.6016,529.4442,417.6016,525.4442,421.6016" style="stroke:#2F6FED;stroke-width:1;stroke-linejoin:miter;stroke-miterlimit:10;"/><line style="stroke:#2F6FED;stroke-width:1;" x1="525.4442" x2="525.4442" y1="198.8008" y2="222.8281"/><polygon fill="#2F6FED" points="521.4442,212.8281,525.4442,222.8281,529.4442,212.8281,525.4442,216.8281" style="stroke:#2F6FED;stroke-width:1;stroke-linejoin:miter;stroke-miterlimit:10;"/><line style="stroke:#2F6FED;stroke-width:1;" x1="525.4442" x2="525.4442" y1="570.875" y2="599.3906"/><polygon fill="#2F6FED" points="521.4442,589.3906,525.4442,599.3906,529.4442,589.3906,525.4442,593.3906" style="stroke:#2F6FED;stroke-width:1;stroke-linejoin:miter;stroke-miterlimit:10;"/><line style="stroke:#2F6FED;stroke-width:1;" x1="525.4442" x2="525.4442" y1="512.5039" y2="536.9063"/><polygon fill="#2F6FED" points="521.4442,526.9063,525.4442,536.9063,529.4442,526.9063,525.4442,530.9063" style="stroke:#2F6FED;stroke-width:1;stroke-linejoin:miter;stroke-miterlimit:10;"/><line style="stroke:#2F6FED;stroke-width:1;" x1="610.5099" x2="622.5099" y1="500.5039" y2="500.5039"/><polygon fill="#2F6FED" points="618.5099,569.3906,622.5099,579.3906,626.5099,569.3906,622.5099,573.3906" style="stroke:#2F6FED;stroke-width:1;stroke-linejoin:miter;stroke-miterlimit:10;"/><line style="stroke:#2F6FED;stroke-width:1;" x1="622.5099" x2="622.5099" y1="500.5039" y2="651.793"/><line style="stroke:#2F6FED;stroke-width:1;" x1="622.5099" x2="525.4442" y1="651.793" y2="651.793"/><line style="stroke:#2F6FED;stroke-width:1;" x1="525.4442" x2="525.4442" y1="651.793" y2="681.7344"/><polygon fill="#2F6FED" points="521.4442,671.7344,525.4442,681.7344,529.4442,671.7344,525.4442,675.7344" style="stroke:#2F6FED;stroke-width:1;stroke-linejoin:miter;stroke-miterlimit:10;"/><line style="stroke:#2F6FED;stroke-width:1;" x1="525.4442" x2="525.4442" y1="461.5703" y2="488.5039"/><polygon fill="#2F6FED" points="521.4442,478.5039,525.4442,488.5039,529.4442,478.5039,525.4442,482.5039" style="stroke:#2F6FED;stroke-width:1;stroke-linejoin:miter;stroke-miterlimit:10;"/><line style="stroke:#2F6FED;stroke-width:1;" x1="525.4442" x2="525.4442" y1="729.6719" y2="759.6133"/><polygon fill="#2F6FED" points="521.4442,749.6133,525.4442,759.6133,529.4442,749.6133,525.4442,753.6133" style="stroke:#2F6FED;stroke-width:1;stroke-linejoin:miter;stroke-miterlimit:10;"/><line style="stroke:#2F6FED;stroke-width:1;" x1="171.9043" x2="171.9043" y1="110.0938" y2="154.8906"/><polygon fill="#2F6FED" points="167.9043,144.8906,171.9043,154.8906,175.9043,144.8906,171.9043,148.8906" style="stroke:#2F6FED;stroke-width:1;stroke-linejoin:miter;stroke-miterlimit:10;"/><line style="stroke:#2F6FED;stroke-width:1;" x1="525.4442" x2="525.4442" y1="110.0938" y2="164.832"/><polygon fill="#2F6FED" points="521.4442,154.832,525.4442,164.832,529.4442,154.832,525.4442,158.832" style="stroke:#2F6FED;stroke-width:1;stroke-linejoin:miter;stroke-miterlimit:10;"/><line style="stroke:#2F6FED;stroke-width:1;" x1="171.9043" x2="171.9043" y1="817.4922" y2="857.4922"/><polygon fill="#2F6FED" points="167.9043,847.4922,171.9043,857.4922,175.9043,847.4922,171.9043,851.4922" style="stroke:#2F6FED;stroke-width:1;stroke-linejoin:miter;stroke-miterlimit:10;"/><line style="stroke:#2F6FED;stroke-width:1;" x1="525.4442" x2="525.4442" y1="807.5508" y2="857.4922"/><polygon fill="#2F6FED" points="521.4442,847.4922,525.4442,857.4922,529.4442,847.4922,525.4442,851.4922" style="stroke:#2F6FED;stroke-width:1;stroke-linejoin:miter;stroke-miterlimit:10;"/><line style="stroke:#2F6FED;stroke-width:1;" x1="350.5186" x2="350.5186" y1="88.5938" y2="108.5938"/><polygon fill="#2F6FED" points="346.5186,98.5938,350.5186,108.5938,354.5186,98.5938,350.5186,102.5938" style="stroke:#2F6FED;stroke-width:1;stroke-linejoin:miter;stroke-miterlimit:10;"/><line style="stroke:#2F6FED;stroke-width:1;" x1="350.5186" x2="350.5186" y1="858.9922" y2="877.4922"/><polygon fill="#2F6FED" points="346.5186,867.4922,350.5186,877.4922,354.5186,867.4922,350.5186,871.4922" style="stroke:#2F6FED;stroke-width:1;stroke-linejoin:miter;stroke-miterlimit:10;"/><?plantuml-src XLFDJjj04BxdAKQfL3bg4XA8MYaSga2J4W5gHE1GDJrCl1DdQdljxgwX4I3r8Vg4VPBEhWCj0ih9ykutCz_Fh6EN4KmEE_tU44PPPM1MMNJm0Ht2KPLM-K9_79_33fQyOoYfCdHSQ0kl7ntjV67rjT6mAUiI3UOmYXrVijiSO9mcfgYqEYoomi2hyNWoc4oUGXP6aTcYTbTlLwJ-HHbJN3rxkMqnTsZSIw3nFHLwDuZtOc7jo-HJPkmQ0dRiDK7pIUs_V_uIWrPI0cVXs78JhXi0mr6-v0o-LsGs44RQXOvAJAWD6UVisc09JRnkGuoEai9ivAGmxa2-GNjhtxUPesOdNK5pXZnSw0xu9aCuHRVkvlWZwhTzVqjJxU3c1lejZmaZxa2ietwlrtvGqkrsMp91Hl0Aef72cYGvCbjYxrlWrgGX-emjWNakd9Ue8IMO1yH9aOWcj1iTmueDTL2hpgem2OawnmfJM6P5d88XMufR52IHLhng16sLhJHShSdGOOQLfI2FRSX693fJaJ-f-GpXqrda_9AsGP6D3PS-WnPCJwR7Ou-xCnAYRvmYBAjKs3Rdb5VOhBKEPwR8sL8Niqo6zRl2MwjJr5AZPC_5kzqknBAW3Y9NECpg58xOLJhnphCEoOCuXI8-O6OIY9KSAsD8krd8M6NRqcFAbvYnft9qVZw3tLvleQ_zi7PeShlVkDrk6s22h5_QkV2uwiMJSjcn9nUF5IWq31Td9zlrkmzRhkfmKE7Za0F9GQ-t7twjAye7cNc_BZJBNiEIZ4ABnajZTT_-ZivsY68d0GZcsL63PqPDTMme5qVXaabUkm_bJLzC_z-klMJw4FvQMLil0w5-x9x17m00?></g></svg>